<?xml version="1.0" standalone="no"?>
<!DOCTYPE svg PUBLIC "-//W3C//DTD SVG 1.1//EN" "http://www.w3.org/Graphics/SVG/1.1/DTD/svg11.dtd" >
<svg xmlns="http://www.w3.org/2000/svg">
<metadata></metadata>
<defs>
<font id="myriad_set_protext" horiz-adv-x="1366" >
<font-face units-per-em="2048" ascent="1638" descent="-410" />
<missing-glyph horiz-adv-x="495" />
<glyph unicode="&#xfb00;" horiz-adv-x="1146" d="M29 872v117h137v58q0 197 106.5 312.5t319.5 115.5q137 0 242 -45l14 -9l14 9q90 45 203 45q41 0 76 -4.5t82 -20.5l-31 -104q-61 20 -127 20q-45 -2 -90 -13.5t-82 -45t-60.5 -97t-23.5 -170.5v-51h242v-117h-242v-872h-152v872h-340v-872h-151v872h-137zM315 989h342 v51q2 78 12.5 140.5t43.5 109.5l22 33q-41 23 -80 30t-94 7q-39 0 -82 -11.5t-80 -45t-60.5 -98t-23.5 -171.5v-45z" />
<glyph unicode="&#xfb01;" horiz-adv-x="1034" d="M29 868v121h137v58q0 197 107.5 312.5t306.5 115.5q152 0 241 -66l-49 -119q-84 55 -203 56q-248 0 -247 -306v-51h563v-989h-156v868h-405v-868h-158v868h-137z" />
<glyph unicode="&#xfb02;" horiz-adv-x="1034" d="M29 868v121h137v43q0 100 28.5 181t84 139.5t137.5 90.5t190 32q164 0 279 -62v-1413h-156v1323q-53 27 -149 27q-258 0 -258 -308v-53h237v-121h-235v-868h-158v868h-137z" />
<glyph unicode="&#xfb03;" horiz-adv-x="1505" d="M29 872v117h137v58q0 199 106.5 313.5t317.5 114.5q135 0 239 -45l15 -9l14 9q90 45 203 45q61 0 117.5 -9.5t97.5 -31.5l-33 -105q-41 18 -85 27.5t-99 9.5q-41 -2 -85 -13.5t-83 -45t-63.5 -97t-24.5 -170.5v-51h553v-989h-150v872h-401v-872h-150v872h-340v-872h-149 v872h-137zM313 989h342v51q2 78 14.5 139.5t41.5 108.5l20 35q-43 16 -80 26.5t-92 10.5q-41 0 -84 -11.5t-79 -46t-59.5 -99t-23.5 -169.5v-45z" />
<glyph unicode="&#xfb04;" horiz-adv-x="1505" d="M29 872v117h137v66q0 94 26.5 171t80 132t132 86t185.5 31q135 0 239 -45l15 -9l14 9q90 45 201 45q63 0 144 -15.5t153 -52.5v-1407h-152v1339q-65 27 -143 27q-41 0 -87 -12.5t-84 -46t-62.5 -95t-24.5 -157.5v-66h248v-117h-246v-872h-150v872h-340v-872h-149v872 h-137zM313 989h342v51q2 78 14.5 139.5t41.5 108.5l20 35q-43 16 -80 26.5t-92 10.5q-41 0 -84 -11.5t-79 -46t-59.5 -99t-23.5 -169.5v-45z" />
<glyph horiz-adv-x="0" />
<glyph horiz-adv-x="0" />
<glyph unicode="&#xd;" horiz-adv-x="495" />
<glyph unicode=" "  horiz-adv-x="495" />
<glyph unicode="&#x09;" horiz-adv-x="495" />
<glyph unicode="&#xa0;" horiz-adv-x="495" />
<glyph unicode="!" horiz-adv-x="454" d="M119 94q0 51 30.5 84t77.5 33q49 0 79 -33t30 -84q0 -59 -34 -88t-77 -29q-41 0 -73.5 30t-32.5 87zM139 1380h174l-24 -993h-125z" />
<glyph unicode="&#x22;" horiz-adv-x="667" d="M109 1415h159l-30 -479h-99zM399 1415h160l-31 -479h-98z" />
<glyph unicode="#" horiz-adv-x="985" d="M74 408v108h182l41 309h-176v109h190l54 397h108l-51 -397h215l51 397h111l-51 -397h163v-109h-180l-39 -309h174v-108h-190l-53 -408h-111l53 408h-213l-53 -408h-113l54 408h-166zM367 516h215l39 309h-213z" />
<glyph unicode="$" horiz-adv-x="1019" d="M135 123l47 119q125 -86 281 -86q111 0 179.5 59t68.5 154q0 162 -230 256q-178 74 -253.5 154.5t-75.5 195.5q0 129 81.5 215t217.5 108v207h114v-200q147 -2 256 -72l-47 -119q-119 70 -248 70q-104 0 -162.5 -53.5t-58.5 -133.5q0 -41 12.5 -72.5t41 -59t77.5 -54.5 t121 -57q164 -72 235.5 -158t71.5 -213q0 -131 -85 -225.5t-226 -118.5v-213h-117v207q-184 4 -301 90z" />
<glyph unicode="%" horiz-adv-x="1572" d="M63 938q0 92 21.5 168t62.5 131t97.5 86t128.5 31q143 0 219 -110t76 -288q0 -94 -21.5 -170.5t-60.5 -132t-96.5 -85t-127.5 -29.5q-133 0 -216 106.5t-83 292.5zM190 944q0 -137 46.5 -223t132.5 -86q176 0 176 313q0 307 -178 307q-41 0 -73 -24.5t-55.5 -66.5 t-36 -98t-12.5 -122zM342 -27l780 1383h105l-781 -1383h-104zM905 387q0 92 21.5 168t62.5 131t97.5 85t127.5 30q141 0 218 -107.5t77 -287.5q0 -96 -22.5 -173t-62.5 -132.5t-96 -85t-126 -29.5q-131 0 -214 107.5t-83 293.5zM1032 393q0 -139 47 -224t129 -85 q176 0 176 313q0 307 -176 308q-41 0 -73.5 -24t-55 -66t-35 -99t-12.5 -123z" />
<glyph unicode="&#x26;" horiz-adv-x="1198" d="M63 365q0 250 267 403v6q-115 152 -115 293q0 72 24.5 133.5t69.5 106.5t106.5 70.5t135.5 25.5q61 0 114.5 -20.5t92.5 -58.5t60.5 -91t21.5 -119q0 -215 -303 -369v-8q193 -227 350 -405q92 145 131 413h143q-57 -342 -190 -505q33 -35 88 -94.5t135 -145.5h-188 q-14 12 -134 139q-170 -162 -399 -162q-90 0 -165 29t-129 81t-85 123t-31 155zM215 387q0 -66 22.5 -119t61.5 -91t91 -58.5t112 -20.5q176 0 293 133q-59 68 -157.5 179.5t-236.5 271.5q-186 -119 -186 -295zM360 1081q0 -119 105 -256q133 76 185 138.5t52 142.5 q0 86 -46 136t-117 50q-78 0 -128.5 -58t-50.5 -153z" />
<glyph unicode="'" horiz-adv-x="376" d="M109 1415h159l-30 -479h-99z" />
<glyph unicode="(" horiz-adv-x="567" d="M133 584q0 483 270 839h127q-262 -348 -262 -839q0 -465 262 -832h-127q-270 350 -270 832z" />
<glyph unicode=")" horiz-adv-x="567" d="M37 -248q262 360 262 838q0 473 -262 833h127q270 -348 270 -835q0 -477 -270 -836h-127z" />
<glyph unicode="*" horiz-adv-x="831" d="M61 989v127l295 -33v4l-186 248l115 66l129 -279h4l125 281l112 -64l-188 -258l305 35v-127l-305 35v-6l190 -244l-118 -67l-125 280h-4l-134 -282l-106 67l188 248v6z" />
<glyph unicode="+" horiz-adv-x="1220" d="M82 492v110h469v488h119v-488h469v-110h-469v-492h-119v492h-469z" />
<glyph unicode="," horiz-adv-x="403" d="M39 -254q78 211 119 475l178 21q-84 -311 -184 -484z" />
<glyph unicode="-" horiz-adv-x="620" d="M61 496v118h498v-118h-498z" />
<glyph unicode="." horiz-adv-x="403" d="M106 96q0 51 32 85t81 34q47 0 78 -34t31 -85t-31 -85t-82 -34q-45 0 -77 34t-32 85z" />
<glyph unicode="/" horiz-adv-x="698" d="M-6 -82l584 1485h127l-586 -1485h-125z" />
<glyph unicode="0" horiz-adv-x="1019" d="M74 662q0 154 30.5 280.5t88 218.5t141.5 142.5t188 50.5q102 0 181 -47t133.5 -135.5t82 -212t27.5 -279.5q0 -338 -115.5 -520.5t-332.5 -182.5q-98 0 -177 49.5t-134.5 139.5t-84 216t-28.5 280zM229 659q0 -123 18.5 -225t54.5 -176t87 -115t117 -41q135 0 207.5 148 t72.5 422q0 557 -278 557q-66 0 -117 -42t-87 -118t-55.5 -180.5t-19.5 -229.5z" />
<glyph unicode="1" horiz-adv-x="1019" d="M215 1178l279 153h135v-1331h-152v1182l-231 -125z" />
<glyph unicode="2" horiz-adv-x="1019" d="M90 0v96l135 135q141 141 233.5 244t137.5 162q125 168 125 315q0 270 -266 271q-141 0 -277 -111l-51 109q156 133 360 133q86 0 158 -28t123 -77t80 -119.5t29 -156.5q0 -174 -125 -357q-47 -66 -131 -162t-209 -218l-103 -101v-4h602v-131h-821z" />
<glyph unicode="3" horiz-adv-x="1019" d="M86 68l45 118q125 -80 287 -80q143 0 224 75t81 198q0 66 -26.5 118t-74 88t-112 54t-137.5 18h-92v119h92q61 0 116.5 17.5t97.5 49t65.5 75t23.5 96.5q0 102 -63.5 156.5t-174.5 54.5q-137 0 -256 -86l-45 112q133 102 330 103q82 0 150.5 -22.5t116.5 -63.5t75 -99.5 t27 -130.5q0 -223 -244 -313v-4q131 -29 212 -120t81 -226q0 -86 -34 -160t-95.5 -126t-148.5 -82t-191 -30q-203 0 -330 91z" />
<glyph unicode="4" horiz-adv-x="1019" d="M29 371v102l596 858h161v-837h189v-123h-189v-371h-147v371h-610zM190 494h449v467q0 53 2 104t6 102h-8q-16 -35 -44 -83t-65 -111z" />
<glyph unicode="5" horiz-adv-x="1019" d="M84 59l43 121q119 -76 276 -76q68 0 125.5 23t100.5 62.5t67.5 97t24.5 125.5q0 311 -377 311q-47 0 -92 -3t-90 -11l86 622h610v-133h-496l-55 -360q27 4 53.5 6t55.5 2q104 0 189 -30t145.5 -84t94.5 -131t34 -171q0 -98 -36 -181t-99.5 -143.5t-151.5 -94.5t-191 -34 q-197 0 -317 82z" />
<glyph unicode="6" horiz-adv-x="1019" d="M70 541q0 168 49 315.5t144 258t236.5 174t323.5 63.5l2 -131h-22q-115 0 -214.5 -38t-174 -105.5t-122.5 -161t-61 -205.5h5q113 162 321 161q86 0 158.5 -30.5t125 -87t81 -135.5t28.5 -175q0 -98 -31.5 -183t-89 -148.5t-135.5 -99.5t-172 -36q-102 0 -185 40 t-142.5 114t-92 178.5t-32.5 231.5zM225 504q0 -92 21.5 -166t60.5 -127t95.5 -82t123.5 -29q117 0 191 90t74 244q0 150 -75 234t-204 84q-45 0 -95 -18.5t-93 -51.5t-71 -79t-28 -99z" />
<glyph unicode="7" horiz-adv-x="1019" d="M117 1200v131h809v-104l-574 -1227h-159l569 1200h-645z" />
<glyph unicode="8" horiz-adv-x="1019" d="M78 334q0 244 262 364v7q-213 98 -213 299q0 78 30.5 142t85 110.5t126 72t155.5 25.5q80 0 147.5 -23.5t117 -66.5t78 -102.5t28.5 -131.5q0 -211 -219 -315v-6q266 -107 266 -349q0 -84 -34 -154.5t-92 -120.5t-138 -79t-172 -29t-170 27t-135.5 74t-90 112.5 t-32.5 143.5zM238 352q0 -59 20.5 -106t57 -81t87 -52.5t109.5 -18.5q57 0 107.5 17.5t87 50.5t58 79t21.5 103q0 213 -299 303q-250 -78 -249 -295zM281 1018q0 -188 258 -258q209 74 209 254q0 104 -62.5 164.5t-169.5 60.5q-100 0 -167.5 -60.5t-67.5 -160.5z" />
<glyph unicode="9" horiz-adv-x="1019" d="M86 885q0 94 32 179t90 149.5t139 102.5t177 38q98 0 176 -40t133.5 -113t85 -176t29.5 -230q0 -182 -49 -332t-143 -257.5t-230.5 -166.5t-308.5 -59h-22v131q16 -2 29.5 -2h29.5q104 0 194.5 35.5t160 102t116.5 163t63 217.5h-4q-119 -150 -317 -150q-86 0 -156.5 32 t-120 86t-77 129t-27.5 161zM242 893q0 -135 71.5 -215t190.5 -80q47 0 98 13.5t93 41t69 66.5t27 92q0 195 -72 307.5t-211 112.5q-59 0 -108.5 -25.5t-84 -70.5t-54 -107.5t-19.5 -134.5z" />
<glyph unicode=":" horiz-adv-x="403" d="M106 94q0 53 31 86t80 33q47 0 78 -33t31 -86q0 -57 -34 -87t-79 -30q-41 0 -74 31t-33 86zM109 829q0 53 30.5 86t79.5 33q47 0 78 -33t31 -86q0 -57 -34 -86.5t-79 -29.5q-41 0 -73.5 30.5t-32.5 85.5z" />
<glyph unicode=";" horiz-adv-x="403" d="M39 -254q78 211 119 475l178 21q-84 -311 -184 -484zM125 829q0 53 30.5 86t80.5 33q49 0 79.5 -33t28.5 -86q0 -55 -34 -85.5t-77 -30.5t-75.5 30.5t-32.5 85.5z" />
<glyph unicode="&#x3c;" horiz-adv-x="1220" d="M137 496v98l946 496v-129l-811 -414v-4l811 -414v-129z" />
<glyph unicode="=" horiz-adv-x="1220" d="M82 297v111h1057v-111h-1057zM82 694v113h1057v-113h-1057z" />
<glyph unicode="&#x3e;" horiz-adv-x="1220" d="M137 0v129l815 414v4l-815 414v129l946 -492v-106z" />
<glyph unicode="?" horiz-adv-x="804" d="M104 1325q106 80 279 80q74 0 134.5 -21.5t104.5 -60.5t67.5 -93t23.5 -122q0 -43 -7.5 -80t-27 -78t-53 -89t-86.5 -111q-115 -135 -115 -291v-23l2 -53h-139l-6 51q-2 10 -2 21.5v21.5q0 162 127 320q145 180 145 293q0 184 -201 184q-121 0 -200 -62zM242 94 q0 51 31.5 85t78.5 34q49 0 80 -33t31 -86t-32 -85t-81 -32q-43 0 -75.5 32t-32.5 85z" />
<glyph unicode="@" horiz-adv-x="1478" d="M84 612q0 168 56.5 313.5t155.5 252t234.5 167t292.5 60.5q129 0 234.5 -44t182.5 -122t119 -185.5t42 -234.5q0 -109 -26.5 -200t-75 -156.5t-113 -102t-139.5 -36.5q-63 0 -105.5 42t-42.5 126v14h-6q-109 -182 -291 -182q-47 0 -86 19t-67.5 53t-45 81t-16.5 101 q0 96 37 184t101.5 155.5t152.5 108.5t192 41q119 0 211 -41l-71 -373q-6 -35 -10.5 -64.5t-4.5 -53.5q0 -117 80 -117q45 0 85 30.5t70 84t47 123t17 147.5q0 115 -32.5 209t-96 161.5t-153.5 104.5t-205 37q-131 0 -243.5 -52.5t-194.5 -145.5t-129 -220t-47 -276 q0 -123 37.5 -225.5t107.5 -175.5t165 -112.5t210 -39.5q178 0 307 73l31 -84q-150 -82 -359 -82q-133 0 -243.5 48.5t-192.5 133.5t-127 201.5t-45 253.5zM510 582q0 -158 137 -158q39 0 81 23.5t78 63.5t62.5 92t36.5 108l47 241q-49 16 -104 17q-68 0 -129.5 -31 t-107.5 -84t-73.5 -122.5t-27.5 -149.5z" />
<glyph unicode="A" horiz-adv-x="1214" d="M53 0l467 1380h180l467 -1380h-163l-152 446h-492l-147 -446h-160zM395 569h424l-139 412q-14 39 -31.5 102.5t-40.5 151.5h-4q-20 -82 -36.5 -144.5t-32.5 -107.5z" />
<glyph unicode="B" horiz-adv-x="1073" d="M156 2v1360q137 29 307 29q229 0 352 -89.5t123 -252.5q0 -104 -63.5 -185.5t-169.5 -120.5v-4q125 -31 204.5 -124t79.5 -224q0 -90 -33.5 -164.5t-103.5 -128t-177.5 -82t-256.5 -28.5q-66 0 -131.5 3t-130.5 11zM311 121q51 -10 150 -10q172 0 268 72.5t96 207.5 q0 131 -98 206t-266 75h-150v-551zM311 791h168q137 0 219 68.5t82 174.5q0 236 -311 236q-106 0 -158 -15v-464z" />
<glyph unicode="C" horiz-adv-x="1153" d="M74 678q0 162 50 295t142 228t221 147.5t287 52.5q201 0 316 -60l-41 -127q-117 55 -271 56q-127 0 -226 -41t-170 -117t-107.5 -185.5t-36.5 -244.5q0 -133 35.5 -238.5t104 -179.5t167 -112.5t223.5 -38.5q170 0 287 55l35 -125q-127 -63 -357 -63q-150 0 -271.5 49 t-207.5 140t-133 220t-47 289z" />
<glyph unicode="D" horiz-adv-x="1323" d="M156 2v1360q88 14 177 21.5t183 7.5q186 0 323.5 -47.5t228.5 -133.5t135 -208.5t44 -276.5q0 -172 -48 -309t-146.5 -232.5t-244.5 -145.5t-343 -50q-92 0 -169 3t-140 11zM311 123q27 -4 72 -6t111 -2q291 0 441 155.5t150 446.5q0 270 -144 409.5t-419 139.5 q-119 0 -211 -19v-1124z" />
<glyph unicode="E" horiz-adv-x="972" d="M156 0v1380h714v-129h-559v-465h529v-129h-529v-528h590v-129h-745z" />
<glyph unicode="F" horiz-adv-x="962" d="M156 0v1380h712v-129h-557v-485h514v-129h-514v-637h-155z" />
<glyph unicode="G" horiz-adv-x="1282" d="M74 682q0 156 51 287t146.5 225t228.5 147.5t299 53.5q201 0 329 -62l-41 -127q-123 57 -292 58q-127 0 -229.5 -40t-175.5 -114t-112.5 -180.5t-39.5 -239.5q0 -135 37.5 -241.5t106.5 -181t168 -113.5t222 -39q166 0 242 39v434h-283v125h436v-654q-187 -73 -401 -73 h-6q-158 0 -284 48t-216 137t-138 218t-48 293z" />
<glyph unicode="H" horiz-adv-x="1296" d="M156 0v1380h155v-587h674v587h156v-1380h-156v659h-674v-659h-155z" />
<glyph unicode="I" horiz-adv-x="468" d="M156 0v1380h155v-1380h-155z" />
<glyph unicode="J" horiz-adv-x="729" d="M10 8l25 127q61 -24 137 -24h6q135 0 194.5 80.5t59.5 269.5v919h156v-936q0 -467 -400 -467q-104 0 -178 31z" />
<glyph unicode="K" horiz-adv-x="1067" d="M156 0v1380h155v-673h6q51 76 111 147l428 526h191l-496 -585l536 -795h-184l-461 690l-131 -151v-539h-155z" />
<glyph unicode="L" horiz-adv-x="935" d="M156 0v1380h155v-1249h584v-131h-739z" />
<glyph unicode="M" horiz-adv-x="1603" d="M121 0l94 1380h195l245 -698q43 -121 78 -235.5t64 -227.5h4q55 211 147 461l256 700h195l86 -1380h-152l-35 618q-10 199 -16 338.5t-6 225.5v35h-6q-37 -123 -79 -253t-93 -268l-252 -690h-115l-233 676q-53 154 -93 287t-67 248h-6q-2 -147 -9.5 -300t-17.5 -313 l-37 -604h-147z" />
<glyph unicode="N" horiz-adv-x="1310" d="M156 0v1380h166l454 -725q147 -238 246 -448l4 2q-18 223 -18 569v602h145v-1380h-154l-450 725q-168 272 -254 459l-6 -2q8 -106 11 -247.5t3 -322.5v-612h-147z" />
<glyph unicode="O" d="M74 678q0 160 46 294t128 229t195.5 148.5t248.5 53.5t247 -51.5t189.5 -143.5t120.5 -220.5t43 -282.5q0 -162 -44 -295.5t-125 -229.5t-194.5 -149.5t-252.5 -53.5q-133 0 -243.5 52.5t-190.5 145.5t-124 221t-44 282zM236 682q0 -121 32.5 -226.5t91 -183t140.5 -123 t180 -45.5q100 0 183 45.5t141.5 125t90 187t31.5 234.5q0 123 -32.5 228.5t-91 184.5t-139.5 123t-179 44q-100 0 -183 -44t-141.5 -123t-91 -188.5t-32.5 -238.5z" />
<glyph unicode="P" horiz-adv-x="1054" d="M156 0v1364q74 14 154.5 20.5t168.5 6.5q242 0 367 -108t125 -290q0 -106 -38 -189t-105.5 -139.5t-163 -85t-207.5 -28.5q-100 0 -146 14v-565h-155zM311 692q59 -16 150 -16q166 0 260 80t94 227q0 141 -90 212t-244 71q-106 0 -170 -15v-559z" />
<glyph unicode="Q" d="M74 676q0 160 45 294t126 230t195.5 149.5t253.5 53.5q135 0 245 -52.5t188.5 -144.5t121.5 -220t43 -281q0 -127 -26.5 -235t-76.5 -194t-123 -147t-167 -94v-8q117 -29 218.5 -51.5t187.5 -38.5l-48 -132q-123 31 -248.5 69t-260.5 83q-14 4 -34 10t-46 10 q-133 4 -242 56.5t-187.5 143.5t-121.5 218t-43 281zM238 680q0 -121 32.5 -225.5t91 -182t140.5 -123t180 -45.5q100 0 183 45.5t141.5 125t90 187t31.5 234.5q0 123 -31.5 228.5t-90 183.5t-138.5 123t-178 45q-102 0 -186 -44t-143.5 -124t-91 -189.5t-31.5 -238.5z" />
<glyph unicode="R" horiz-adv-x="1064" d="M156 0v1362q143 29 323 29q238 0 364 -93.5t126 -277.5q0 -266 -260 -354v-7q154 -53 204 -284q70 -311 105 -375h-162q-29 53 -88 332q-33 147 -96.5 211.5t-186.5 64.5h-174v-608h-155zM311 727h185q147 0 232 74.5t85 197.5q0 268 -326 269q-119 0 -176 -15v-526z" />
<glyph unicode="S" horiz-adv-x="974" d="M84 68l43 129q137 -86 305 -86q141 0 219 67.5t78 179.5q0 104 -60.5 169t-199.5 118q-354 133 -354 389q0 80 31.5 147.5t89 117t136.5 76t171 26.5q178 0 291 -66l-48 -127q-100 63 -249 64q-119 0 -193 -59.5t-74 -157.5q0 -47 13.5 -84t44 -70t83 -62.5t132.5 -62.5 q92 -37 157.5 -79t107.5 -91t60.5 -107t18.5 -128q0 -88 -33 -161t-93.5 -124t-146.5 -78.5t-192 -27.5q-213 0 -338 88z" />
<glyph unicode="T" horiz-adv-x="980" d="M-4 1249v131h991v-131h-420v-1249h-155v1249h-416z" />
<glyph unicode="U" horiz-adv-x="1288" d="M156 553v827h155v-829q0 -213 84 -329t242 -116q340 0 340 445v829h156v-817q0 -283 -130.5 -434.5t-371.5 -151.5q-233 0 -354 147.5t-121 428.5z" />
<glyph unicode="V" horiz-adv-x="1097" d="M8 1380h168l217 -694q106 -342 148 -520h4q23 92 60.5 220t96.5 300l238 694h166l-488 -1380h-165z" />
<glyph unicode="W" horiz-adv-x="1691" d="M31 1380h164l170 -718q35 -141 60.5 -259t41.5 -219h6q10 70 40 189t75 291l190 716h158l176 -714q37 -154 61.5 -273t38.5 -207h5q33 193 110 480l191 714h157l-389 -1380h-158l-180 737q-35 147 -59.5 260t-34.5 195h-4q-12 -74 -39 -187.5t-70 -267.5l-202 -737h-160z " />
<glyph unicode="X" horiz-adv-x="1132" d="M53 0l418 700l-401 680h178l188 -336q23 -39 55.5 -97t73.5 -136h4q39 80 129 233l193 336h180l-418 -671l426 -709h-180l-182 315q-29 49 -69 118t-91 157h-4q-18 -39 -58 -105.5t-94 -169.5l-170 -315h-178z" />
<glyph unicode="Y" horiz-adv-x="1067" d="M27 1380h178l196 -387q88 -176 142 -288h4q23 53 58.5 125.5t82.5 164.5l203 385h174l-453 -790v-590h-155v588z" />
<glyph unicode="Z" horiz-adv-x="1097" d="M61 0v92l764 1157h-698v131h897v-96l-760 -1153h770v-131h-973z" />
<glyph unicode="[" horiz-adv-x="567" d="M170 -229v1634h365v-102h-238v-1430h238v-102h-365z" />
<glyph unicode="\" horiz-adv-x="700" d="M0 1403h127l580 -1485h-127z" />
<glyph unicode="]" horiz-adv-x="567" d="M35 -127h235v1430h-235v102h362v-1634h-362v102z" />
<glyph unicode="^" horiz-adv-x="1220" d="M131 391l422 940h115l422 -940h-129l-349 805h-4l-350 -805h-127z" />
<glyph unicode="_" horiz-adv-x="1024" d="M0 -154h1024v-102h-1024v102z" />
<glyph unicode="`" horiz-adv-x="614" d="M53 1399h183l178 -289h-113z" />
<glyph unicode="a" horiz-adv-x="956" d="M74 258q0 180 149.5 273.5t433.5 93.5v22q0 244 -227 244q-141 0 -250 -72l-37 107q131 84 310 84q360 0 360 -396v-378q0 -72 3 -130.5t11 -105.5h-141l-14 127h-6q-100 -150 -299 -150q-63 0 -116.5 20.5t-92.5 58.5t-61.5 89.5t-22.5 112.5zM231 279 q0 -92 49.5 -137.5t122.5 -45.5q47 0 93.5 16.5t82 46t58 72.5t22.5 97v184h-30q-397 0 -398 -233z" />
<glyph unicode="b" horiz-adv-x="1132" d="M143 0q4 59 6.5 119.5t2.5 126.5v1206h155v-627h4q100 184 334 185q90 0 166 -37t130 -103.5t84 -159.5t30 -204q0 -117 -33 -213t-91.5 -167t-137 -110t-172.5 -39q-221 0 -328 187h-5v-164h-145zM307 389q0 -63 23.5 -115.5t62.5 -90.5t90.5 -58.5t106.5 -20.5 q143 0 225 109t82 287q0 82 -21.5 152.5t-60.5 122.5t-95 81t-124 29q-55 0 -107.5 -22.5t-92.5 -62.5t-64.5 -96.5t-24.5 -123.5v-191z" />
<glyph unicode="c" horiz-adv-x="894" d="M78 483q0 117 38 213.5t105.5 166t162.5 108.5t210 39q150 0 246 -54l-39 -122q-90 49 -209 49q-84 0 -149.5 -30t-110.5 -82t-69.5 -124t-24.5 -155q0 -86 25.5 -158t71.5 -122t109.5 -78t141.5 -28q111 0 219 50l31 -119q-115 -57 -279 -57q-109 0 -197 35.5 t-151.5 102t-97 159t-33.5 206.5z" />
<glyph unicode="d" horiz-adv-x="1120" d="M78 479q0 117 31.5 214.5t90 168t138.5 109.5t176 39q211 0 295 -154h4v596h156v-1206q0 -66 2 -126.5t6 -119.5h-139v172h-13q-96 -195 -331 -195q-90 0 -166 38t-131.5 104.5t-87 159t-31.5 200.5zM236 489q0 -86 21.5 -156.5t60 -121.5t94 -79t123.5 -28q61 0 112 25 t88 67t57.5 97t20.5 115v182q0 66 -20.5 120t-57.5 94t-87 61.5t-107 21.5q-70 0 -126.5 -30t-96 -82t-61 -126t-21.5 -160z" />
<glyph unicode="e" horiz-adv-x="997" d="M78 479q0 117 32.5 214.5t91 168t141.5 110.5t185 40q92 0 165 -34t124 -94.5t78 -144.5t27 -184q0 -49 -7 -80h-686q4 -176 93.5 -273.5t248.5 -97.5q152 0 267 52l28 -113q-129 -61 -317 -61q-111 0 -198 35.5t-148.5 102t-93 158t-31.5 201.5zM233 590h535 q0 141 -65.5 224t-188.5 83q-115 0 -190.5 -86t-90.5 -221z" />
<glyph unicode="f" horiz-adv-x="573" d="M29 868v121h137v49q0 211 92 324t252 113q88 0 149 -31l-24 -121q-55 23 -117 23q-197 0 -196 -304v-53h241v-121h-239v-868h-158v868h-137z" />
<glyph unicode="g" horiz-adv-x="1114" d="M78 487q0 244 137 390q123 133 301 133q215 0 305 -172h4l9 151h139q-4 -59 -6 -126.5t-2 -143.5v-576q0 -328 -138 -452q-127 -117 -346 -117q-201 0 -319 80l43 121q125 -78 284 -78q319 0 320 358v117h-4q-96 -170 -313 -170q-180 0 -297 137t-117 348zM236 498 q0 -162 77 -265q79 -108 221 -108h3q86 0 156.5 50t99.5 142q16 45 16 97v192q0 115 -78 199q-76 82 -192 82q-68 0 -124.5 -28t-96 -79t-61 -122.5t-21.5 -159.5z" />
<glyph unicode="h" horiz-adv-x="1105" d="M152 0v1452h155v-621h4q47 82 132 130.5t180 48.5q154 0 246 -109.5t92 -304.5v-596h-158v578q0 303 -234 303q-53 0 -100 -22.5t-83 -60.5t-57.5 -88.5t-21.5 -107.5v-602h-155z" />
<glyph unicode="i" horiz-adv-x="458" d="M125 1286q0 45 29.5 76t74.5 31q47 0 77 -31q28 -29 28 -70v-6q0 -47 -30 -76.5t-77 -29.5q-43 0 -72.5 29.5t-29.5 76.5zM152 0v989h155v-989h-155z" />
<glyph unicode="j" horiz-adv-x="475" d="M-92 -305q82 6 134 28.5t80 73.5t38 136t10 214v842h158v-907q0 -135 -27 -232.5t-77 -159t-124.5 -90t-173.5 -30.5zM143 1286q0 45 30 76t77 31q45 0 76 -31q28 -29 28 -71v-5q0 -45 -29.5 -75.5t-78.5 -30.5q-37 0 -70 26.5t-33 79.5z" />
<glyph unicode="k" horiz-adv-x="919" d="M152 0v1452h155v-924h4q20 29 42 57.5t44 55.5l299 348h189l-379 -409l430 -580h-188l-349 485l-92 -102v-383h-155z" />
<glyph unicode="l" horiz-adv-x="458" d="M152 0v1452h155v-1452h-155z" />
<glyph unicode="m" horiz-adv-x="1669" d="M143 989h139v-162h13q104 182 307 183q98 0 171 -53.5t104 -145.5h4q53 98 136 148.5t189 50.5q145 0 232.5 -112t87.5 -310v-588h-154v567q0 313 -221 314q-51 0 -94 -21.5t-75 -58.5t-49.5 -84t-17.5 -99v-618h-153v604q0 123 -53.5 200t-157.5 77q-53 0 -98 -23.5 t-78 -63.5t-51.5 -90.5t-18.5 -101.5v-602h-153v731q0 59 -2.5 124t-6.5 134z" />
<glyph unicode="n" horiz-adv-x="1105" d="M143 989h141v-164h13q41 82 127 133.5t197 51.5q156 0 248 -111t92 -303v-596h-158v578q0 303 -234 303q-53 0 -101 -21.5t-84 -59.5t-56.5 -89.5t-20.5 -108.5v-602h-155v731q0 59 -2.5 124t-6.5 134z" />
<glyph unicode="o" horiz-adv-x="1091" d="M78 487q0 115 34.5 211.5t97 165t151 107.5t192.5 39t189 -38t145.5 -104.5t93.5 -159.5t33 -204q0 -117 -35 -213t-98.5 -166t-150.5 -109t-193 -39q-102 0 -186.5 38t-145 106.5t-94 162t-33.5 203.5zM236 492q0 -80 22.5 -152t62 -125t97 -85t125.5 -32t124 31t97 85 t64.5 127t23.5 157q0 82 -21.5 154.5t-61.5 124.5t-96.5 83t-125.5 31q-72 0 -129.5 -31t-98 -84t-62 -125.5t-21.5 -158.5z" />
<glyph unicode="p" horiz-adv-x="1132" d="M143 989h142v-172h12q111 193 346 193q88 0 164 -37t131 -102.5t86 -158.5t31 -204q0 -119 -32 -216t-90.5 -167t-139 -109t-179.5 -39q-209 0 -303 160h-4v-543h-155v1076q0 80 -2.5 159.5t-6.5 159.5zM307 397q0 -61 21.5 -114.5t58.5 -93t89 -63.5t114 -24 q141 0 224 108t83 292q0 82 -21.5 152.5t-60.5 121.5t-95 80t-124 29q-53 0 -105.5 -22.5t-93.5 -63.5t-65.5 -97.5t-24.5 -123.5v-181z" />
<glyph unicode="q" horiz-adv-x="1118" d="M78 477q0 262 143 408q125 125 297 125q215 0 301 -172l4 -2l6 153h148q-4 -72 -6 -138.5t-2 -131.5v-1125h-156v560h-4q-96 -176 -320 -177q-172 0 -292 140q-119 137 -119 360zM309 219q80 -115 226 -115q92 0 161.5 52.5t102.5 150.5q14 43 14 90v197q0 121 -76 205 q-78 86 -196 86q-141 0 -224 -111q-81 -108 -81 -281q0 -170 73 -274z" />
<glyph unicode="r" horiz-adv-x="641" d="M145 989h138v-194h12q35 98 107.5 156.5t164.5 58.5q14 0 25.5 -1t21.5 -3v-148q-12 2 -26.5 3t-30.5 1q-55 0 -101 -24.5t-79 -67.5t-51.5 -103.5t-18.5 -131.5v-535h-155v688q0 76 -1 150.5t-6 150.5z" />
<glyph unicode="s" horiz-adv-x="784" d="M80 47l41 121q109 -70 229 -70q92 0 145.5 43t53.5 115q0 68 -42 111t-145 84q-253 100 -253 275q0 62 23.5 113.5t65.5 89.5t102 59.5t134 21.5q137 0 234 -60l-43 -116q-88 57 -197 57q-80 0 -125 -41t-45 -102q0 -29 9 -52.5t30.5 -44t57.5 -41t91 -41.5 q254 -100 254 -297q0 -135 -94 -213.5t-260 -78.5q-154 0 -266 67z" />
<glyph unicode="t" horiz-adv-x="655" d="M35 868v121h155v180l154 52v-232h260v-121h-260v-565q0 -194 134 -194h1q63 0 105 14l8 -121q-58 -22 -143 -22h-7q-123 0 -187.5 74.5t-64.5 248.5v565h-155z" />
<glyph unicode="u" horiz-adv-x="1095" d="M145 408v581h156v-553q0 -327 224 -327h1q51 0 99.5 20.5t84 57t57 86t21.5 104.5v612h156v-727q0 -66 2 -131t6 -131h-139v162h-14q-102 -184 -322 -185q-158 0 -245 111t-87 320z" />
<glyph unicode="v" horiz-adv-x="950" d="M27 989h168l198 -571q29 -82 50.5 -145.5t33.5 -110.5h4q10 39 30.5 101.5t53.5 154.5l201 571h164l-385 -989h-146z" />
<glyph unicode="w" horiz-adv-x="1476" d="M39 989h160l139 -516q25 -90 43 -168t33 -147h4q14 59 36.5 137t53.5 176l168 518h133l160 -510q27 -86 49 -164.5t39 -156.5h4q25 129 80 319l147 512h156l-318 -989h-141l-158 494q-31 96 -51 177t-37 148h-4q-16 -76 -38.5 -156.5t-53.5 -170.5l-166 -492h-143z" />
<glyph unicode="x" horiz-adv-x="913" d="M18 0l347 504l-330 485h174l145 -219q23 -35 48.5 -76t54.5 -88h4q20 35 45.5 76t56.5 88l142 219h172l-334 -479l342 -510h-176l-152 229q-23 33 -48.5 77t-57.5 100h-7q-14 -27 -39.5 -71t-66.5 -106l-148 -229h-172z" />
<glyph unicode="y" horiz-adv-x="929" d="M20 989h170l222 -600q16 -43 32.5 -94t30.5 -111h6q10 35 25.5 86.5t38.5 122.5l203 596h165l-268 -706q-100 -260 -166 -389q-84 -162 -180 -243t-190 -102l-43 132q98 35 180 115.5t131 191.5q12 27 12 43q0 14 -12 45z" />
<glyph unicode="z" horiz-adv-x="845" d="M35 0v92l461 615q16 23 46.5 60.5t75.5 90.5v4h-542v127h731v-100l-457 -610q-29 -39 -58.5 -76t-60.5 -72v-4h582v-127h-778z" />
<glyph unicode="{" horiz-adv-x="567" d="M57 541v96q84 0 125 37t41 117q0 25 -5 72.5t-12 101t-12.5 101.5t-5.5 73q0 266 293 266h37v-102h-37q-166 0 -166 -181q0 -23 4.5 -65.5t10.5 -88.5t11 -89t7 -66q0 -182 -143 -221v-4q143 -39 143 -221q-2 -23 -7 -66t-11 -90t-10.5 -90t-4.5 -66q0 -182 168 -182h35 v-102h-37q-293 0 -293 278q0 25 5.5 72t12.5 98t12 98.5t5 69.5q0 80 -41 117t-125 37z" />
<glyph unicode="|" horiz-adv-x="468" d="M174 -512v2048h123v-2048h-123z" />
<glyph unicode="}" horiz-adv-x="567" d="M49 -127h35q168 0 168 182q0 23 -4 66t-10.5 90t-11.5 90t-7 66q0 182 143 221v4q-143 39 -143 221q2 23 7 66t11.5 90t10.5 89t4 64q0 180 -166 181h-37v102h37q291 0 291 -266q0 -25 -5 -73t-11.5 -101.5t-11.5 -101.5t-5 -72q0 -80 41 -117t125 -37v-96 q-84 0 -125 -37t-41 -117q0 -23 5 -70t11.5 -98t11.5 -98t5 -72q0 -279 -291 -278h-37v102z" />
<glyph unicode="~" horiz-adv-x="1220" d="M104 438v17q0 133 66 205.5t172 72.5q88 0 289 -92q184 -86 262 -86q111 0 115 172h108v-25q0 -129 -61.5 -199.5t-165.5 -70.5q-98 0 -295 90t-254 90q-123 0 -125 -174h-111z" />
<glyph unicode="&#xa1;" horiz-adv-x="454" d="M119 883q0 59 37 90q29 27 73 26q43 0 75 -29.5t32 -86.5q0 -51 -31 -84t-78 -33q-49 0 -78.5 32.5t-29.5 84.5zM141 -399l25 987h123l26 -987h-174z" />
<glyph unicode="&#xa2;" horiz-adv-x="1019" d="M133 668q0 98 28.5 183t82 151.5t127 109.5t164.5 57v207h114v-202q127 0 223 -52l-38 -123q-90 53 -216 54q-74 0 -134 -30t-104 -82t-67.5 -120.5t-23.5 -148.5q0 -86 23.5 -154.5t66.5 -117t102.5 -75t130.5 -26.5q121 0 232 53l30 -112q-88 -51 -225 -62v-207h-114 v209q-184 18 -293 144.5t-109 343.5z" />
<glyph unicode="&#xa3;" horiz-adv-x="1019" d="M113 0v90q104 55 167.5 153.5t63.5 215.5q0 76 -12 155h-209v115h192q-25 141 -24 229q0 88 28.5 162t79 125t120 80t149.5 29q135 0 217 -51l-39 -119q-72 41 -180 41q-225 0 -226 -262q0 -102 25 -234h291v-115h-277q6 -68 6 -120q0 -119 -38.5 -205t-120.5 -154v-4 h612v-131h-825z" />
<glyph unicode="&#xa4;" horiz-adv-x="1019" d="M45 502l23 92h118q-2 16 -2 30.5v28.5q0 29 1 56.5t3 54.5h-139l23 92h129q88 498 501 498q137 0 252 -68l-34 -123q-115 66 -224 66q-266 0 -338 -373h486l-23 -92h-477q-2 -27 -3 -54.5t-1 -56.5v-28.5t2 -30.5h438l-14 -92h-416q55 -399 338 -400q117 0 219 66 l31 -115q-88 -76 -266 -76q-416 0 -479 525h-148z" />
<glyph unicode="&#xa5;" horiz-adv-x="1019" d="M37 1331h168l217 -434q20 -39 39.5 -84t42.5 -98h6q35 100 80 186l229 430h162l-363 -626h267v-93h-314v-153h314v-92h-314v-367h-149v367h-311v92h311v153h-311v93h266z" />
<glyph unicode="&#xa6;" horiz-adv-x="468" d="M174 -358v716h123v-716h-123zM174 666v716h123v-716h-123z" />
<glyph unicode="&#xa7;" horiz-adv-x="1032" d="M121 702q0 137 147 240q-35 29 -55 72t-20 96q0 66 28.5 119t77.5 90t115.5 57.5t142.5 20.5q156 0 270 -68l-41 -104q-102 66 -237 65q-92 0 -154.5 -44t-62.5 -118q0 -33 10 -59.5t40 -49t80 -46t130 -49.5q90 -31 151.5 -63t99.5 -70.5t54 -84t16 -100.5 q0 -145 -131 -246q78 -72 78 -180q0 -70 -27.5 -125t-77.5 -95t-120 -61.5t-152 -21.5q-193 0 -307 84l47 105q106 -82 262 -82q104 0 169 46t65 132q0 37 -13.5 67.5t-43 56t-77.5 50t-120 49.5q-100 37 -166 70.5t-105.5 70.5t-56 80t-16.5 96zM250 721q0 -119 219 -199 q168 -61 231 -102q82 64 82 166q0 57 -26.5 93t-79.5 64.5t-135 61.5t-195 86q-96 -72 -96 -168v-2z" />
<glyph unicode="&#xa8;" horiz-adv-x="614" d="M33 1239q0 39 27.5 67.5t66.5 28.5t64.5 -28.5t25.5 -67.5q0 -41 -25.5 -68.5t-66.5 -27.5t-66.5 28.5t-25.5 67.5zM395 1239q0 39 28 67.5t66 28.5q41 0 67 -28.5t26 -67.5q0 -41 -27 -68.5t-68 -27.5q-39 0 -65.5 28.5t-26.5 67.5z" />
<glyph unicode="&#xa9;" horiz-adv-x="1386" d="M74 696q0 131 48 246t133 201t198.5 135t244.5 49q129 0 242 -50t196 -136t130 -201t47 -244t-47 -243.5t-130 -201.5t-196 -138.5t-244 -51.5t-244.5 50.5t-197.5 136.5t-132 201.5t-48 246.5zM174 690q0 -113 40 -212t109.5 -174t166 -119t208.5 -44q109 0 204 43 t165 118t110 176t40 218q0 113 -39 212.5t-109 175t-165 119.5t-208 44t-208 -43t-164.5 -118.5t-109.5 -177t-40 -218.5zM354 684q0 82 31 152.5t84 121t124 79t152 28.5q160 0 226 -55l-23 -76q-84 49 -200 49q-143 0 -217 -81t-74 -212q0 -63 19.5 -117.5t57 -93.5 t92 -61.5t124.5 -22.5q125 0 208 56l23 -74q-94 -63 -252 -64q-84 0 -152.5 28t-117.5 77t-77 117.5t-28 148.5z" />
<glyph unicode="&#xaa;" horiz-adv-x="688" d="M68 727q0 109 98 171.5t276 62.5h31v22q0 63 -44 98t-110 35q-100 0 -172 -53l-28 80q88 68 223 67q250 0 250 -284v-224q0 -90 12 -157h-110l-11 88h-4q-78 -98 -205 -98q-98 0 -152 55t-54 137zM188 735q0 -51 36 -80.5t85 -29.5q27 0 56.5 10t54 28.5t40 42t15.5 50.5 v121h-33q-254 0 -254 -142z" />
<glyph unicode="&#xab;" horiz-adv-x="835" d="M59 516l273 373h131l-273 -373l275 -373h-133zM383 516l270 373h133l-274 -373l276 -373h-133z" />
<glyph unicode="&#xac;" horiz-adv-x="1220" d="M82 698v111h1057v-557h-119v446h-938z" />
<glyph unicode="&#xad;" horiz-adv-x="620" d="M61 496v118h498v-118h-498z" />
<glyph unicode="&#xae;" horiz-adv-x="1044" d="M68 938q0 96 35.5 180t98 146.5t145.5 98.5t179 36q94 0 177 -37t144.5 -99.5t96.5 -146.5t35 -178q0 -96 -35 -180t-96.5 -146.5t-144 -99.5t-179.5 -37q-96 0 -179 36t-144.5 99.5t-97 147.5t-35.5 180zM154 938q0 -78 28.5 -149.5t77.5 -126t117.5 -87t148.5 -32.5 t148.5 31.5t118 86t77 126t27.5 151.5t-28.5 150.5t-78 125t-118 86t-148.5 31.5q-78 0 -145.5 -31.5t-117.5 -86t-78.5 -125t-28.5 -150.5zM358 670v514q92 12 144 12q98 0 151.5 -34t53.5 -111q0 -94 -101 -125v-4q35 -6 53.5 -39t29.5 -74t18.5 -80t17.5 -59h-80 q-18 25 -37 133q-16 90 -112 90h-60v-223h-78zM436 952h62q127 0 127 90q0 94 -129 95q-16 0 -30.5 -1t-29.5 -3v-181z" />
<glyph unicode="&#xaf;" horiz-adv-x="614" d="M84 1196v102h448v-102h-448z" />
<glyph unicode="&#xb0;" horiz-adv-x="632" d="M59 1133q0 57 20.5 107t57.5 87t86 57.5t105 20.5q55 0 103 -19.5t83 -55.5t54.5 -84t19.5 -103t-20.5 -103.5t-56.5 -85t-85 -58.5t-104 -22t-103.5 20.5t-83.5 55.5t-55.5 82t-20.5 101zM164 1135q0 -72 45 -122t117 -50t116.5 52t44.5 126q0 76 -45 126t-118 50 q-74 0 -117 -54.5t-43 -127.5z" />
<glyph unicode="&#xb1;" horiz-adv-x="1220" d="M82 0v111h1057v-111h-1057zM82 651v111h469v405h119v-405h469v-111h-469v-418h-119v418h-469z" />
<glyph unicode="&#xb2;" horiz-adv-x="700" d="M92 545v67l125 119q78 74 128 127t80 94t41 77t11 73q0 147 -160 147q-86 0 -167 -63l-39 84q96 84 237 84q123 0 192.5 -64.5t69.5 -163.5q0 -47 -10 -86t-39 -84t-83 -102t-142 -141l-66 -62v-4h355v-102h-533z" />
<glyph unicode="&#xb3;" horiz-adv-x="677" d="M74 590l35 92q78 -53 186 -53q82 0 132 42t50 105q0 72 -59.5 112t-161.5 40h-51v86h53q78 0 133 39t55 102q0 102 -131 102q-92 0 -168 -55l-34 88q96 63 223 64q113 0 177.5 -52.5t64.5 -138.5q0 -131 -154 -186v-4q82 -12 134 -66.5t52 -132.5q0 -104 -86 -171.5 t-227 -67.5t-223 55z" />
<glyph unicode="&#xb4;" horiz-adv-x="614" d="M217 1110l178 289h183l-248 -289h-113z" />
<glyph unicode="&#xb5;" horiz-adv-x="1095" d="M145 -406v1395h156v-569q0 -311 231 -311q47 0 93.5 21.5t82 56t58 78.5t22.5 91v633h156v-727q0 -66 2 -131t6 -131h-139v164h-14q-98 -184 -299 -184q-145 0 -209 116h-6v-502h-140z" />
<glyph unicode="&#xb6;" horiz-adv-x="1021" d="M70 940q0 211 140 327.5t408 116.5q76 0 132.5 -4t97.5 -12v-1470h-115v1376h-145v-1376h-115v645h-14q-80 0 -150.5 30.5t-124 84t-84 126t-30.5 156.5z" />
<glyph unicode="&#xb7;" horiz-adv-x="403" d="M92 561q0 51 31 84t80 33t78.5 -33t29.5 -84q0 -59 -33.5 -88t-76.5 -29t-76 30t-33 87z" />
<glyph unicode="&#xb8;" horiz-adv-x="614" d="M117 -373l28 82q53 -29 111 -28q90 0 90 65q0 37 -41 58.5t-119 29.5l99 170h100l-70 -108q59 -8 101.5 -46.5t42.5 -95.5q0 -164 -207 -164q-78 0 -135 37z" />
<glyph unicode="&#xb9;" horiz-adv-x="632" d="M125 1253l186 90h111v-798h-125v684l-150 -72z" />
<glyph unicode="&#xba;" horiz-adv-x="710" d="M37 866q0 72 23.5 134.5t66.5 109.5t102.5 73.5t130.5 26.5q72 0 129.5 -24.5t98.5 -69.5t63.5 -105t22.5 -134q0 -72 -22.5 -134.5t-64.5 -108.5t-100.5 -72.5t-132.5 -26.5q-72 0 -130 25.5t-99 69.5t-64.5 104.5t-23.5 131.5zM162 868q0 -47 14 -90t41 -76.5t61.5 -54 t77.5 -20.5q88 0 141.5 70.5t53.5 174.5q0 106 -53.5 175t-143.5 69q-43 0 -78.5 -19.5t-61.5 -53t-39 -78.5t-13 -97z" />
<glyph unicode="&#xbb;" horiz-adv-x="835" d="M47 889h131l275 -373l-273 -373h-131l273 373zM369 889h131l274 -373l-272 -373h-131l272 373z" />
<glyph unicode="&#xbc;" horiz-adv-x="1511" d="M90 1253l184 90h111v-798h-125v684l-149 -72zM268 -23l774 1377h105l-774 -1377h-105zM791 215v72l397 522h127v-502h125v-92h-125v-215h-121v215h-403zM924 309h270v252q0 59 6 127h-4q-10 -20 -27.5 -49t-40.5 -64z" />
<glyph unicode="&#xbd;" horiz-adv-x="1511" d="M59 1253l185 90h110v-798h-125v684l-149 -72zM229 -23l775 1377h104l-774 -1377h-105zM874 0v68l127 120q76 72 126.5 124.5t80 94.5t41 76.5t11.5 73.5q0 147 -158 148q-86 0 -170 -64l-39 84q96 84 240 84q123 0 192.5 -64.5t69.5 -162.5q0 -47 -10.5 -86t-39 -84 t-83 -102.5t-142.5 -141.5l-65 -62v-4h352v-102h-533z" />
<glyph unicode="&#xbe;" horiz-adv-x="1511" d="M61 590l35 92q78 -53 187 -53q82 0 132 41t50 106q0 72 -59.5 112t-161.5 40h-51v86h53q74 0 132 38t58 99q0 106 -133 106q-88 0 -168 -55l-35 86q96 66 224 66q113 0 177 -51.5t64 -139.5q0 -131 -153 -186v-4q82 -12 134 -66.5t52 -132.5q0 -53 -22.5 -96t-63.5 -76 t-98.5 -50t-126.5 -17q-143 0 -226 55zM342 -23l774 1377h107l-774 -1377h-107zM811 215v72l397 522h129v-502h123v-92h-123v-215h-120v215h-406zM944 309h273v252q0 59 6 127h-4q-10 -20 -27.5 -49t-40.5 -64z" />
<glyph unicode="&#xbf;" horiz-adv-x="804" d="M117 -131q0 41 7 78t26.5 78t53.5 89t87 113q115 139 115 291v23l-3 53h140l6 -51q2 -10 2 -21.5v-21.5q0 -162 -127 -320q-145 -180 -145 -293q0 -184 198 -184q121 0 205 64l43 -115q-115 -80 -279 -80q-154 0 -241.5 83t-87.5 214zM365 883q0 53 31.5 84.5t78.5 31.5 q41 0 75 -29.5t34 -86.5q0 -51 -32 -85t-79 -34q-49 0 -78.5 32.5t-29.5 86.5z" />
<glyph unicode="&#xc0;" horiz-adv-x="1214" d="M53 0l467 1380h180l467 -1380h-163l-152 446h-492l-147 -446h-160zM311 1692h197l194 -238h-127zM395 569h424l-139 412q-14 39 -31.5 102.5t-40.5 151.5h-4q-20 -82 -36.5 -144.5t-32.5 -107.5z" />
<glyph unicode="&#xc1;" horiz-adv-x="1214" d="M53 0l467 1380h180l467 -1380h-163l-152 446h-492l-147 -446h-160zM395 569h424l-139 412q-14 39 -31.5 102.5t-40.5 151.5h-4q-20 -82 -36.5 -144.5t-32.5 -107.5zM522 1454l195 238h196l-264 -238h-127z" />
<glyph unicode="&#xc2;" horiz-adv-x="1214" d="M53 0l467 1380h180l467 -1380h-163l-152 446h-492l-147 -446h-160zM354 1454l207 238h115l211 -238h-135l-131 154h-5l-131 -154h-131zM395 569h424l-139 412q-14 39 -31.5 102.5t-40.5 151.5h-4q-20 -82 -36.5 -144.5t-32.5 -107.5z" />
<glyph unicode="&#xc3;" horiz-adv-x="1214" d="M53 0l467 1380h180l467 -1380h-163l-152 446h-492l-147 -446h-160zM362 1466q0 86 34 138.5t98 52.5q23 0 54.5 -12.5t63 -26.5t59 -26.5t44.5 -12.5q51 0 57 84h84q0 -186 -133 -186q-23 0 -55.5 12t-66.5 26.5t-61.5 26.5t-37.5 12q-47 0 -56 -88h-84zM395 569h424 l-139 412q-14 39 -31.5 102.5t-40.5 151.5h-4q-20 -82 -36.5 -144.5t-32.5 -107.5z" />
<glyph unicode="&#xc4;" horiz-adv-x="1214" d="M53 0l467 1380h180l467 -1380h-163l-152 446h-492l-147 -446h-160zM340 1577q0 39 26.5 67.5t67.5 28.5q39 0 64.5 -27.5t25.5 -68.5t-25.5 -69.5t-66.5 -28.5h-2q-39 0 -64.5 28.5t-25.5 69.5zM395 569h424l-141 412q-14 39 -30.5 102.5t-39.5 151.5h-4 q-20 -82 -36.5 -144.5t-32.5 -107.5zM705 1577q0 39 26.5 67.5t67.5 28.5q39 0 64.5 -27.5t25.5 -68.5t-25.5 -69.5t-66.5 -28.5h-2q-39 0 -64.5 28.5t-25.5 69.5z" />
<glyph unicode="&#xc5;" horiz-adv-x="1214" d="M55 0l457 1348q-92 57 -92 163q0 82 57.5 139.5t138.5 57.5q82 0 139.5 -57.5t57.5 -139.5q0 -111 -98 -168l454 -1343h-165l-150 446h-492l-147 -446h-160zM393 569h426l-143 420q-14 41 -68 244h-6q-10 -59 -25.5 -114.5t-31.5 -106.5zM506 1511q0 -45 32.5 -76.5 t77.5 -31.5t78 31.5t33 76.5q0 47 -32.5 79t-78.5 32q-45 0 -77.5 -31.5t-32.5 -79.5z" />
<glyph unicode="&#xc6;" horiz-adv-x="1554" d="M-2 0l625 1380h815v-129h-576l53 -467h504v-129h-485l63 -526h494v-129h-629l-61 502h-416l-227 -502h-160zM436 629h350l-47 409q-4 41 -9 97.5t-13 132.5h-8q-25 -63 -46.5 -119.5t-44.5 -104.5z" />
<glyph unicode="&#xc7;" horiz-adv-x="1169" d="M74 678q0 162 50 295t142 228t221 147.5t287 52.5q201 0 316 -60l-41 -127q-117 55 -271 56q-127 0 -226 -41t-170 -117t-107.5 -185.5t-36.5 -244.5q0 -133 35.5 -238.5t104 -179.5t167 -112.5t223.5 -38.5q170 0 287 55l35 -125q-123 -59 -359 -63l-53 -84 q59 -8 100 -48.5t41 -97.5q0 -80 -58.5 -119t-144.5 -39q-82 0 -139 33l29 84q53 -29 110 -28q88 0 89 65q0 72 -158 88l86 152q-129 16 -232.5 71.5t-176 145.5t-111.5 209.5t-39 265.5z" />
<glyph unicode="&#xc8;" horiz-adv-x="972" d="M156 0v1380h714v-129h-559v-465h529v-129h-529v-528h590v-129h-745zM244 1692h196l195 -238h-127z" />
<glyph unicode="&#xc9;" horiz-adv-x="972" d="M156 0v1380h714v-129h-559v-465h529v-129h-529v-528h590v-129h-745zM420 1454l194 238h197l-264 -238h-127z" />
<glyph unicode="&#xca;" horiz-adv-x="972" d="M156 0v1380h714v-129h-559v-465h529v-129h-529v-528h590v-129h-745zM248 1454l205 238h114l211 -238h-135l-131 154h-4l-131 -154h-129z" />
<glyph unicode="&#xcb;" horiz-adv-x="972" d="M156 0v1380h714v-129h-559v-465h529v-129h-529v-528h590v-129h-745zM246 1577q0 39 26.5 67.5t65.5 28.5q41 0 66.5 -27.5t25.5 -68.5t-26.5 -69.5t-67.5 -28.5q-33 0 -61.5 24.5t-28.5 73.5zM610 1577q0 39 27 67.5t68 28.5q39 0 64.5 -27.5t25.5 -68.5q0 -49 -30 -73.5 t-65 -24.5q-39 0 -64.5 28.5t-25.5 69.5z" />
<glyph unicode="&#xcc;" horiz-adv-x="468" d="M-59 1692h196l195 -238h-125zM156 0v1380h155v-1380h-155z" />
<glyph unicode="&#xcd;" horiz-adv-x="468" d="M137 1454l195 238h196l-264 -238h-127zM156 0v1380h155v-1380h-155z" />
<glyph unicode="&#xce;" horiz-adv-x="468" d="M-31 1454l205 238h115l211 -238h-135l-132 154h-4l-131 -154h-129zM156 0v1380h155v-1380h-155z" />
<glyph unicode="&#xcf;" horiz-adv-x="468" d="M-41 1577q0 39 26.5 67.5t65.5 28.5q41 0 66.5 -27.5t25.5 -68.5q0 -49 -29.5 -73.5t-64.5 -24.5q-33 0 -61.5 24.5t-28.5 73.5zM156 0v1380h155v-1380h-155zM324 1577q0 39 26.5 67.5t67.5 28.5q39 0 64.5 -27.5t25.5 -68.5q0 -49 -29.5 -73.5t-62.5 -24.5 q-37 0 -64.5 27.5t-27.5 70.5z" />
<glyph unicode="&#xd0;" horiz-adv-x="1333" d="M-4 639v125h170v602q88 14 177 21.5t183 7.5q369 0 550 -178.5t181 -493.5q0 -170 -47 -306t-143 -231.5t-243.5 -147.5t-348.5 -52q-92 0 -169 3t-140 11v639h-170zM322 121q27 -4 71.5 -6t110.5 -2q291 0 441.5 155.5t150.5 452.5q0 270 -144.5 409.5t-419.5 139.5 q-119 0 -210 -19v-487h374v-125h-374v-518z" />
<glyph unicode="&#xd1;" horiz-adv-x="1310" d="M156 0v1380h166l454 -725q147 -238 246 -448l4 2q-18 223 -18 569v602h145v-1380h-154l-450 725q-168 272 -254 459l-6 -2q8 -106 11 -247.5t3 -322.5v-612h-147zM430 1466q0 86 34 138.5t97 52.5q23 0 54.5 -12.5t63.5 -26.5t59.5 -26.5t43.5 -12.5q51 0 58 84h84 q0 -186 -133 -186q-23 0 -56 12t-66.5 26.5t-61 26.5t-38.5 12q-47 0 -55 -88h-84z" />
<glyph unicode="&#xd2;" d="M74 678q0 158 44 291t126 229t195.5 150.5t252.5 54.5q137 0 248 -52.5t188.5 -145.5t120.5 -220.5t43 -279.5q0 -160 -43 -294.5t-124 -230.5t-195.5 -149.5t-255.5 -53.5q-135 0 -246 52.5t-189.5 145.5t-121.5 221t-43 282zM236 682q0 -121 32.5 -225.5t91 -183 t141.5 -124t181 -45.5q100 0 182 45.5t140.5 124t90 187t31.5 235.5q0 121 -31.5 226.5t-90 184.5t-139.5 124t-181 45q-102 0 -185 -45t-141.5 -124t-90 -187.5t-31.5 -237.5zM385 1692h195l194 -238h-125z" />
<glyph unicode="&#xd3;" d="M74 678q0 158 44 291t126 229t195.5 150.5t252.5 54.5q137 0 248 -52.5t188.5 -145.5t120.5 -220.5t43 -279.5q0 -160 -43 -294.5t-124 -230.5t-195.5 -149.5t-255.5 -53.5q-135 0 -246 52.5t-189.5 145.5t-121.5 221t-43 282zM236 682q0 -121 32.5 -225.5t91 -183 t141.5 -124t181 -45.5q100 0 182 45.5t140.5 124t90 187t31.5 235.5q0 121 -31.5 226.5t-90 184.5t-139.5 124t-181 45q-102 0 -185 -45t-141.5 -124t-90 -187.5t-31.5 -237.5zM606 1454l195 238h196l-264 -238h-127z" />
<glyph unicode="&#xd4;" d="M74 678q0 158 44 291t126 229t195.5 150.5t252.5 54.5q137 0 248 -52.5t188.5 -145.5t120.5 -220.5t43 -279.5q0 -160 -43 -294.5t-124 -230.5t-195.5 -149.5t-255.5 -53.5q-135 0 -246 52.5t-189.5 145.5t-121.5 221t-43 282zM236 682q0 -121 32.5 -225.5t91 -183 t141.5 -124t181 -45.5q100 0 182 45.5t140.5 124t90 187t31.5 235.5q0 121 -31.5 226.5t-90 184.5t-139.5 124t-181 45q-102 0 -185 -45t-141.5 -124t-90 -187.5t-31.5 -237.5zM420 1454l205 238h114l211 -238h-135l-131 154h-4l-131 -154h-129z" />
<glyph unicode="&#xd5;" d="M74 678q0 158 44 291t126 229t195.5 150.5t252.5 54.5q137 0 248 -52.5t188.5 -145.5t120.5 -220.5t43 -279.5q0 -160 -43 -294.5t-124 -230.5t-195.5 -149.5t-255.5 -53.5q-135 0 -246 52.5t-189.5 145.5t-121.5 221t-43 282zM236 682q0 -121 32.5 -225.5t91 -183 t141.5 -124t181 -45.5q100 0 182 45.5t140.5 124t90 187t31.5 235.5q0 121 -31.5 226.5t-90 184.5t-139.5 124t-181 45q-102 0 -185 -45t-141.5 -124t-90 -187.5t-31.5 -237.5zM436 1466q0 86 34 138.5t97 52.5q23 0 54.5 -12.5t63.5 -26.5t59.5 -26.5t43.5 -12.5 q53 0 60 84h84q0 -94 -32 -140t-103 -46q-23 0 -55.5 12t-65.5 26.5t-60.5 26.5t-40.5 12q-45 0 -53 -88h-86z" />
<glyph unicode="&#xd6;" d="M74 678q0 158 44 291t126 229t195.5 150.5t252.5 54.5q137 0 248 -52.5t188.5 -145.5t120.5 -220.5t43 -279.5q0 -160 -43 -294.5t-124 -230.5t-195.5 -149.5t-255.5 -53.5q-135 0 -246 52.5t-189.5 145.5t-121.5 221t-43 282zM236 682q0 -121 32.5 -225.5t91 -183 t141.5 -124t181 -45.5q100 0 182 45.5t140.5 124t90 187t31.5 235.5q0 121 -31.5 226.5t-90 184.5t-139.5 124t-181 45q-102 0 -185 -45t-141.5 -124t-90 -187.5t-31.5 -237.5zM410 1577q0 39 26.5 67.5t65.5 28.5q41 0 66.5 -27.5t25.5 -68.5q0 -49 -29.5 -73.5 t-64.5 -24.5q-33 0 -61.5 24.5t-28.5 73.5zM774 1577q0 39 26.5 67.5t67.5 28.5q39 0 64.5 -27.5t25.5 -68.5q0 -49 -29.5 -73.5t-62.5 -24.5q-37 0 -64.5 27.5t-27.5 70.5z" />
<glyph unicode="&#xd7;" horiz-adv-x="1220" d="M82 82l446 457l-446 456l82 82l446 -456l447 456l82 -82l-449 -456l449 -457l-82 -82l-447 457l-446 -457z" />
<glyph unicode="&#xd8;" d="M74 682q0 160 46 292t127 227t194.5 148.5t248.5 53.5q197 0 340 -113l119 164l96 -63l-125 -179q172 -195 172 -510q0 -164 -44 -297t-124 -228t-191.5 -147.5t-246.5 -52.5q-201 0 -348 117l-125 -172l-90 68l127 182q-176 195 -176 510zM233 692q0 -207 105 -387l4 2 l612 867q-119 102 -268 102q-102 0 -185 -45t-142.5 -123t-92.5 -184.5t-33 -231.5zM416 211q106 -106 268 -107q100 0 182 44.5t141.5 123t92.5 187t33 237.5q0 215 -101 377l-6 2z" />
<glyph unicode="&#xd9;" horiz-adv-x="1288" d="M156 553v827h155v-829q0 -213 84 -329t242 -116q340 0 340 445v829h156v-817q0 -283 -130.5 -434.5t-371.5 -151.5q-233 0 -354 147.5t-121 428.5zM365 1692h194l195 -238h-125z" />
<glyph unicode="&#xda;" horiz-adv-x="1288" d="M156 553v827h155v-829q0 -213 84 -329t242 -116q340 0 340 445v829h156v-817q0 -283 -130.5 -434.5t-371.5 -151.5q-233 0 -354 147.5t-121 428.5zM557 1454l195 238h196l-264 -238h-127z" />
<glyph unicode="&#xdb;" horiz-adv-x="1288" d="M156 553v827h155v-829q0 -213 84 -329t242 -116q340 0 340 445v829h156v-817q0 -283 -130.5 -434.5t-371.5 -151.5q-233 0 -354 147.5t-121 428.5zM391 1454l205 238h115l211 -238h-136l-131 154h-4l-131 -154h-129z" />
<glyph unicode="&#xdc;" horiz-adv-x="1288" d="M156 553v827h155v-829q0 -213 84 -329t242 -116q340 0 340 445v829h156v-817q0 -283 -130.5 -434.5t-371.5 -151.5q-233 0 -354 147.5t-121 428.5zM373 1577q0 39 26.5 67.5t67.5 28.5q39 0 64.5 -27.5t25.5 -68.5q0 -49 -29.5 -73.5t-64.5 -24.5q-39 0 -64.5 28.5 t-25.5 69.5zM737 1577q0 39 28 67.5t66 28.5q39 0 65 -27.5t26 -68.5q0 -49 -30 -73.5t-63 -24.5q-37 0 -64.5 27.5t-27.5 70.5z" />
<glyph unicode="&#xdd;" horiz-adv-x="1067" d="M27 1380h178l196 -387q88 -176 142 -288h4q23 53 58.5 125.5t82.5 164.5l203 385h174l-453 -790v-590h-155v588zM467 1454l195 238h196l-264 -238h-127z" />
<glyph unicode="&#xde;" horiz-adv-x="1052" d="M156 0v1380h153v-274q88 16 195 16q223 0 344 -100t121 -274q0 -102 -37 -182.5t-102.5 -134.5t-160 -83t-206.5 -29q-45 0 -83 3.5t-71 7.5v-330h-153zM309 459q57 -14 154 -15q168 0 259 76t91 211q0 266 -321 266q-113 0 -183 -16v-522z" />
<glyph unicode="&#xdf;" horiz-adv-x="1087" d="M152 0v932q0 274 110.5 408.5t315.5 134.5q78 0 141 -25t109 -70t72 -107.5t26 -137.5q0 -96 -47 -168q-150 -61 -150 -170q0 -33 27.5 -76t64.5 -87t74 -86t55 -71q53 -86 51 -178q0 -143 -96 -232.5t-258 -89.5q-127 0 -213 43l29 123q88 -43 176 -43q92 0 150.5 49.5 t58.5 135.5q0 111 -117 221q-156 147 -156 270q0 160 185 250q16 43 16 92q0 111 -59.5 171.5t-157.5 60.5q-252 0 -252 -414v-936h-155z" />
<glyph unicode="&#xe0;" horiz-adv-x="956" d="M74 258q0 180 149.5 273.5t433.5 93.5v22q0 244 -227 244q-141 0 -250 -72l-37 107q131 84 310 84q360 0 360 -396v-378q0 -72 3 -130.5t11 -105.5h-141l-14 127h-6q-100 -150 -299 -150q-63 0 -116.5 20.5t-92.5 58.5t-61.5 89.5t-22.5 112.5zM188 1399h181l178 -289 h-113zM231 279q0 -92 49.5 -137.5t122.5 -45.5q47 0 93.5 16.5t82 46t58 72.5t22.5 97v184h-30q-397 0 -398 -233z" />
<glyph unicode="&#xe1;" horiz-adv-x="956" d="M74 258q0 180 149.5 273.5t433.5 93.5v22q0 244 -227 244q-141 0 -250 -72l-37 107q131 84 310 84q360 0 360 -396v-378q0 -72 3 -130.5t11 -105.5h-141l-14 127h-6q-100 -150 -299 -150q-63 0 -116.5 20.5t-92.5 58.5t-61.5 89.5t-22.5 112.5zM231 279 q0 -92 49.5 -137.5t122.5 -45.5q47 0 93.5 16.5t82 46t58 72.5t22.5 97v184h-30q-397 0 -398 -233zM377 1110l180 289h180l-248 -289h-112z" />
<glyph unicode="&#xe2;" horiz-adv-x="956" d="M74 258q0 180 149.5 273.5t433.5 93.5v22q0 244 -227 244q-141 0 -250 -72l-37 107q131 84 310 84q360 0 360 -396v-378q0 -72 3 -130.5t11 -105.5h-141l-14 127h-6q-100 -150 -299 -150q-63 0 -116.5 20.5t-92.5 58.5t-61.5 89.5t-22.5 112.5zM225 1110l189 289h106 l193 -289h-125l-119 195h-4l-121 -195h-119zM231 279q0 -92 49.5 -137.5t122.5 -45.5q47 0 93.5 16.5t82 46t58 72.5t22.5 97v184h-30q-397 0 -398 -233z" />
<glyph unicode="&#xe3;" horiz-adv-x="956" d="M74 258q0 180 149.5 273.5t433.5 93.5v22q0 244 -227 244q-141 0 -250 -72l-37 107q131 84 310 84q360 0 360 -396v-378q0 -72 3 -130.5t11 -105.5h-141l-14 127h-6q-100 -150 -299 -150q-63 0 -116.5 20.5t-92.5 58.5t-61.5 89.5t-22.5 112.5zM231 279 q0 -92 49.5 -137.5t122.5 -45.5q47 0 93.5 16.5t82 46t58 72.5t22.5 97v184h-30q-397 0 -398 -233zM231 1149q0 86 33 140t96 54q14 0 45 -12t66 -27.5t66.5 -27.5t44.5 -12q47 0 53 86h82q0 -186 -133 -187q-18 0 -49 12.5t-64 27t-60.5 26.5t-39.5 12q-47 0 -56 -92h-84z " />
<glyph unicode="&#xe4;" horiz-adv-x="956" d="M74 258q0 180 149.5 273.5t433.5 93.5v22q0 244 -227 244q-141 0 -250 -72l-37 107q131 84 310 84q360 0 360 -396v-378q0 -72 3 -130.5t11 -105.5h-141l-14 127h-6q-100 -150 -299 -150q-63 0 -116.5 20.5t-92.5 58.5t-61.5 89.5t-22.5 112.5zM203 1239q0 39 27.5 67.5 t66.5 28.5q41 0 66.5 -28.5t25.5 -67.5q0 -41 -26.5 -68.5t-67.5 -27.5q-39 0 -65.5 28.5t-26.5 67.5zM231 279q0 -92 49.5 -137.5t122.5 -45.5q47 0 93.5 16.5t82 46t58 72.5t22.5 97v184h-30q-397 0 -398 -233zM567 1239q0 39 27 67.5t68 28.5q39 0 64.5 -28.5t25.5 -67.5 q0 -41 -27 -68.5t-68 -27.5q-39 0 -64.5 28.5t-25.5 67.5z" />
<glyph unicode="&#xe5;" horiz-adv-x="956" d="M74 258q0 180 149.5 273.5t433.5 93.5v22q0 244 -227 244q-72 0 -134.5 -18.5t-115.5 -53.5l-37 107q133 84 310 84q360 0 360 -396v-378q0 -76 3 -134.5t11 -101.5h-141l-14 127h-6q-102 -147 -299 -147q-63 0 -117.5 20t-93.5 57t-60.5 88.5t-21.5 112.5zM231 279 q0 -88 48.5 -135.5t123.5 -47.5q49 0 95.5 17.5t82 48.5t57 72.5t21.5 93.5v184h-30q-397 0 -398 -233zM279 1288q0 41 15 77t41.5 62.5t61.5 42t76 15.5q82 0 139.5 -57.5t57.5 -139.5q0 -41 -15.5 -75.5t-42 -61.5t-62.5 -42t-77 -15t-76 15t-61.5 42t-41.5 61.5t-15 75.5 zM365 1288q0 -45 31.5 -76.5t76.5 -31.5q47 0 79 31.5t32 76.5q0 47 -32 79t-79 32q-45 0 -76.5 -32t-31.5 -79z" />
<glyph unicode="&#xe6;" horiz-adv-x="1544" d="M74 256q0 176 151.5 266t436.5 90v45q0 100 -63.5 168t-170.5 68q-145 0 -246 -74l-39 107q135 86 297 86q250 0 312 -215h4q100 215 338 215q86 0 154.5 -35t117.5 -95.5t75.5 -141.5t26.5 -175q0 -49 -6 -76h-655q0 -186 84 -285.5t235 -99.5q145 0 260 56l31 -113 q-127 -68 -311 -67q-129 0 -228.5 59t-140.5 166h-4q-45 -106 -140 -165.5t-220 -59.5q-66 0 -121 20t-95 57t-61.5 88.5t-21.5 110.5zM229 270q0 -80 50.5 -126t126.5 -46q55 0 102 19.5t82 53.5t54.5 79t19.5 98v156h-31q-403 0 -404 -234zM807 604h508v21q0 55 -17.5 105 t-49 87t-75 58.5t-94.5 21.5q-57 0 -105 -22.5t-84 -62.5t-57.5 -93t-25.5 -115z" />
<glyph unicode="&#xe7;" horiz-adv-x="894" d="M78 485q0 115 38 211.5t105.5 166t162.5 108.5t210 39q150 0 246 -54l-39 -122q-90 49 -209 49q-84 0 -149.5 -30t-110.5 -82t-69.5 -124t-24.5 -155q0 -86 25.5 -158t71.5 -122t109.5 -78t141.5 -28q113 0 221 50l31 -119q-111 -53 -263 -57l-53 -84q59 -8 100.5 -46 t41.5 -96q0 -164 -207 -164q-78 0 -133 37l28 82q47 -29 109 -28q90 0 90 65q0 72 -158 88l86 152q-90 10 -164.5 51t-127 106.5t-81 152.5t-28.5 189z" />
<glyph unicode="&#xe8;" horiz-adv-x="997" d="M78 479q0 117 32.5 214.5t91 168t141.5 110.5t185 40q92 0 165 -34t124 -94.5t78 -144.5t27 -184q0 -49 -7 -80h-686q4 -176 93.5 -273.5t248.5 -97.5q152 0 267 52l28 -113q-129 -61 -317 -61q-111 0 -198 35.5t-148.5 102t-93 158t-31.5 201.5zM233 590h535 q0 141 -65.5 224t-188.5 83q-115 0 -190.5 -86t-90.5 -221zM270 1399h181l180 -289h-113z" />
<glyph unicode="&#xe9;" horiz-adv-x="997" d="M78 479q0 117 32.5 214.5t91 168t141.5 110.5t185 40q92 0 165 -34t124 -94.5t78 -144.5t27 -184q0 -49 -7 -80h-686q4 -176 93.5 -273.5t248.5 -97.5q152 0 267 52l28 -113q-129 -61 -317 -61q-111 0 -198 35.5t-148.5 102t-93 158t-31.5 201.5zM233 590h535 q0 141 -65.5 224t-188.5 83q-115 0 -190.5 -86t-90.5 -221zM438 1110l178 289h181l-248 -289h-111z" />
<glyph unicode="&#xea;" horiz-adv-x="997" d="M78 479q0 117 32.5 214.5t91 168t141.5 110.5t185 40q92 0 165 -34t124 -94.5t78 -144.5t27 -184q0 -49 -7 -80h-686q4 -176 93.5 -273.5t248.5 -97.5q152 0 267 52l28 -113q-129 -61 -317 -61q-111 0 -198 35.5t-148.5 102t-93 158t-31.5 201.5zM233 590h535 q0 141 -65.5 224t-188.5 83q-115 0 -190.5 -86t-90.5 -221zM283 1110l188 289h104l193 -289h-123l-119 195h-4l-121 -195h-118z" />
<glyph unicode="&#xeb;" horiz-adv-x="997" d="M78 479q0 117 32.5 214.5t91 168t141.5 110.5t185 40q92 0 165 -34t124 -94.5t78 -144.5t27 -184q0 -49 -7 -80h-686q4 -176 93.5 -273.5t248.5 -97.5q152 0 267 52l28 -113q-129 -61 -317 -61q-111 0 -198 35.5t-148.5 102t-93 158t-31.5 201.5zM233 590h535 q0 141 -65.5 224t-188.5 83q-115 0 -190.5 -86t-90.5 -221zM260 1239q0 39 28.5 67.5t67.5 28.5t64.5 -28.5t25.5 -67.5q0 -41 -26.5 -68.5t-67.5 -27.5q-39 0 -65.5 28.5t-26.5 67.5zM625 1239q0 39 27.5 67.5t66.5 28.5t65.5 -28.5t26.5 -67.5q0 -41 -26.5 -68.5 t-67.5 -27.5t-66.5 28.5t-25.5 67.5z" />
<glyph unicode="&#xec;" horiz-adv-x="458" d="M-55 1399h180l180 -289h-112zM152 0v989h155v-989h-155z" />
<glyph unicode="&#xed;" horiz-adv-x="458" d="M147 1110l179 289h180l-248 -289h-111zM152 0v989h155v-989h-155z" />
<glyph unicode="&#xee;" horiz-adv-x="458" d="M-12 1110l188 289h105l192 -289h-123l-121 195h-4l-119 -195h-118zM152 0v989h155v-989h-155z" />
<glyph unicode="&#xef;" horiz-adv-x="458" d="M-45 1239q0 39 27.5 67.5t68.5 28.5q39 0 64.5 -28.5t25.5 -67.5q0 -41 -26.5 -68.5t-67.5 -27.5q-39 0 -65.5 28.5t-26.5 67.5zM152 0v989h155v-989h-155zM319 1239q0 39 27 67.5t68 28.5q39 0 64.5 -28.5t25.5 -67.5q0 -41 -26.5 -68.5t-67.5 -27.5q-39 0 -65 28.5 t-26 67.5z" />
<glyph unicode="&#xf0;" horiz-adv-x="1075" d="M80 483q0 111 35 205t95 163t142 106.5t178 37.5q133 0 230 -92l4 6q-88 154 -242 273l-284 -133l-37 81l237 115q-82 59 -213 127l70 101q78 -39 146.5 -80t127.5 -86l254 123l41 -82l-215 -105q168 -141 256 -321.5t88 -407.5q0 -123 -33.5 -221t-95 -169t-146.5 -109 t-188 -38q-98 0 -181 36t-142.5 102.5t-93 160t-33.5 207.5zM238 485q0 -78 21.5 -147.5t60 -122.5t92 -85t118.5 -32q68 0 123.5 30t95 83t61 126t21.5 159q0 106 -21.5 180t-60 120t-93 67.5t-119.5 21.5q-68 0 -123.5 -31t-94 -85t-60 -127t-21.5 -157z" />
<glyph unicode="&#xf1;" horiz-adv-x="1105" d="M143 989h140v-164h14q41 82 127 133.5t197 51.5q156 0 248 -111t92 -303v-596h-158v578q0 303 -234 303q-53 0 -101 -21.5t-84 -59.5t-56.5 -89.5t-20.5 -108.5v-602h-155v731q0 59 -2.5 124t-6.5 134zM313 1149q0 86 33 140t94 54q14 0 46 -12t67 -27.5t65.5 -27.5 t45.5 -12q47 0 51 86h82q0 -186 -131 -187q-18 0 -50 12.5t-65 27t-60.5 26.5t-39.5 12q-47 0 -54 -92h-84z" />
<glyph unicode="&#xf2;" horiz-adv-x="1091" d="M78 487q0 115 34.5 211.5t97 165t151 107.5t192.5 39t189 -38t145.5 -104.5t93.5 -159.5t33 -204q0 -117 -35 -213t-98.5 -166t-150.5 -109t-193 -39q-102 0 -186.5 38t-145 106.5t-94 162t-33.5 203.5zM236 492q0 -80 22.5 -152t62 -125t97 -85t125.5 -32t124 31t97 85 t64.5 127t23.5 157q0 82 -21.5 154.5t-61.5 124.5t-96.5 83t-125.5 31q-72 0 -129.5 -31t-98 -84t-62 -125.5t-21.5 -158.5zM287 1399h180l178 -289h-110z" />
<glyph unicode="&#xf3;" horiz-adv-x="1091" d="M78 487q0 115 34.5 211.5t97 165t151 107.5t192.5 39t189 -38t145.5 -104.5t93.5 -159.5t33 -204q0 -117 -35 -213t-98.5 -166t-150.5 -109t-193 -39q-102 0 -186.5 38t-145 106.5t-94 162t-33.5 203.5zM236 492q0 -80 22.5 -152t62 -125t97 -85t125.5 -32t124 31t97 85 t64.5 127t23.5 157q0 82 -21.5 154.5t-61.5 124.5t-96.5 83t-125.5 31q-72 0 -129.5 -31t-98 -84t-62 -125.5t-21.5 -158.5zM449 1110l178 289h180l-248 -289h-110z" />
<glyph unicode="&#xf4;" horiz-adv-x="1091" d="M78 487q0 115 34.5 211.5t97 165t151 107.5t192.5 39t189 -38t145.5 -104.5t93.5 -159.5t33 -204q0 -117 -35 -213t-98.5 -166t-150.5 -109t-193 -39q-102 0 -186.5 38t-145 106.5t-94 162t-33.5 203.5zM236 492q0 -80 22.5 -152t62 -125t97 -85t125.5 -32t124 31t97 85 t64.5 127t23.5 157q0 82 -21.5 154.5t-61.5 124.5t-96.5 83t-125.5 31q-72 0 -129.5 -31t-98 -84t-62 -125.5t-21.5 -158.5zM303 1110l189 289h104l192 -289h-122l-119 195h-4l-121 -195h-119z" />
<glyph unicode="&#xf5;" horiz-adv-x="1091" d="M78 487q0 115 34.5 211.5t97 165t151 107.5t192.5 39t189 -38t145.5 -104.5t93.5 -159.5t33 -204q0 -117 -35 -213t-98.5 -166t-150.5 -109t-193 -39q-102 0 -186.5 38t-145 106.5t-94 162t-33.5 203.5zM236 492q0 -80 22.5 -152t62 -125t97 -85t125.5 -32t124 31t97 85 t64.5 127t23.5 157q0 82 -21.5 154.5t-61.5 124.5t-96.5 83t-125.5 31q-72 0 -129.5 -31t-98 -84t-62 -125.5t-21.5 -158.5zM305 1149q0 86 33 140t94 54q14 0 47 -12t67 -27.5t64.5 -27.5t42.5 -12q49 0 54 86h81q0 -186 -131 -187q-18 0 -50 12.5t-64.5 27t-60 26.5 t-40.5 12q-47 0 -53 -92h-84z" />
<glyph unicode="&#xf6;" horiz-adv-x="1091" d="M78 487q0 115 34.5 211.5t97 165t151 107.5t192.5 39t189 -38t145.5 -104.5t93.5 -159.5t33 -204q0 -117 -35 -213t-98.5 -166t-150.5 -109t-193 -39q-102 0 -186.5 38t-145 106.5t-94 162t-33.5 203.5zM236 492q0 -80 22.5 -152t62 -125t97 -85t125.5 -32t124 31t97 85 t64.5 127t23.5 157q0 82 -21.5 154.5t-61.5 124.5t-96.5 83t-125.5 31q-72 0 -129.5 -31t-98 -84t-62 -125.5t-21.5 -158.5zM270 1239q0 39 29 67.5t68 28.5t64.5 -28.5t25.5 -67.5q0 -41 -27 -68.5t-68 -27.5q-39 0 -65.5 28.5t-26.5 67.5zM635 1239q0 39 27.5 67.5 t66.5 28.5t65.5 -28.5t26.5 -67.5q0 -41 -26.5 -68.5t-67.5 -27.5t-66.5 28.5t-25.5 67.5z" />
<glyph unicode="&#xf7;" horiz-adv-x="1220" d="M80 492v110h1057v-110h-1057zM508 186q0 47 28.5 78t73.5 31q101 0 101 -109q0 -104 -103 -104q-45 0 -72.5 29.5t-27.5 74.5zM510 905q0 47 28.5 77t73.5 30q101 -1 101 -107t-103 -106q-41 0 -70.5 29.5t-29.5 76.5z" />
<glyph unicode="&#xf8;" horiz-adv-x="1091" d="M78 487q0 117 34.5 213.5t97 165t149.5 106.5t190 38h2q137 0 246 -72l82 119l75 -51l-84 -127q144 -144 144 -377q0 -117 -35 -213t-97.5 -166t-148.5 -108t-188 -38q-141 0 -248 72l-86 -121l-70 58l84 120q-147 143 -147 381zM233 492q0 -154 76 -261l4 -2l414 598 q-70 63 -180 64q-72 0 -129.5 -30t-98 -83t-63.5 -126.5t-23 -159.5zM371 160q70 -61 172 -62q70 0 129 31t101 84t65.5 127t23.5 158q0 145 -74 254l-4 2z" />
<glyph unicode="&#xf9;" horiz-adv-x="1095" d="M145 408v581h156v-553q0 -328 225 -327q51 0 99.5 20.5t84 57t57 86t21.5 104.5v612h156v-727q0 -66 2 -131t6 -131h-139v162h-14q-102 -184 -322 -185q-158 0 -245 111t-87 320zM295 1399h180l180 -289h-112z" />
<glyph unicode="&#xfa;" horiz-adv-x="1095" d="M145 408v581h156v-553q0 -328 225 -327q51 0 99.5 20.5t84 57t57 86t21.5 104.5v612h156v-727q0 -66 2 -131t6 -131h-139v162h-14q-102 -184 -322 -185q-158 0 -245 111t-87 320zM469 1110l180 289h180l-247 -289h-113z" />
<glyph unicode="&#xfb;" horiz-adv-x="1095" d="M145 408v581h156v-553q0 -328 225 -327q51 0 99.5 20.5t84 57t57 86t21.5 104.5v612h156v-727q0 -66 2 -131t6 -131h-139v162h-14q-102 -184 -322 -185q-158 0 -245 111t-87 320zM305 1110l189 289h104l193 -289h-123l-121 195h-4l-119 -195h-119z" />
<glyph unicode="&#xfc;" horiz-adv-x="1095" d="M145 408v581h156v-553q0 -328 225 -327q51 0 99.5 20.5t84 57t57 86t21.5 104.5v612h156v-727q0 -66 2 -131t6 -131h-139v162h-14q-102 -184 -322 -185q-158 0 -245 111t-87 320zM279 1239q0 39 27.5 67.5t66.5 28.5q41 0 66.5 -28.5t25.5 -67.5q0 -41 -26.5 -68.5 t-67.5 -27.5q-39 0 -65.5 28.5t-26.5 67.5zM643 1239q0 39 26.5 67.5t67.5 28.5q39 0 64.5 -28.5t25.5 -67.5q0 -41 -26.5 -68.5t-67.5 -27.5q-39 0 -64.5 28.5t-25.5 67.5z" />
<glyph unicode="&#xfd;" horiz-adv-x="929" d="M20 989h170l222 -600q16 -43 32.5 -94t30.5 -111h6q10 35 25.5 86.5t38.5 122.5l203 596h165l-268 -706q-100 -260 -166 -389q-84 -162 -180 -243t-190 -102l-43 132q98 35 180 115.5t131 191.5q12 27 12 43q0 14 -12 45zM397 1110l178 289h183l-248 -289h-113z" />
<glyph unicode="&#xfe;" horiz-adv-x="1132" d="M152 -406v1774h155v-539h4q106 180 332 181q92 0 168 -38t130 -104.5t84 -158.5t30 -201q0 -119 -33 -217t-91.5 -168t-139 -108t-177.5 -38q-205 0 -303 160h-4v-543h-155zM307 387q0 -63 24.5 -115.5t64.5 -90.5t92.5 -58.5t107.5 -20.5q68 0 123 29t95 81t61.5 126 t21.5 166q0 82 -21.5 151.5t-60.5 120.5t-94 80t-123 29q-57 0 -109.5 -24.5t-92.5 -65.5t-64.5 -98.5t-24.5 -121.5v-188z" />
<glyph unicode="&#xff;" horiz-adv-x="929" d="M20 989h170l222 -600q16 -43 32.5 -94t30.5 -111h6q10 35 25.5 86.5t38.5 122.5l203 596h165l-268 -706q-100 -260 -166 -389q-84 -162 -180 -243t-190 -102l-43 132q98 35 180 115.5t131 191.5q12 27 12 43q0 14 -12 45zM213 1239q0 39 27.5 67.5t66.5 28.5t64.5 -28.5 t25.5 -67.5q0 -41 -25.5 -68.5t-66.5 -27.5q-39 0 -65.5 28.5t-26.5 67.5zM575 1239q0 39 28 67.5t67 28.5q41 0 66.5 -28.5t25.5 -67.5q0 -41 -26.5 -68.5t-67.5 -27.5q-39 0 -66 28.5t-27 67.5z" />
<glyph unicode="&#x100;" horiz-adv-x="1214" d="M53 0l467 1380h180l467 -1380h-163l-152 446h-492l-147 -446h-160zM367 1501v105h481v-105h-481zM395 569h424l-141 412q-14 39 -30.5 102.5t-39.5 151.5h-4q-20 -82 -36.5 -144.5t-32.5 -107.5z" />
<glyph unicode="&#x101;" horiz-adv-x="956" d="M74 258q0 178 150.5 273.5t432.5 93.5v22q0 246 -227 244q-143 0 -250 -72l-37 107q129 84 310 84q360 0 360 -396v-378q0 -144 14 -236h-141l-14 127h-6q-100 -150 -299 -150q-137 0 -220 89q-74 78 -73 192zM231 279q0 -90 49.5 -136.5t122.5 -46.5q94 0 164 54 q59 47 84 120q8 27 8 58v184q-428 8 -428 -233zM252 1210v107h453v-107h-453z" />
<glyph unicode="&#x102;" horiz-adv-x="1214" d="M53 0l467 1380h180l467 -1380h-163l-152 446h-492l-147 -446h-160zM356 1667h99q8 -35 40.5 -67.5t110.5 -32.5t111 29.5t41 70.5h96q-2 -43 -16.5 -81t-45 -67.5t-77.5 -46t-113 -16.5q-127 0 -184.5 60.5t-61.5 150.5zM395 569h424l-139 412q-14 39 -31.5 102.5 t-40.5 151.5h-4q-20 -82 -36.5 -144.5t-32.5 -107.5z" />
<glyph unicode="&#x103;" horiz-adv-x="956" d="M74 258q0 180 149.5 273.5t433.5 93.5v22q0 244 -227 244q-141 0 -250 -72l-37 107q131 84 310 84q360 0 360 -396v-378q0 -72 3 -130.5t11 -105.5h-141l-14 127h-6q-100 -150 -299 -150q-63 0 -116.5 20.5t-92.5 58.5t-61.5 89.5t-22.5 112.5zM231 279 q0 -92 49.5 -137.5t122.5 -45.5q47 0 93.5 16.5t82 46t58 72.5t22.5 97v184h-30q-397 0 -398 -233zM236 1389h94q20 -143 147 -144q61 0 102.5 42t45.5 102h94q0 -111 -65.5 -175.5t-176.5 -64.5q-113 0 -177 64.5t-64 175.5z" />
<glyph unicode="&#x104;" horiz-adv-x="1214" d="M53 0l467 1380h180l467 -1380l-55 -4q-12 -12 -32.5 -34.5t-39 -49.5t-32 -56.5t-13.5 -58.5q0 -49 28 -77.5t75 -28.5q51 0 92 22l27 -84q-31 -23 -77 -34t-81 -11q-86 0 -135.5 42t-49.5 128q0 55 26 109.5t58 95.5q20 27 41 47l-147 440h-492l-147 -446h-160zM395 569 h424l-141 412q-14 39 -30.5 102.5t-39.5 151.5h-4q-20 -82 -36.5 -144.5t-32.5 -107.5z" />
<glyph unicode="&#x105;" horiz-adv-x="956" d="M74 258q0 178 150.5 273.5t432.5 93.5v22q0 246 -227 244q-143 0 -250 -72l-37 107q129 84 310 84q360 0 360 -396v-378q0 -143 14 -236h-36q-12 -16 -27.5 -38.5t-28 -50.5t-21.5 -57.5t-9 -58.5q0 -51 27.5 -76.5t70.5 -25.5q29 0 51.5 5t42.5 15l27 -86 q-33 -23 -78 -34t-84 -11q-78 0 -128 43t-50 125q0 39 10 75t25.5 68.5t33 60.5t31.5 50l-12 123h-6q-100 -150 -299 -150q-137 0 -220 89q-74 78 -73 192zM231 279q0 -90 49.5 -136.5t122.5 -46.5q94 0 164 54q59 47 84 120q8 27 8 58v184q-428 8 -428 -233z" />
<glyph unicode="&#x106;" horiz-adv-x="1153" d="M74 678q0 326 193.5 524.5t506.5 198.5q203 -1 316 -60l-41 -127q-117 55 -271 56q-248 0 -391 -152q-150 -158 -149 -436q0 -266 140 -417.5t390 -151.5q170 0 287 55l35 -125q-129 -63 -357 -63q-289 0 -467 176q-193 188 -192 522zM614 1458l195 238h199l-263 -238 h-131z" />
<glyph unicode="&#x107;" horiz-adv-x="894" d="M78 483q0 231 142 379t374 148q152 -1 246 -54l-39 -122q-90 49 -209 49q-168 0 -261 -112t-93 -279q0 -174 97 -280t251 -106q111 0 219 50l31 -119q-117 -57 -279 -57q-215 0 -347 138t-132 365zM430 1110l178 289h183l-248 -289h-113z" />
<glyph unicode="&#x108;" horiz-adv-x="1153" d="M74 678q0 162 50 295t142 228t221 147.5t287 52.5q201 0 316 -60l-41 -127q-117 55 -271 56q-127 0 -226 -41t-170 -117t-107.5 -185.5t-36.5 -244.5q0 -133 35.5 -238.5t104 -179.5t167 -112.5t223.5 -38.5q170 0 287 55l35 -125q-127 -63 -357 -63q-150 0 -271.5 49 t-207.5 140t-133 220t-47 289zM337 1503l189 289h106l193 -289h-125l-119 195h-4l-119 -195h-121z" />
<glyph unicode="&#x109;" horiz-adv-x="894" d="M78 483q0 117 38 213.5t105.5 166t162.5 108.5t210 39q150 0 246 -54l-39 -122q-90 49 -209 49q-84 0 -149.5 -30t-110.5 -82t-69.5 -124t-24.5 -155q0 -86 25.5 -158t71.5 -122t109.5 -78t141.5 -28q111 0 219 50l31 -119q-115 -57 -279 -57q-109 0 -197 35.5 t-151.5 102t-97 159t-33.5 206.5zM215 1112l189 289h106l193 -289h-125l-119 195h-4l-119 -195h-121z" />
<glyph unicode="&#x10a;" horiz-adv-x="1153" d="M74 678q0 162 50 295t142 228t221 147.5t287 52.5q201 0 316 -60l-41 -127q-117 55 -271 56q-127 0 -226 -41t-170 -117t-107.5 -185.5t-36.5 -244.5q0 -133 35.5 -238.5t104 -179.5t167 -112.5t223.5 -38.5q170 0 287 55l35 -125q-127 -63 -357 -63q-150 0 -271.5 49 t-207.5 140t-133 220t-47 289zM490 1599q0 39 27.5 67.5t68.5 28.5q39 0 64.5 -28.5t25.5 -67.5q0 -41 -27.5 -68.5t-64.5 -27.5q-39 0 -66.5 27.5t-27.5 68.5z" />
<glyph unicode="&#x10b;" horiz-adv-x="894" d="M78 483q0 117 38 213.5t105.5 166t162.5 108.5t210 39q150 0 246 -54l-39 -122q-90 49 -209 49q-84 0 -149.5 -30t-110.5 -82t-69.5 -124t-24.5 -155q0 -86 25.5 -158t71.5 -122t109.5 -78t141.5 -28q111 0 219 50l31 -119q-115 -57 -279 -57q-109 0 -197 35.5 t-151.5 102t-97 159t-33.5 206.5zM367 1208q0 39 27.5 67.5t68.5 28.5q39 0 64.5 -28.5t25.5 -67.5q0 -41 -27.5 -68.5t-64.5 -27.5q-39 0 -66.5 27.5t-27.5 68.5z" />
<glyph unicode="&#x10c;" horiz-adv-x="1153" d="M74 678q0 326 193.5 524.5t506.5 198.5q203 -1 316 -60l-41 -127q-117 55 -271 56q-248 0 -391 -152q-150 -158 -149 -436q0 -266 140 -417.5t390 -151.5q170 0 287 55l35 -125q-129 -63 -357 -63q-289 0 -467 176q-193 188 -192 522zM442 1690h140l137 -144h4l133 144 h135l-211 -232h-123z" />
<glyph unicode="&#x10d;" horiz-adv-x="894" d="M78 483q0 231 142 379t374 148q152 -1 246 -54l-39 -122q-90 49 -209 49q-168 0 -261 -112t-93 -279q0 -174 97 -280t251 -106q111 0 219 50l31 -119q-117 -57 -279 -57q-215 0 -347 138t-132 365zM279 1399h124l123 -195h4l123 195h121l-190 -289h-111z" />
<glyph unicode="&#x10e;" horiz-adv-x="1323" d="M156 2v1360q174 29 360 29q362 0 543 -170q188 -181 188 -496q0 -342 -190 -537q-195 -201 -592 -200q-182 0 -309 14zM311 123q53 -8 183 -8q289 0 440 156.5t151 445.5q0 260 -137 401q-145 147 -426 148q-119 0 -211 -19v-1124zM311 1692h142l135 -144h4l133 144h137 l-213 -232h-121z" />
<glyph unicode="&#x10f;" horiz-adv-x="1140" d="M78 479q0 242 129 391q123 139 307 140q213 0 295 -154h4v596h156v-1206q0 -129 8 -246h-139l-9 172h-4q-94 -195 -331 -195q-178 0 -297 140.5t-119 361.5zM236 489q0 -166 75 -270q82 -115 224 -115q123 0 200.5 90.5t77.5 213.5v182q0 47 -6 80q-23 92 -92 153 q-76 63 -174 64q-141 0 -223 -111.5t-82 -286.5zM1053 1133q25 29 50 71.5t25 106.5q0 39 -19 74.5t-48 58.5l119 29q29 -16 52 -57.5t23 -92.5q0 -55 -17 -97t-39.5 -72t-45.5 -49.5t-35 -27.5z" />
<glyph unicode="&#x110;" horiz-adv-x="1333" d="M-4 639v125h170v602q174 29 360 29q362 0 543 -172q188 -178 188 -500q0 -342 -192.5 -539.5t-589.5 -197.5q-184 0 -309 14v639h-170zM322 121q53 -8 182 -8q289 0 440.5 156.5t151.5 451.5q0 260 -138 401q-145 147 -426 148q-119 0 -210 -19v-487h374v-125h-374v-518z " />
<glyph unicode="&#x111;" horiz-adv-x="1120" d="M78 479q0 242 129 391q123 139 307 140q213 0 295 -154h4v279h-403v102h403v215h156v-215h157v-102h-157v-889q0 -129 8 -246h-139l-9 172h-4q-94 -195 -331 -195q-178 0 -297 140.5t-119 361.5zM236 489q0 -166 75 -270q82 -115 224 -115q123 0 200.5 90.5t77.5 213.5 v182q0 47 -6 80q-23 92 -92 153q-76 63 -174 64q-141 0 -223 -111.5t-82 -286.5z" />
<glyph unicode="&#x112;" horiz-adv-x="972" d="M156 0v1380h714v-129h-559v-465h529v-129h-529v-528h590v-129h-745zM287 1509v105h481v-105h-481z" />
<glyph unicode="&#x113;" horiz-adv-x="997" d="M78 479q0 233 124 383t326 150q211 0 316 -164q78 -123 78 -293q0 -49 -7 -80h-686q2 -188 105 -285q88 -86 237 -86q150 0 267 52l28 -113q-129 -61 -317 -61q-217 0 -344 136t-127 361zM233 590h535q2 119 -49 201q-68 106 -205 106q-127 0 -205 -104q-63 -82 -76 -203 zM295 1210v107h453v-107h-453z" />
<glyph unicode="&#x114;" horiz-adv-x="972" d="M156 0v1380h714v-129h-559v-465h529v-129h-529v-528h590v-129h-745zM287 1723h94q20 -143 147 -144q61 0 102.5 42t45.5 102h94q0 -111 -65.5 -175.5t-176.5 -64.5q-113 0 -177 64.5t-64 175.5z" />
<glyph unicode="&#x115;" horiz-adv-x="997" d="M78 479q0 117 32.5 214.5t91 168t141.5 110.5t185 40q92 0 165 -34t124 -94.5t78 -144.5t27 -184q0 -49 -7 -80h-686q4 -176 93.5 -273.5t248.5 -97.5q152 0 267 52l28 -113q-129 -61 -317 -61q-111 0 -198 35.5t-148.5 102t-93 158t-31.5 201.5zM233 590h535 q0 141 -65.5 224t-188.5 83q-115 0 -190.5 -86t-90.5 -221zM259 1358h94q20 -143 147 -144q61 0 102.5 42t45.5 102h94q0 -111 -65.5 -175.5t-176.5 -64.5q-113 0 -177 64.5t-64 175.5z" />
<glyph unicode="&#x116;" horiz-adv-x="972" d="M156 0v1380h714v-129h-559v-465h529v-129h-529v-528h590v-129h-745zM420 1573q0 39 27.5 67.5t68.5 28.5q39 0 64.5 -28.5t25.5 -67.5q0 -47 -35 -76q-27 -20 -57 -20q-35 0 -61 22q-33 27 -33 74z" />
<glyph unicode="&#x117;" horiz-adv-x="997" d="M78 479q0 233 124 383t326 150q211 0 316 -164q78 -123 78 -293q0 -49 -7 -80h-686q2 -188 105 -285q88 -86 237 -86q150 0 267 52l28 -113q-129 -61 -317 -61q-217 0 -344 136t-127 361zM233 590h535q2 119 -49 201q-68 106 -205 106q-127 0 -205 -104q-63 -82 -76 -203 zM426 1239q0 39 27.5 67.5t68.5 28.5q39 0 64.5 -28.5t25.5 -67.5q0 -47 -34 -76q-27 -20 -58 -20q-35 0 -61 22q-33 27 -33 74z" />
<glyph unicode="&#x118;" horiz-adv-x="972" d="M156 0v1380h714v-129h-559v-465h529v-129h-529v-528h590v-129l-29 -2q-33 -20 -63.5 -46t-55 -53.5t-39 -58t-14.5 -59.5q0 -41 27 -63.5t70 -22.5q49 0 90 16l24 -88q-66 -39 -155 -39q-86 0 -135.5 42t-49.5 120q0 41 14.5 79t39 70.5t53.5 59.5t57 45h-579z" />
<glyph unicode="&#x119;" horiz-adv-x="997" d="M78 479q0 233 124 383t326 150q211 0 316 -164q78 -123 78 -293q0 -49 -7 -80h-686q2 -188 105 -285q88 -86 237 -86q150 0 267 52l28 -113q-63 -20 -104 -39q-31 -12 -63.5 -36.5t-62.5 -54.5t-46.5 -63.5t-16.5 -64.5q0 -47 26 -68.5t60 -21.5q23 0 48.5 6t48.5 14 l26 -82q-33 -23 -73.5 -35t-83.5 -12q-80 0 -130.5 42t-50.5 118q0 37 12.5 72t36 65.5t51 55t52.5 43.5v2q-23 -2 -47 -2q-217 0 -344 136t-127 361zM233 590h535q2 119 -49 201q-68 106 -205 106q-127 0 -205 -104q-63 -82 -76 -203z" />
<glyph unicode="&#x11a;" horiz-adv-x="972" d="M156 0v1380h714v-129h-559v-465h529v-129h-529v-528h590v-129h-745zM238 1688h141l135 -144h4l133 144h137l-213 -232h-120z" />
<glyph unicode="&#x11b;" horiz-adv-x="997" d="M78 479q0 233 124 383t326 150q211 0 316 -164q78 -123 78 -293q0 -49 -7 -80h-686q2 -188 105 -285q88 -86 237 -86q150 0 267 52l28 -113q-129 -61 -317 -61q-217 0 -344 136t-127 361zM233 590h535q2 119 -49 201q-68 106 -205 106q-127 0 -205 -104q-63 -82 -76 -203 zM276 1399h125l123 -195h4l123 195h121l-190 -289h-111z" />
<glyph unicode="&#x11c;" horiz-adv-x="1282" d="M74 682q0 156 51 287t146.5 225t228.5 147.5t299 53.5q201 0 329 -62l-41 -127q-123 57 -292 58q-127 0 -229.5 -40t-175.5 -114t-112.5 -180.5t-39.5 -239.5q0 -135 37.5 -241.5t106.5 -181t168 -113.5t222 -39q166 0 242 39v434h-283v125h436v-654q-190 -74 -407 -73 q-158 0 -284 48t-216 137t-138 218t-48 293zM376 1497l189 289h106l193 -289h-125l-119 195h-4l-119 -195h-121z" />
<glyph unicode="&#x11d;" horiz-adv-x="1114" d="M78 487q0 244 137 390q123 133 301 133q215 0 305 -172h4l9 151h139q-4 -59 -6 -126.5t-2 -143.5v-576q0 -328 -138 -452q-127 -117 -346 -117q-201 0 -319 80l43 121q125 -78 284 -78q319 0 320 358v117h-4q-96 -170 -313 -170q-180 0 -297 137t-117 348zM236 498 q0 -162 77 -265q80 -109 224 -108q86 0 156.5 50t99.5 142q16 45 16 97v192q0 115 -78 199q-76 82 -192 82q-68 0 -124.5 -28t-96 -79t-61 -122.5t-21.5 -159.5zM280 1112l189 289h106l193 -289h-125l-119 195h-4l-119 -195h-121z" />
<glyph unicode="&#x11e;" horiz-adv-x="1282" d="M74 682q0 313 196.5 513t528.5 200q201 0 329 -62l-41 -127q-125 57 -292 58q-254 0 -405.5 -154t-151.5 -420q0 -270 144 -422.5t390 -152.5q166 0 242 39v434h-283v125h436v-654q-190 -74 -407 -73q-311 0 -496 180q-190 184 -190 516zM461 1696h98q23 -119 156 -119 q72 0 114 39q37 31 41 80h99q0 -100 -69 -159.5t-185 -59.5q-129 0 -197 69q-57 57 -57 150z" />
<glyph unicode="&#x11f;" horiz-adv-x="1114" d="M78 487q0 242 137 390q123 133 301 133q215 0 305 -172h4l9 151h139q-8 -121 -8 -270v-576q0 -326 -138 -452q-125 -117 -346 -117q-201 0 -319 80l43 121q123 -78 284 -78q319 0 320 358v117h-4q-94 -170 -313 -170q-180 0 -297 138.5t-117 346.5zM236 498 q0 -162 77 -265q80 -109 224 -108q86 0 156.5 51t99.5 141q16 44 16 97v192q0 117 -77 199t-193 82q-135 0 -219 -106.5t-84 -282.5zM315 1389h95q20 -143 147 -144q68 0 109 47q35 39 39 97h94q0 -109 -65.5 -174.5t-176.5 -65.5q-123 0 -186 76q-55 63 -56 164z" />
<glyph unicode="&#x120;" horiz-adv-x="1282" d="M74 682q0 156 51 287t146.5 225t228.5 147.5t299 53.5q201 0 329 -62l-41 -127q-123 57 -292 58q-127 0 -229.5 -40t-175.5 -114t-112.5 -180.5t-39.5 -239.5q0 -135 37.5 -241.5t106.5 -181t168 -113.5t222 -39q166 0 242 39v434h-283v125h436v-654q-190 -74 -407 -73 q-158 0 -284 48t-216 137t-138 218t-48 293zM529 1593q0 39 27.5 67.5t68.5 28.5q39 0 64.5 -28.5t25.5 -67.5q0 -41 -27.5 -68.5t-64.5 -27.5q-39 0 -66.5 27.5t-27.5 68.5z" />
<glyph unicode="&#x121;" horiz-adv-x="1114" d="M78 487q0 244 137 390q123 133 301 133q215 0 305 -172h4l9 151h139q-4 -59 -6 -126.5t-2 -143.5v-576q0 -328 -138 -452q-127 -117 -346 -117q-201 0 -319 80l43 121q125 -78 284 -78q319 0 320 358v117h-4q-96 -170 -313 -170q-180 0 -297 137t-117 348zM236 498 q0 -162 77 -265q80 -109 224 -108q86 0 156.5 50t99.5 142q16 45 16 97v192q0 115 -78 199q-76 82 -192 82q-68 0 -124.5 -28t-96 -79t-61 -122.5t-21.5 -159.5zM432 1208q0 39 27.5 67.5t68.5 28.5q39 0 64.5 -28.5t25.5 -67.5q0 -41 -27.5 -68.5t-64.5 -27.5 q-39 0 -66.5 27.5t-27.5 68.5z" />
<glyph unicode="&#x122;" horiz-adv-x="1282" d="M74 682q0 313 196.5 513t528.5 200q201 0 329 -62l-41 -127q-125 57 -292 58q-254 0 -405.5 -154t-151.5 -420q0 -270 144 -422.5t390 -152.5q166 0 242 39v434h-283v125h436v-654q-190 -74 -407 -73q-311 0 -496 180q-190 184 -190 516zM567 -379q61 10 108.5 42 t47.5 95q0 35 -21.5 68t-50.5 55l121 29q31 -20 56.5 -59t25.5 -89q0 -55 -22.5 -95t-59.5 -66.5t-82 -40t-90 -15.5z" />
<glyph unicode="&#x123;" horiz-adv-x="1114" d="M78 487q0 242 137 390q123 133 301 133q215 0 305 -172h4l9 151h139q-8 -121 -8 -270v-576q0 -326 -138 -452q-125 -117 -346 -117q-201 0 -319 80l43 121q123 -78 284 -78q319 0 320 358v117h-4q-94 -170 -313 -170q-180 0 -297 138.5t-117 346.5zM236 498 q0 -162 77 -265q80 -109 224 -108q86 0 156.5 51t99.5 141q16 44 16 97v192q0 117 -77 199t-193 82q-135 0 -219 -106.5t-84 -282.5zM428 1239q0 53 23.5 92t60.5 63.5t82 38t88 15.5l35 -72q-63 -10 -112.5 -40.5t-49.5 -92.5q0 -37 22.5 -68.5t51.5 -54.5l-119 -26 q-31 20 -56.5 59t-25.5 86z" />
<glyph unicode="&#x124;" horiz-adv-x="1296" d="M156 0v1380h155v-587h674v587h156v-1380h-156v659h-674v-659h-155zM403 1483l189 289h106l193 -289h-125l-119 195h-4l-119 -195h-121z" />
<glyph unicode="&#x125;" horiz-adv-x="1105" d="M152 0v1452h155v-621h4q47 82 132 130.5t180 48.5q154 0 246 -109.5t92 -304.5v-596h-158v578q0 303 -234 303q-53 0 -100 -22.5t-83 -60.5t-57.5 -88.5t-21.5 -107.5v-602h-155zM311 1554l189 289h106l193 -289h-125l-119 195h-4l-119 -195h-121z" />
<glyph unicode="&#x126;" horiz-adv-x="1296" d="M23 1075v121h133v184h155v-184h674v184h156v-184h127v-121h-127v-1075h-156v659h-674v-659h-155v1075h-133zM311 793h674v282h-674v-282z" />
<glyph unicode="&#x127;" horiz-adv-x="1105" d="M23 1137v120h129v195h155v-195h244v-120h-244v-306h4q47 82 132 130.5t180 48.5q154 0 246 -109.5t92 -304.5v-596h-158v578q0 303 -234 303q-53 0 -100 -22.5t-83 -60.5t-57.5 -88.5t-21.5 -107.5v-602h-155v1137h-129z" />
<glyph unicode="&#x128;" horiz-adv-x="468" d="M-6 1466q0 86 33.5 138.5t97.5 52.5q23 0 54.5 -12.5t63 -26.5t59.5 -26.5t44 -12.5q51 0 57 84h84q0 -186 -133 -186q-23 0 -55.5 12t-66 26.5t-61.5 26.5t-38 12q-47 0 -55 -88h-84zM156 0v1380h155v-1380h-155z" />
<glyph unicode="&#x129;" horiz-adv-x="458" d="M-12 1149q0 86 32.5 140t96.5 54q14 0 45 -12t65.5 -27.5t66.5 -27.5t44 -12q47 0 53 86h80q0 -186 -131 -187q-18 0 -49 12.5t-63.5 27t-60.5 26.5t-40 12q-47 0 -55 -92h-84zM152 0v989h155v-989h-155z" />
<glyph unicode="&#x12a;" horiz-adv-x="468" d="M-8 1509v105h483v-105h-483zM156 0v1380h155v-1380h-155z" />
<glyph unicode="&#x12b;" horiz-adv-x="458" d="M4 1210v107h453v-107h-453zM152 0v989h155v-989h-155z" />
<glyph unicode="&#x12c;" horiz-adv-x="468" d="M-4 1723h94q20 -143 147 -144q61 0 102.5 42t45.5 102h94q0 -111 -65.5 -175.5t-176.5 -64.5q-113 0 -177 64.5t-64 175.5zM156 0v1380h155v-1380h-155z" />
<glyph unicode="&#x12d;" horiz-adv-x="458" d="M-8 1336h94q20 -143 147 -144q61 0 102.5 42t45.5 102h94q0 -111 -65.5 -175.5t-176.5 -64.5q-113 0 -177 64.5t-64 175.5zM152 0v989h155v-989h-155z" />
<glyph unicode="&#x12e;" horiz-adv-x="468" d="M51 -254q0 37 10.5 74t26.5 69.5t33.5 60t34.5 50.5v1380h155v-1380h-49q-12 -16 -27.5 -39.5t-30 -52.5t-23.5 -59.5t-9 -59.5q0 -53 29.5 -78.5t74.5 -25.5q29 0 52.5 5t40.5 13l26 -84q-31 -23 -77 -33t-82 -10q-82 0 -133.5 43t-51.5 127z" />
<glyph unicode="&#x12f;" horiz-adv-x="458" d="M51 -254q0 76 35 143.5t66 110.5v989h155v-989h-45q-12 -16 -28.5 -39.5t-30 -52.5t-23.5 -59.5t-10 -59.5q0 -53 28.5 -78.5t73.5 -25.5q31 0 53.5 5t41.5 13l24 -84q-31 -23 -76 -33t-84 -10q-80 0 -130 43t-50 127zM125 1286q0 45 29.5 76t74.5 31q47 0 76 -31t29 -76 q0 -53 -37 -84q-31 -23 -70 -22q-39 0 -67 24q-35 29 -35 82z" />
<glyph unicode="&#x130;" horiz-adv-x="468" d="M141 1573q0 39 28 67.5t69 28.5q39 0 64.5 -28.5t25.5 -67.5q0 -47 -35 -76q-27 -20 -57 -20q-35 0 -62 22q-33 27 -33 74zM156 0v1380h155v-1380h-155z" />
<glyph unicode="&#x131;" horiz-adv-x="458" d="M152 0v989h155v-989h-155z" />
<glyph unicode="&#x132;" horiz-adv-x="1198" d="M156 0v1380h155v-1380h-155zM479 8l25 127q63 -25 143 -24q135 0 194.5 80.5t59.5 269.5v919h156v-936q0 -467 -400 -467q-104 0 -178 31z" />
<glyph unicode="&#x133;" horiz-adv-x="933" d="M125 1286q0 45 29.5 76t74.5 31q47 0 77 -31t28 -76q0 -47 -30 -76.5t-77 -29.5q-43 0 -72.5 29.5t-29.5 76.5zM152 0v989h155v-989h-155zM367 -305q82 6 134 28.5t80 73.5t38 136t10 214v842h158v-907q0 -135 -27 -232.5t-77 -159t-124.5 -90t-173.5 -30.5zM602 1286 q0 45 30 76t77 31q45 0 75.5 -31t28.5 -76q0 -45 -29.5 -75.5t-78.5 -30.5q-37 0 -70 26.5t-33 79.5z" />
<glyph unicode="&#x134;" horiz-adv-x="729" d="M10 8l25 127q63 -25 143 -24q135 0 194.5 80.5t59.5 269.5v919h156v-936q0 -467 -400 -467q-104 0 -178 31zM256 1483l189 289h106l193 -289h-125l-119 195h-4l-119 -195h-121z" />
<glyph unicode="&#x135;" horiz-adv-x="475" d="M-92 -305q82 6 134 28.5t80 73.5t38 136t10 214v842h158v-907q0 -135 -27 -232.5t-77 -159t-124.5 -90t-173.5 -30.5zM-5 1092l189 289h106l193 -289h-125l-119 195h-4l-119 -195h-121z" />
<glyph unicode="&#x136;" horiz-adv-x="1067" d="M156 0v1380h155v-673h6q53 78 111 147l428 526h191l-496 -585l536 -795h-184l-461 690l-131 -151v-539h-155zM399 -367q61 10 108.5 41t47.5 95q0 35 -20.5 67.5t-49.5 54.5l119 29q31 -20 56.5 -59t25.5 -88q0 -55 -22.5 -95t-59.5 -66t-82 -39t-90 -17z" />
<glyph unicode="&#x137;" horiz-adv-x="919" d="M152 0v1452h155v-924h4q41 59 86 113l299 348h189l-379 -409l430 -580h-188l-349 485l-92 -102v-383h-155zM305 -379q61 10 108.5 42t47.5 95q0 35 -20.5 68t-49.5 55l119 29q31 -20 56.5 -60t25.5 -88q0 -55 -22.5 -95t-59.5 -66.5t-82 -40t-90 -15.5z" />
<glyph unicode="&#x138;" horiz-adv-x="919" d="M152 0v989h155v-461h4q20 29 42 57.5t44 55.5l299 348h189l-379 -409l430 -580h-188l-349 485l-92 -102v-383h-155z" />
<glyph unicode="&#x139;" horiz-adv-x="935" d="M156 0v1380h155v-1249h584v-131h-739zM174 1454l195 238h198l-262 -238h-131z" />
<glyph unicode="&#x13a;" horiz-adv-x="458" d="M125 1511l194 238h197l-264 -238h-127zM152 0v1452h155v-1452h-155z" />
<glyph unicode="&#x13b;" horiz-adv-x="935" d="M156 0v1380h155v-1249h584v-131h-739zM348 -373q61 10 109.5 42t48.5 95q0 35 -21.5 68t-50.5 55l121 29q31 -20 56.5 -59t25.5 -88q0 -55 -23.5 -95.5t-60.5 -67t-82 -39.5t-88 -16z" />
<glyph unicode="&#x13c;" horiz-adv-x="458" d="M72 -373q61 10 108 42t47 95q0 35 -20.5 68t-48.5 55l118 29q31 -20 56.5 -60t25.5 -87q0 -55 -22.5 -95.5t-59 -67t-81.5 -39.5t-91 -16zM152 0v1452h155v-1452h-155z" />
<glyph unicode="&#x13d;" horiz-adv-x="935" d="M156 0v1380h155v-1249h584v-131h-739zM487 1114q61 10 109.5 42t48.5 95q0 35 -21.5 68t-50.5 55l121 29q31 -20 56.5 -59t25.5 -89q0 -55 -22.5 -95t-59.5 -66.5t-82 -40t-90 -15.5z" />
<glyph unicode="&#x13e;" horiz-adv-x="475" d="M152 0v1452h155v-1452h-155zM387 1130q25 29 50.5 72t25.5 107q0 39 -18.5 74.5t-47.5 58.5l117 28q29 -16 51.5 -58t22.5 -95q0 -55 -16.5 -96t-38 -70t-43 -47.5t-33.5 -28.5z" />
<glyph unicode="&#x13f;" horiz-adv-x="935" d="M156 0v1380h155v-1249h584v-131h-739zM518 829q0 53 31 86t80 33q47 0 77.5 -33t30.5 -86q0 -57 -33.5 -86.5t-78.5 -29.5q-41 0 -74 30.5t-33 85.5z" />
<glyph unicode="&#x140;" horiz-adv-x="722" d="M152 0v1452h155v-1452h-155zM457 829q0 53 30.5 86t79.5 33q47 0 78 -33t31 -86q0 -57 -34 -86.5t-79 -29.5q-41 0 -73.5 30.5t-32.5 85.5z" />
<glyph unicode="&#x141;" horiz-adv-x="944" d="M-8 432v125l172 129v694h155v-583l275 202v-127l-275 -202v-539h584v-131h-739v561z" />
<glyph unicode="&#x142;" horiz-adv-x="473" d="M18 487v129l142 123v713h155v-590l146 127v-129l-146 -127v-733h-155v610z" />
<glyph unicode="&#x143;" horiz-adv-x="1310" d="M156 0v1380h166l454 -725q147 -236 246 -448l4 2q-18 223 -18 569v602h145v-1380h-154l-450 725q-168 272 -254 459l-6 -2q14 -211 14 -570v-612h-147zM563 1454l195 238h198l-262 -238h-131z" />
<glyph unicode="&#x144;" horiz-adv-x="1105" d="M143 989h140l8 -164h6q39 78 121 129q90 55 203 56q125 0 215 -78q125 -109 125 -336v-596h-158v578q0 303 -234 303q-88 0 -155.5 -55.5t-94.5 -139.5q-12 -39 -12 -84v-602h-155v731q0 119 -9 258zM471 1110l178 289h182l-247 -289h-113z" />
<glyph unicode="&#x145;" horiz-adv-x="1310" d="M156 0v1380h166l454 -725q147 -236 246 -448l4 2q-18 223 -18 569v602h145v-1380h-154l-450 725q-168 272 -254 459l-6 -2q14 -211 14 -570v-612h-147zM508 -371q61 10 108.5 42t47.5 96q0 35 -20.5 67.5t-49.5 54.5l119 29q31 -20 56.5 -59t25.5 -90q0 -55 -22.5 -94.5 t-59.5 -66t-82 -39.5t-90 -15z" />
<glyph unicode="&#x146;" horiz-adv-x="1105" d="M143 989h140l8 -164h6q39 78 121 129q90 55 203 56q125 0 215 -78q125 -109 125 -336v-596h-158v578q0 303 -234 303q-88 0 -155.5 -55.5t-94.5 -139.5q-12 -39 -12 -84v-602h-155v731q0 119 -9 258zM410 -375q61 10 109 41t48 94q0 35 -21.5 68t-49.5 55l120 29 q31 -20 56.5 -60t25.5 -88q0 -55 -23.5 -95t-60 -65.5t-82 -39t-88.5 -17.5z" />
<glyph unicode="&#x147;" horiz-adv-x="1310" d="M156 0v1380h166l454 -725q147 -236 246 -448l4 2q-18 223 -18 569v602h145v-1380h-154l-450 725q-168 272 -254 459l-6 -2q14 -211 14 -570v-612h-147zM381 1677h141l135 -143h5l133 143h137l-213 -229h-121z" />
<glyph unicode="&#x148;" horiz-adv-x="1105" d="M143 989h140l8 -164h6q39 78 121 129q90 55 203 56q125 0 215 -78q125 -109 125 -336v-596h-158v578q0 303 -234 303q-88 0 -155.5 -55.5t-94.5 -139.5q-12 -39 -12 -84v-602h-155v731q0 119 -9 258zM305 1399h125l123 -195h4l123 195h121l-191 -289h-110z" />
<glyph unicode="&#x149;" horiz-adv-x="1320" d="M72 930q76 211 116 467l166 18q-80 -297 -182 -473zM325 989h140v-164h14q41 82 127 133.5t197 51.5q156 0 248 -111t92 -303v-596h-158v578q0 303 -234 303q-53 0 -101 -21.5t-84 -59.5t-56.5 -89.5t-20.5 -108.5v-602h-155v731q0 59 -2.5 124t-6.5 134z" />
<glyph unicode="&#x14a;" horiz-adv-x="1310" d="M156 0v1380h166l454 -725q147 -238 246 -448l4 2q-18 223 -18 569v602h145v-1298v-33v-49h-2q-6 -84 -25 -150q-27 -98 -77 -159.5t-124.5 -90t-172.5 -30.5l-19 125q82 6 134.5 28.5t80 73.5t37.5 137q4 35 6 78l-442 713q-168 272 -254 459l-6 -2q8 -106 11 -247.5 t3 -322.5v-612h-147z" />
<glyph unicode="&#x14b;" horiz-adv-x="1105" d="M143 989h140v-164h14q41 82 127 133.5t197 51.5q156 0 248 -111t92 -303v-514v-33v-49h-3q-6 -84 -24 -150q-27 -98 -77 -159.5t-125 -90t-173 -30.5l-18 125q82 6 134 28.5t79.5 73.5t38 136t10.5 214v431q0 303 -234 303q-53 0 -101 -21.5t-84 -59.5t-56.5 -89.5 t-20.5 -108.5v-602h-155v731q0 59 -2.5 124t-6.5 134z" />
<glyph unicode="&#x14c;" d="M74 678q0 328 178 528q172 197 440 197q270 0 435 -192.5t165 -505.5t-157 -512q-168 -215 -459 -216q-279 0 -445 209q-158 195 -157 492zM236 682q0 -229 112 -393q123 -184 332 -185q215 0 338 189q108 165 108 403q0 231 -108 394q-123 186 -334 186 q-215 0 -338 -184q-111 -164 -110 -410zM451 1511v105h483v-105h-483z" />
<glyph unicode="&#x14d;" horiz-adv-x="1091" d="M78 487q0 223 125 369q131 154 350 154q213 0 340 -148q121 -141 121 -358q0 -225 -125 -371q-131 -156 -352 -156q-211 0 -338 152q-121 141 -121 358zM236 492q0 -152 75 -265q86 -129 232 -129q145 0 233 131q76 115 76 269q0 156 -74 266q-84 127 -231 127 q-154 0 -238 -129q-74 -111 -73 -270zM322 1202v107h452v-107h-452z" />
<glyph unicode="&#x14e;" d="M74 678q0 160 46 294t128 229t195.5 148.5t248.5 53.5t247 -51.5t189.5 -143.5t120.5 -220.5t43 -282.5q0 -162 -44 -295.5t-125 -229.5t-194.5 -149.5t-252.5 -53.5q-133 0 -243.5 52.5t-190.5 145.5t-124 221t-44 282zM236 682q0 -121 32.5 -226.5t91 -183t140.5 -123 t180 -45.5q100 0 183 45.5t141.5 125t90 187t31.5 234.5q0 123 -32.5 228.5t-91 184.5t-139.5 123t-179 44q-100 0 -183 -44t-141.5 -123t-91 -188.5t-32.5 -238.5zM441 1745h94q20 -143 147 -144q61 0 102.5 42t45.5 102h94q0 -111 -65.5 -175.5t-176.5 -64.5 q-113 0 -177 64.5t-64 175.5z" />
<glyph unicode="&#x14f;" horiz-adv-x="1091" d="M78 487q0 115 34.5 211.5t97 165t151 107.5t192.5 39t189 -38t145.5 -104.5t93.5 -159.5t33 -204q0 -117 -35 -213t-98.5 -166t-150.5 -109t-193 -39q-102 0 -186.5 38t-145 106.5t-94 162t-33.5 203.5zM236 492q0 -80 22.5 -152t62 -125t97 -85t125.5 -32t124 31t97 85 t64.5 127t23.5 157q0 82 -21.5 154.5t-61.5 124.5t-96.5 83t-125.5 31q-72 0 -129.5 -31t-98 -84t-62 -125.5t-21.5 -158.5zM304 1356h94q20 -143 147 -144q61 0 102.5 42t45.5 102h94q0 -111 -65.5 -175.5t-176.5 -64.5q-113 0 -177 64.5t-64 175.5z" />
<glyph unicode="&#x150;" d="M74 678q0 328 178 528q172 197 440 197q270 0 435 -192.5t165 -505.5t-157 -512q-168 -215 -459 -216q-279 0 -445 209q-158 195 -157 492zM236 682q0 -229 112 -393q123 -184 332 -185q215 0 338 189q108 165 108 403q0 231 -108 394q-123 186 -334 186 q-215 0 -338 -184q-111 -164 -110 -410zM477 1473l168 227h180l-231 -227h-117zM766 1473l168 227h182l-233 -227h-117z" />
<glyph unicode="&#x151;" horiz-adv-x="1091" d="M78 487q0 223 125 369q131 154 350 154q213 0 340 -148q121 -141 121 -358q0 -225 -125 -371q-131 -156 -352 -156q-211 0 -338 152q-121 141 -121 358zM236 492q0 -152 75 -265q86 -129 232 -129q145 0 233 131q76 115 76 269q0 156 -74 266q-84 127 -231 127 q-154 0 -238 -129q-74 -111 -73 -270zM317 1124l166 275h162l-229 -275h-99zM598 1124l168 275h162l-230 -275h-100z" />
<glyph unicode="&#x152;" horiz-adv-x="1777" d="M74 680q0 164 47 298t134 228t210 145.5t274 51.5q20 0 62.5 -3t88.5 -8.5t88 -8.5t60 -3h635v-129h-559v-465h526v-129h-526v-528h590v-129h-680q-18 0 -60 -3t-88.5 -8t-87 -8.5t-61.5 -3.5q-147 0 -268 51.5t-207 143.5t-132 221t-46 287zM238 688q0 -133 35.5 -241.5 t102 -184.5t163 -117t217.5 -41q127 0 202 29v1112q-96 31 -219 31q-115 0 -207 -42t-157.5 -119t-101 -185.5t-35.5 -241.5z" />
<glyph unicode="&#x153;" horiz-adv-x="1730" d="M78 489q0 115 33.5 211.5t95 165t146.5 107.5t186 39q129 0 227 -63.5t141 -180.5h4q109 244 359 244q88 0 159.5 -34t122 -94.5t77 -144.5t26.5 -182q0 -53 -6 -80h-664q0 -180 91 -276.5t239 -96.5q123 0 258 54l33 -113q-121 -66 -312 -65q-279 0 -385 241h-4 q-51 -117 -151.5 -179t-227.5 -62q-96 0 -179 36.5t-142.5 103t-93 161t-33.5 208.5zM238 494q0 -82 22.5 -154t62 -126t95 -85t121.5 -31q68 0 122 30t94 83t61.5 126t21.5 159t-21.5 159.5t-60.5 126t-94.5 82t-124.5 29.5q-70 0 -125.5 -31t-94 -84t-59 -125.5 t-20.5 -158.5zM983 592h516q0 135 -64.5 220t-181.5 85q-55 0 -103 -23.5t-83 -64.5t-56.5 -96.5t-27.5 -120.5z" />
<glyph unicode="&#x154;" horiz-adv-x="1064" d="M156 0v1362q139 29 323 29q262 0 387 -113q102 -96 103 -258q0 -264 -260 -354v-7q152 -51 204 -284q70 -309 105 -375h-162q-31 55 -88 332q-33 147 -97.5 211.5t-185.5 64.5h-174v-608h-155zM311 727h185q145 0 231 74.5t86 197.5q0 268 -326 269q-115 0 -176 -15v-526 zM416 1454l194 238h199l-262 -238h-131z" />
<glyph unicode="&#x155;" horiz-adv-x="641" d="M145 989h138l6 -194h6q35 98 108.5 156.5t163.5 58.5q27 0 47 -4v-148q-25 4 -57 4q-123 0 -192 -108q-57 -90 -58 -219v-535h-155l2 688q0 152 -9 301zM254 1110l178 289h182l-247 -289h-113z" />
<glyph unicode="&#x156;" horiz-adv-x="1064" d="M156 0v1362q139 29 323 29q262 0 387 -113q102 -96 103 -258q0 -264 -260 -354v-7q152 -51 204 -284q70 -309 105 -375h-162q-31 55 -88 332q-33 147 -97.5 211.5t-185.5 64.5h-174v-608h-155zM311 727h185q145 0 231 74.5t86 197.5q0 268 -326 269q-115 0 -176 -15v-526 zM381 -358q61 10 109.5 41.5t48.5 95.5q0 35 -21.5 67.5t-50.5 55.5l121 26q31 -18 56.5 -57t25.5 -90q0 -55 -23.5 -94t-60.5 -66t-82 -40t-88 -15z" />
<glyph unicode="&#x157;" horiz-adv-x="641" d="M80 -373q61 10 109.5 42t48.5 95q0 35 -21.5 68t-50.5 55l119 29q31 -20 56.5 -60t25.5 -87q0 -55 -22.5 -95.5t-59.5 -67t-82 -39.5t-90 -16zM145 989h138l6 -194h6q35 98 108.5 156.5t163.5 58.5q27 0 47 -4v-148q-25 4 -57 4q-123 0 -192 -108q-57 -90 -58 -219v-535 h-155l2 688q0 152 -9 301z" />
<glyph unicode="&#x158;" horiz-adv-x="1064" d="M156 0v1362q139 29 323 29q262 0 387 -113q102 -96 103 -258q0 -264 -260 -354v-7q152 -51 204 -284q70 -309 105 -375h-162q-31 55 -88 332q-33 147 -97.5 211.5t-185.5 64.5h-174v-608h-155zM236 1694h139l137 -144h4l133 144h135l-211 -232h-122zM311 727h185 q145 0 231 74.5t86 197.5q0 268 -326 269q-115 0 -176 -15v-526z" />
<glyph unicode="&#x159;" horiz-adv-x="641" d="M96 1419h129l123 -198h4l123 198h125l-190 -291h-119zM145 989h138l6 -194h6q35 98 108.5 156.5t163.5 58.5q27 0 47 -4v-148q-25 4 -57 4q-123 0 -192 -108q-57 -90 -58 -219v-535h-155l2 688q0 152 -9 301z" />
<glyph unicode="&#x15a;" horiz-adv-x="974" d="M84 68l43 129q137 -86 305 -86q139 0 218 67.5t79 179.5q0 102 -60.5 169t-199.5 118q-354 135 -354 389q0 160 118.5 263.5t309.5 103.5q180 0 291 -66l-48 -127q-102 63 -249 64q-133 0 -207 -72q-59 -59 -60 -145q0 -98 66 -162q59 -55 207 -117q178 -72 258 -162 q86 -98 86 -243q0 -168 -115 -275q-127 -117 -350 -116q-211 0 -338 88zM403 1454l195 238h199l-262 -238h-132z" />
<glyph unicode="&#x15b;" horiz-adv-x="784" d="M80 47l41 121q111 -70 229 -70q98 0 150 47q49 41 49 111q0 68 -42 111t-145 84q-254 98 -253 276q0 121 89 202t236 81q137 0 234 -60l-43 -116q-90 57 -197 57q-80 0 -125 -41t-45 -102t47 -103q39 -35 141 -76q254 -102 254 -297q0 -133 -95 -212.5t-259 -79.5 q-154 0 -266 67zM311 1110l178 289h183l-248 -289h-113z" />
<glyph unicode="&#x15c;" horiz-adv-x="974" d="M84 68l43 129q137 -86 305 -86q141 0 219 67.5t78 179.5q0 104 -60.5 169t-199.5 118q-354 133 -354 389q0 80 31.5 147.5t89 117t136.5 76t171 26.5q178 0 291 -66l-48 -127q-100 63 -249 64q-119 0 -193 -59.5t-74 -157.5q0 -47 13.5 -84t44 -70t83 -62.5t132.5 -62.5 q92 -37 157.5 -79t107.5 -91t60.5 -107t18.5 -128q0 -88 -33 -161t-93.5 -124t-146.5 -78.5t-192 -27.5q-213 0 -338 88zM241 1503l189 289h106l193 -289h-125l-119 195h-4l-119 -195h-121z" />
<glyph unicode="&#x15d;" horiz-adv-x="784" d="M80 47l41 121q109 -70 229 -70q92 0 145.5 43t53.5 115q0 68 -42 111t-145 84q-254 100 -253 276q0 61 23.5 112.5t65.5 89.5t102 59.5t134 21.5q137 0 234 -60l-43 -116q-88 57 -197 57q-80 0 -125 -41t-45 -102q0 -29 9 -52.5t30.5 -44t57.5 -41t91 -41.5 q254 -100 254 -297q0 -135 -94 -213.5t-260 -78.5q-154 0 -266 67zM145 1112l189 289h106l193 -289h-125l-119 195h-4l-119 -195h-121z" />
<glyph unicode="&#x15e;" horiz-adv-x="974" d="M84 68l43 129q137 -86 305 -86q139 0 218 67.5t79 179.5q0 102 -60.5 169t-199.5 118q-354 135 -354 389q0 160 118.5 263.5t309.5 103.5q180 0 291 -66l-48 -127q-102 63 -249 64q-133 0 -207 -72q-59 -59 -60 -145q0 -98 66 -162q59 -55 207 -117q178 -72 258 -162 q86 -98 86 -243q0 -168 -115 -275q-92 -84 -231 -106l-60 -94q59 -8 101.5 -46.5t42.5 -95.5q0 -164 -207 -164q-78 0 -135 37l28 82q51 -29 111 -28q90 0 90 65q-2 74 -160 88l84 146h-14q-211 0 -338 88z" />
<glyph unicode="&#x15f;" horiz-adv-x="784" d="M80 47l41 121q111 -70 229 -70q98 0 150 47q49 41 49 111q0 68 -42 111t-145 84q-254 98 -253 276q0 121 89 202t236 81q137 0 234 -60l-43 -116q-90 57 -197 57q-80 0 -125 -41t-45 -102t47 -103q39 -35 141 -76q254 -102 254 -297q0 -133 -96 -213q-64 -55 -162 -71 l-57 -92q59 -8 100 -46t41 -96q0 -164 -207 -164q-78 0 -133 37l29 82q47 -29 109 -28q92 0 90 65q-2 74 -158 88l82 146q-147 2 -258 67z" />
<glyph unicode="&#x160;" horiz-adv-x="974" d="M84 68l43 129q137 -86 305 -86q141 0 219 67.5t78 179.5q0 104 -60.5 169t-199.5 118q-354 133 -354 389q0 80 31.5 147.5t89 117t136.5 76t171 26.5q178 0 291 -66l-48 -127q-100 63 -249 64q-119 0 -193 -59.5t-74 -157.5q0 -47 13.5 -84t44 -70t83 -62.5t132.5 -62.5 q92 -37 157.5 -79t107.5 -91t60.5 -107t18.5 -128q0 -88 -33 -161t-93.5 -124t-146.5 -78.5t-192 -27.5q-213 0 -338 88zM246 1692h133l133 -154h4l129 154h131l-205 -238h-116z" />
<glyph unicode="&#x161;" horiz-adv-x="784" d="M80 47l41 121q109 -70 229 -70q92 0 145.5 43t53.5 115q0 68 -42 111t-145 84q-254 100 -253 276q0 61 23.5 112.5t65.5 89.5t102 59.5t134 21.5q137 0 234 -60l-43 -116q-88 57 -197 57q-80 0 -125 -41t-45 -102q0 -29 9 -52.5t30.5 -44t57.5 -41t91 -41.5 q254 -100 254 -297q0 -135 -94 -213.5t-260 -78.5q-154 0 -266 67zM154 1399h125l122 -195h5l120 195h121l-190 -289h-109z" />
<glyph unicode="&#x162;" horiz-adv-x="980" d="M-4 1249v131h991v-131h-420v-1249h-155v1249h-416zM279 -373l28 82q53 -29 111 -28q90 0 90 65q0 37 -41 58.5t-119 29.5l99 170h100l-70 -108q59 -8 101.5 -46.5t42.5 -95.5q0 -164 -207 -164q-78 0 -135 37z" />
<glyph unicode="&#x163;" horiz-adv-x="655" d="M35 868v121h155v180l154 52v-232h260v-121h-260v-565q0 -195 135 -194q63 0 105 14l8 -121q-61 -23 -150 -22q-123 0 -187.5 74.5t-64.5 248.5v565h-155zM228 -373l28 82q53 -29 111 -28q90 0 90 65q0 37 -41 58.5t-119 29.5l99 170h100l-70 -108q59 -8 101.5 -46.5 t42.5 -95.5q0 -164 -207 -164q-78 0 -135 37z" />
<glyph unicode="&#x164;" horiz-adv-x="980" d="M-4 1249v131h991v-131h-420v-1249h-155v1249h-416zM211 1688h141l135 -144h5l133 144h137l-213 -232h-121z" />
<glyph unicode="&#x165;" horiz-adv-x="669" d="M35 868v121h155v180l154 52v-232h260v-121h-260v-565q0 -195 135 -194q61 0 105 14l8 -121q-59 -23 -150 -22q-121 0 -186.5 74.5t-65.5 248.5v565h-155zM500 1176q25 20 51.5 58t26.5 95q0 37 -19.5 69t-46.5 54l119 27q27 -16 49 -54.5t22 -87.5q0 -51 -18 -90 t-43 -66.5t-50.5 -45t-41.5 -25.5z" />
<glyph unicode="&#x166;" horiz-adv-x="980" d="M-4 1249v131h991v-131h-420v-442h262v-121h-262v-686h-155v686h-254v121h254v442h-416z" />
<glyph unicode="&#x167;" horiz-adv-x="655" d="M35 543v121h155v204h-155v121h155v180l154 52v-232h260v-121h-260v-204h260v-121h-260v-240q0 -195 135 -194q63 0 105 14l8 -121q-61 -23 -150 -22q-123 0 -187.5 74.5t-64.5 248.5v240h-155z" />
<glyph unicode="&#x168;" horiz-adv-x="1288" d="M156 553v827h155v-829q0 -213 84 -329t242 -116q340 0 340 445v829h156v-817q0 -283 -130.5 -434.5t-371.5 -151.5q-233 0 -354 147.5t-121 428.5zM401 1466q0 86 34 138.5t97 52.5q23 0 54.5 -12.5t63.5 -26.5t59.5 -26.5t44.5 -12.5q51 0 57 84h84q0 -186 -133 -186 q-23 0 -55.5 12t-66.5 26.5t-61.5 26.5t-37.5 12q-47 0 -56 -88h-84z" />
<glyph unicode="&#x169;" horiz-adv-x="1095" d="M145 408v581h156v-553q0 -328 225 -327q51 0 99.5 20.5t84 57t57 86t21.5 104.5v612h156v-727q0 -66 2 -131t6 -131h-139v162h-14q-102 -184 -322 -185q-158 0 -245 111t-87 320zM305 1149q0 86 33 140t96 54q14 0 45 -12t66 -27.5t66.5 -27.5t43.5 -12q47 0 54 86h79 q0 -186 -131 -187q-18 0 -48.5 12.5t-63.5 27t-60.5 26.5t-40.5 12q-47 0 -55 -92h-84z" />
<glyph unicode="&#x16a;" horiz-adv-x="1288" d="M156 553v827h155v-829q0 -225 95 -340q84 -104 231 -105q340 0 340 445v829h156v-817q0 -299 -146 -450q-129 -135 -356 -136q-215 0 -338 129q-137 147 -137 447zM403 1509v105h482v-105h-482z" />
<glyph unicode="&#x16b;" horiz-adv-x="1095" d="M145 408v581h156v-553q0 -328 225 -327q88 0 158 55q61 47 88 117q16 43 16 96v612h156v-727q0 -129 8 -262h-139l-8 162h-6q-102 -184 -322 -185q-137 0 -221 86q-111 109 -111 345zM317 1210v107h453v-107h-453z" />
<glyph unicode="&#x16c;" horiz-adv-x="1288" d="M156 553v827h155v-829q0 -213 84 -329t242 -116q340 0 340 445v829h156v-817q0 -283 -130.5 -434.5t-371.5 -151.5q-233 0 -354 147.5t-121 428.5zM402 1723h94q20 -143 147 -144q61 0 102.5 42t45.5 102h94q0 -111 -65.5 -175.5t-176.5 -64.5q-113 0 -177 64.5 t-64 175.5z" />
<glyph unicode="&#x16d;" horiz-adv-x="1095" d="M145 408v581h156v-553q0 -328 225 -327q51 0 99.5 20.5t84 57t57 86t21.5 104.5v612h156v-727q0 -66 2 -131t6 -131h-139v162h-14q-102 -184 -322 -185q-158 0 -245 111t-87 320zM308 1336h94q20 -143 147 -144q61 0 102.5 42t45.5 102h94q0 -111 -65.5 -175.5 t-176.5 -64.5q-113 0 -177 64.5t-64 175.5z" />
<glyph unicode="&#x16e;" horiz-adv-x="1288" d="M156 553v827h155v-829q0 -225 95 -340q84 -104 231 -105q340 0 340 445v829h156v-817q0 -299 -146 -450q-129 -135 -356 -136q-215 0 -338 129q-137 147 -137 447zM449 1616q0 82 57 139t139 57q80 0 137.5 -57t57.5 -139q0 -80 -57.5 -137.5t-137.5 -57.5 q-82 0 -139 57.5t-57 137.5zM535 1616q0 -45 32.5 -77t77.5 -32t77 32t32 77q0 47 -32 78.5t-77 31.5t-77.5 -31.5t-32.5 -78.5z" />
<glyph unicode="&#x16f;" horiz-adv-x="1095" d="M145 408v581h156v-553q0 -328 225 -327q88 0 158 55q61 47 88 117q16 43 16 96v612h156v-727q0 -129 8 -262h-139l-8 162h-6q-102 -184 -322 -185q-137 0 -221 86q-111 109 -111 345zM352 1288q0 82 57.5 139.5t139.5 57.5q80 0 137 -57.5t57 -139.5q0 -80 -57 -137 t-137 -57q-82 0 -139.5 57t-57.5 137zM438 1288q0 -45 33 -76.5t78 -31.5t76.5 31.5t31.5 76.5q0 47 -31.5 79t-76.5 32t-78 -32t-33 -79z" />
<glyph unicode="&#x170;" horiz-adv-x="1288" d="M156 553v827h155v-829q0 -225 95 -340q84 -104 231 -105q340 0 340 445v829h156v-817q0 -299 -146 -450q-129 -135 -356 -136q-215 0 -338 129q-137 147 -137 447zM410 1464l168 228h180l-232 -228h-116zM698 1464l168 228h183l-232 -228h-119z" />
<glyph unicode="&#x171;" horiz-adv-x="1095" d="M145 408v581h156v-553q0 -328 225 -327q88 0 158 55q61 47 88 117q16 43 16 96v612h156v-727q0 -129 8 -262h-139l-8 162h-6q-102 -184 -322 -185q-137 0 -221 86q-111 109 -111 345zM352 1143l166 276h166l-229 -276h-103zM637 1143l168 276h164l-230 -276h-102z" />
<glyph unicode="&#x172;" horiz-adv-x="1288" d="M156 553v827h155v-829q0 -225 95 -340q84 -104 231 -105q340 0 340 445v829h156v-817q0 -299 -146 -450q-79 -84 -194 -115q-20 -18 -43 -44t-41.5 -53.5t-30.5 -56t-12 -57.5q0 -45 26.5 -67.5t67.5 -22.5q47 0 94 20l25 -84q-31 -23 -76 -35t-84 -12q-84 0 -132 43 t-48 119q0 66 36.5 126t77.5 106l-22 -3q-215 0 -338 129q-137 147 -137 447z" />
<glyph unicode="&#x173;" horiz-adv-x="1095" d="M145 408v581h156v-553q0 -328 225 -327q88 0 158 55q61 47 88 117q16 43 16 96v612h156v-727q0 -129 8 -262h-30q-12 -16 -28.5 -39.5t-31 -52.5t-24 -58.5t-9.5 -58.5q0 -51 30 -78.5t75 -27.5q55 0 92 20l27 -84q-31 -23 -76 -34t-84 -11q-82 0 -133 43t-51 127 q0 37 10 74t26.5 69.5t34 60t33.5 50.5l-8 162h-6q-102 -184 -322 -185q-137 0 -221 86q-111 109 -111 345z" />
<glyph unicode="&#x174;" horiz-adv-x="1691" d="M31 1380h164l170 -718q35 -141 60.5 -259t41.5 -219h6q10 70 40 189t75 291l190 716h158l176 -714q37 -154 61.5 -273t38.5 -207h5q33 193 110 480l191 714h157l-389 -1380h-158l-180 737q-35 147 -59.5 260t-34.5 195h-4q-12 -74 -39 -187.5t-70 -267.5l-202 -737h-160z M608 1483l189 289h106l193 -289h-125l-119 195h-4l-119 -195h-121z" />
<glyph unicode="&#x175;" horiz-adv-x="1476" d="M39 989h160l139 -516q25 -90 43 -168t33 -147h4q14 59 36.5 137t53.5 176l168 518h133l160 -510q27 -86 49 -164.5t39 -156.5h4q25 129 80 319l147 512h156l-318 -989h-141l-158 494q-31 96 -51 177t-37 148h-4q-16 -76 -38.5 -156.5t-53.5 -170.5l-166 -492h-143z M497 1092l189 289h106l193 -289h-125l-119 195h-4l-119 -195h-121z" />
<glyph unicode="&#x176;" horiz-adv-x="1067" d="M27 1380h178l196 -387q88 -176 142 -288h4q23 53 58.5 125.5t82.5 164.5l203 385h174l-453 -790v-590h-155v588zM301 1483l189 289h106l193 -289h-125l-119 195h-4l-119 -195h-121z" />
<glyph unicode="&#x177;" horiz-adv-x="929" d="M20 989h170l222 -600q16 -43 32.5 -94t30.5 -111h6q10 35 25.5 86.5t38.5 122.5l203 596h165l-268 -706q-100 -260 -166 -389q-84 -162 -180 -243t-190 -102l-43 132q98 35 180 115.5t131 191.5q12 27 12 43q0 14 -12 45zM223 1092l189 289h106l193 -289h-125l-119 195 h-4l-119 -195h-121z" />
<glyph unicode="&#x178;" horiz-adv-x="1067" d="M27 1380h178l196 -387q88 -176 142 -288h4q23 53 58.5 125.5t82.5 164.5l203 385h174l-453 -790v-590h-155v588zM264 1577q0 39 26.5 67.5t67.5 28.5q39 0 65 -27.5t26 -68.5t-26 -69.5t-67 -28.5h-2q-39 0 -64.5 28.5t-25.5 69.5zM629 1577q0 39 26.5 67.5t67.5 28.5 q39 0 64.5 -27.5t25.5 -68.5t-24.5 -69.5t-67.5 -28.5h-2q-39 0 -64.5 28.5t-25.5 69.5z" />
<glyph unicode="&#x179;" horiz-adv-x="1097" d="M61 0v92l764 1157h-698v131h897v-96l-760 -1153h770v-131h-973zM471 1456l193 238h200l-262 -238h-131z" />
<glyph unicode="&#x17a;" horiz-adv-x="845" d="M35 0v92l461 615q35 47 122 151v4h-542v127h731l-2 -100l-455 -610q-57 -76 -119 -148v-4h582v-127h-778zM348 1110l178 289h183l-248 -289h-113z" />
<glyph unicode="&#x17b;" horiz-adv-x="1097" d="M61 0v92l764 1157h-698v131h897v-96l-760 -1153h770v-131h-973zM465 1575q0 37 28.5 66.5t69.5 29.5q39 0 65.5 -29.5t26.5 -66.5t-26.5 -67.5t-67.5 -30.5h-2q-39 0 -66.5 30.5t-27.5 67.5z" />
<glyph unicode="&#x17c;" horiz-adv-x="845" d="M35 0v92l461 615q35 47 122 151v4h-542v127h731l-2 -100l-455 -610q-57 -76 -119 -148v-4h582v-127h-778zM360 1239q0 39 28 67.5t69 28.5q39 0 64.5 -28.5t25.5 -67.5q0 -47 -35 -76q-27 -20 -57 -20q-35 0 -62 22q-33 27 -33 74z" />
<glyph unicode="&#x17d;" horiz-adv-x="1097" d="M61 0v92l764 1157h-698v131h897v-96l-760 -1153h770v-131h-973zM307 1692h133l133 -154h5l131 154h129l-205 -238h-117z" />
<glyph unicode="&#x17e;" horiz-adv-x="845" d="M35 0v92l461 615q16 23 46.5 60.5t75.5 90.5v4h-542v127h731v-100l-457 -610q-29 -39 -58.5 -76t-60.5 -72v-4h582v-127h-778zM203 1399h125l123 -195h4l123 195h120l-190 -289h-111z" />
<glyph unicode="&#x17f;" horiz-adv-x="573" d="M29 868v121h137v49q0 211 92 324t252 113q88 0 149 -31l-24 -121q-55 23 -117 23q-197 0 -196 -304l2 -1042h-158v868h-137z" />
<glyph unicode="&#x18e;" horiz-adv-x="972" d="M156 1251v129h745v-1380h-715v129h559v465h-528v129h528v528h-589z" />
<glyph unicode="&#x192;" horiz-adv-x="1019" d="M14 -135l31 112q51 -25 115 -24q166 0 202 328l50 424h-191v114h205l12 101q51 434 377 434q82 0 135 -31l-30 -115q-55 20 -109 21q-186 0 -221 -299l-12 -111h247v-114h-262l-53 -433q-29 -233 -111 -337.5t-233 -104.5q-92 0 -152 35z" />
<glyph unicode="&#x1a0;" d="M74 678q0 160 46 294t128 229t195.5 148.5t248.5 53.5q57 0 110.5 -10.5t94.5 -24.5q23 -6 51.5 -18.5t58 -24.5t60.5 -21.5t55 -9.5q49 0 68.5 23.5t19.5 68.5q0 35 -8 68t-20 62l123 24q16 -35 25 -74t9 -88q0 -84 -50 -136t-159 -40q72 -80 117 -205.5t45 -291.5 q0 -162 -44 -295.5t-125 -229.5t-194.5 -149.5t-252.5 -53.5q-133 0 -243.5 52.5t-190.5 145.5t-124 221t-44 282zM236 682q0 -121 32.5 -226.5t91 -183t140.5 -123t180 -45.5q100 0 183 45.5t141.5 125t90 187t31.5 234.5q0 123 -32.5 228.5t-91 184.5t-139.5 123t-179 44 q-100 0 -183 -44t-141.5 -123t-91 -188.5t-32.5 -238.5z" />
<glyph unicode="&#x1a1;" horiz-adv-x="1097" d="M78 487q0 115 34.5 211.5t97 165t151 107.5t192.5 39q41 0 81 -6.5t81 -22.5q37 -14 81 -33.5t91 -19.5q80 0 80 84q0 33 -8.5 62.5t-20.5 53.5l123 23q14 -31 22.5 -66.5t8.5 -76.5q0 -80 -46.5 -129.5t-138.5 -40.5q51 -63 79 -148.5t28 -185.5q0 -117 -35 -213 t-98.5 -166t-150.5 -109t-193 -39q-102 0 -186.5 38t-145 106.5t-94 162t-33.5 203.5zM236 492q0 -80 22.5 -152t62 -125t97 -85t125.5 -32t124 31t97 85t64.5 127t23.5 157q0 82 -21.5 154.5t-61.5 124.5t-96.5 83t-125.5 31q-72 0 -129.5 -31t-98 -84t-62 -125.5 t-21.5 -158.5z" />
<glyph unicode="&#x1af;" horiz-adv-x="1345" d="M156 553v827h155v-829q0 -213 84 -329t242 -116q340 0 340 445v829h149q51 0 72 18.5t21 59.5q0 29 -8.5 58.5t-22.5 56.5l125 24q14 -35 23.5 -70.5t9.5 -78.5q0 -78 -52.5 -124t-160.5 -42v-719q0 -283 -130.5 -434.5t-371.5 -151.5q-233 0 -354 147.5t-121 428.5z" />
<glyph unicode="&#x1b0;" horiz-adv-x="1095" d="M145 408v581h156v-553q0 -328 225 -327q51 0 99.5 20.5t84 57t57 86t21.5 104.5v612h130q53 0 72.5 20.5t19.5 59.5q0 57 -33 117l123 18q35 -59 35 -139q0 -86 -54.5 -128t-136.5 -42v-633q0 -66 2 -131t6 -131h-139l-8 162h-6q-102 -184 -322 -185q-158 0 -245 111 t-87 320z" />
<glyph unicode="&#x1c0;" horiz-adv-x="468" d="M174 0v1380h123v-1380h-123z" />
<glyph unicode="&#x1c1;" horiz-adv-x="937" d="M174 0v1380h123v-1380h-123zM643 0v1380h123v-1380h-123z" />
<glyph unicode="&#x1c3;" horiz-adv-x="454" d="M119 94q0 51 30.5 84t77.5 33q49 0 79 -33t30 -84q0 -59 -34 -88t-77 -29q-41 0 -73.5 30t-32.5 87zM139 1380h174l-24 -993h-125z" />
<glyph unicode="&#x1c4;" horiz-adv-x="2420" d="M156 2v1360q88 14 177 21.5t183 7.5q186 0 323.5 -47.5t228.5 -133.5t135 -208.5t44 -276.5q0 -172 -48 -309t-146.5 -232.5t-244.5 -145.5t-343 -50q-92 0 -169 3t-140 11zM311 123q27 -4 72 -6t111 -2q291 0 441 155.5t150 446.5q0 270 -144 409.5t-419 139.5 q-119 0 -211 -19v-1124zM1384 0v92l764 1157h-698v131h897v-96l-760 -1153h770v-131h-973zM1622 1772h125l123 -195h4l123 195h121l-190 -289h-111z" />
<glyph unicode="&#x1c5;" horiz-adv-x="2168" d="M156 2v1360q88 14 177 21.5t183 7.5q186 0 323.5 -47.5t228.5 -133.5t135 -208.5t44 -276.5q0 -172 -48 -309t-146.5 -232.5t-244.5 -145.5t-343 -50q-92 0 -169 3t-140 11zM311 123q27 -4 72 -6t111 -2q291 0 441 155.5t150 446.5q0 270 -144 409.5t-419 139.5 q-119 0 -211 -19v-1124zM1358 0v92l461 615q16 23 46.5 60.5t75.5 90.5v4h-542v127h731v-100l-457 -610q-29 -39 -58.5 -76t-60.5 -72v-4h582v-127h-778zM1499 1385h125l123 -195h4l123 195h121l-190 -289h-111z" />
<glyph unicode="&#x1c6;" horiz-adv-x="1966" d="M78 479q0 117 31.5 214.5t90 168t138.5 109.5t176 39q211 0 295 -154h4v596h156v-1206q0 -66 2 -126.5t6 -119.5h-139v172h-13q-96 -195 -331 -195q-90 0 -166 38t-131.5 104.5t-87 159t-31.5 200.5zM236 489q0 -86 21.5 -156.5t60 -121.5t94 -79t123.5 -28q61 0 112 25 t88 67t57.5 97t20.5 115v182q0 66 -20.5 120t-57.5 94t-87 61.5t-107 21.5q-70 0 -126.5 -30t-96 -82t-61 -126t-21.5 -160zM1155 0v92l461 615q16 23 46.5 60.5t75.5 90.5v4h-542v127h731v-100l-457 -610q-29 -39 -58.5 -76t-60.5 -72v-4h582v-127h-778zM1296 1385h125 l123 -195h4l123 195h121l-190 -289h-111z" />
<glyph unicode="&#x1c7;" horiz-adv-x="1665" d="M156 0v1380h155v-1249h584v-131h-739zM946 8l25 127q63 -25 143 -24q135 0 194.5 80.5t59.5 269.5v919h156v-936q0 -467 -400 -467q-104 0 -178 31z" />
<glyph unicode="&#x1c8;" horiz-adv-x="1411" d="M156 0v1380h155v-1249h584v-131h-739zM844 -305q82 6 134 28.5t80 73.5t38 136t10 214v842h158v-907q0 -135 -27 -232.5t-77 -159t-124.5 -90t-173.5 -30.5zM1079 1286q0 45 30 76t77 31q45 0 75.5 -31t28.5 -76q0 -45 -29.5 -75.5t-78.5 -30.5q-37 0 -70 26.5t-33 79.5z " />
<glyph unicode="&#x1c9;" horiz-adv-x="933" d="M152 0v1452h155v-1452h-155zM367 -305q82 6 134 28.5t80 73.5t38 136t10 214v842h158v-907q0 -135 -27 -232.5t-77 -159t-124.5 -90t-173.5 -30.5zM602 1286q0 45 30 76t77 31q45 0 75.5 -31t28.5 -76q0 -45 -29.5 -75.5t-78.5 -30.5q-37 0 -70 26.5t-33 79.5z" />
<glyph unicode="&#x1ca;" horiz-adv-x="2039" d="M156 0v1380h166l454 -725q147 -238 246 -448l4 2q-18 223 -18 569v602h145v-1380h-154l-450 725q-168 272 -254 459l-6 -2q8 -106 11 -247.5t3 -322.5v-612h-147zM1321 8l25 127q63 -25 143 -24q135 0 194.5 80.5t59.5 269.5v919h156v-936q0 -467 -400 -467 q-104 0 -178 31z" />
<glyph unicode="&#x1cb;" horiz-adv-x="1785" d="M156 0v1380h166l454 -725q147 -238 246 -448l4 2q-18 223 -18 569v602h145v-1380h-154l-450 725q-168 272 -254 459l-6 -2q8 -106 11 -247.5t3 -322.5v-612h-147zM1219 -305q82 6 134 28.5t80 73.5t38 136t10 214v842h158v-907q0 -135 -27 -232.5t-77 -159t-124.5 -90 t-173.5 -30.5zM1454 1286q0 45 30 76t77 31q45 0 75.5 -31t28.5 -76q0 -45 -29.5 -75.5t-78.5 -30.5q-37 0 -70 26.5t-33 79.5z" />
<glyph unicode="&#x1cc;" horiz-adv-x="1581" d="M143 989h140v-164h14q41 82 127 133.5t197 51.5q156 0 248 -111t92 -303v-596h-158v578q0 303 -234 303q-53 0 -101 -21.5t-84 -59.5t-56.5 -89.5t-20.5 -108.5v-602h-155v731q0 59 -2.5 124t-6.5 134zM1014 -305q82 6 134 28.5t80 73.5t38 136t10 214v842h158v-907 q0 -135 -27 -232.5t-77 -159t-124.5 -90t-173.5 -30.5zM1249 1286q0 45 30 76t77 31q45 0 75.5 -31t28.5 -76q0 -45 -29.5 -75.5t-78.5 -30.5q-37 0 -70 26.5t-33 79.5z" />
<glyph unicode="&#x1cd;" horiz-adv-x="1214" d="M53 0l467 1380h180l467 -1380h-163l-152 446h-492l-147 -446h-160zM362 1772h125l123 -195h4l123 195h121l-190 -289h-111zM395 569h424l-139 412q-14 39 -31.5 102.5t-40.5 151.5h-4q-20 -82 -36.5 -144.5t-32.5 -107.5z" />
<glyph unicode="&#x1ce;" horiz-adv-x="956" d="M74 258q0 180 149.5 273.5t433.5 93.5v22q0 244 -227 244q-141 0 -250 -72l-37 107q131 84 310 84q360 0 360 -396v-378q0 -72 3 -130.5t11 -105.5h-141l-14 127h-6q-100 -150 -299 -150q-63 0 -116.5 20.5t-92.5 58.5t-61.5 89.5t-22.5 112.5zM202 1401h125l123 -195h4 l123 195h121l-190 -289h-111zM231 279q0 -92 49.5 -137.5t122.5 -45.5q47 0 93.5 16.5t82 46t58 72.5t22.5 97v184h-30q-397 0 -398 -233z" />
<glyph unicode="&#x1cf;" horiz-adv-x="468" d="M-11 1772h125l123 -195h4l123 195h121l-190 -289h-111zM156 0v1380h155v-1380h-155z" />
<glyph unicode="&#x1d0;" horiz-adv-x="458" d="M-15 1385h125l123 -195h4l123 195h121l-190 -289h-111zM152 0v989h155v-989h-155z" />
<glyph unicode="&#x1d1;" d="M74 678q0 160 46 294t128 229t195.5 148.5t248.5 53.5t247 -51.5t189.5 -143.5t120.5 -220.5t43 -282.5q0 -162 -44 -295.5t-125 -229.5t-194.5 -149.5t-252.5 -53.5q-133 0 -243.5 52.5t-190.5 145.5t-124 221t-44 282zM236 682q0 -121 32.5 -226.5t91 -183t140.5 -123 t180 -45.5q100 0 183 45.5t141.5 125t90 187t31.5 234.5q0 123 -32.5 228.5t-91 184.5t-139.5 123t-179 44q-100 0 -183 -44t-141.5 -123t-91 -188.5t-32.5 -238.5zM434 1794h125l123 -195h4l123 195h121l-190 -289h-111z" />
<glyph unicode="&#x1d2;" horiz-adv-x="1091" d="M78 487q0 115 34.5 211.5t97 165t151 107.5t192.5 39t189 -38t145.5 -104.5t93.5 -159.5t33 -204q0 -117 -35 -213t-98.5 -166t-150.5 -109t-193 -39q-102 0 -186.5 38t-145 106.5t-94 162t-33.5 203.5zM236 492q0 -80 22.5 -152t62 -125t97 -85t125.5 -32t124 31t97 85 t64.5 127t23.5 157q0 82 -21.5 154.5t-61.5 124.5t-96.5 83t-125.5 31q-72 0 -129.5 -31t-98 -84t-62 -125.5t-21.5 -158.5zM297 1401h125l123 -195h4l123 195h121l-190 -289h-111z" />
<glyph unicode="&#x1d3;" horiz-adv-x="1288" d="M156 553v827h155v-829q0 -213 84 -329t242 -116q340 0 340 445v829h156v-817q0 -283 -130.5 -434.5t-371.5 -151.5q-233 0 -354 147.5t-121 428.5zM395 1772h125l123 -195h4l123 195h121l-190 -289h-111z" />
<glyph unicode="&#x1d4;" horiz-adv-x="1095" d="M145 408v581h156v-553q0 -328 225 -327q51 0 99.5 20.5t84 57t57 86t21.5 104.5v612h156v-727q0 -66 2 -131t6 -131h-139v162h-14q-102 -184 -322 -185q-158 0 -245 111t-87 320zM301 1385h125l123 -195h4l123 195h121l-190 -289h-111z" />
<glyph unicode="&#x1d5;" horiz-adv-x="1288" d="M156 553v827h155v-829q0 -213 84 -329t242 -116q340 0 340 445v829h156v-817q0 -283 -130.5 -434.5t-371.5 -151.5q-233 0 -354 147.5t-121 428.5zM369 1579q0 39 27.5 67.5t66.5 28.5t64.5 -28.5t25.5 -67.5q0 -41 -25.5 -68.5t-66.5 -27.5t-66.5 28.5t-25.5 67.5z M420 1778v102h448v-102h-448zM731 1579q0 39 27.5 67.5t66.5 28.5q41 0 67 -28.5t26 -67.5q0 -41 -27 -68.5t-68 -27.5q-39 0 -65.5 28.5t-26.5 67.5z" />
<glyph unicode="&#x1d6;" horiz-adv-x="1095" d="M145 408v581h156v-553q0 -328 225 -327q51 0 99.5 20.5t84 57t57 86t21.5 104.5v612h156v-727q0 -66 2 -131t6 -131h-139v162h-14q-102 -184 -322 -185q-158 0 -245 111t-87 320zM274 1192q0 39 28 67.5t67 28.5t64.5 -28.5t25.5 -67.5q0 -41 -25.5 -68.5t-66.5 -27.5 t-67 28.5t-26 67.5zM326 1386v103h448v-103h-448zM637 1192q0 39 27.5 67.5t66.5 28.5q41 0 66.5 -28.5t25.5 -67.5q0 -41 -26.5 -68.5t-67.5 -27.5q-39 0 -65.5 28.5t-26.5 67.5z" />
<glyph unicode="&#x1d7;" horiz-adv-x="1288" d="M156 553v827h155v-829q0 -213 84 -329t242 -116q340 0 340 445v829h156v-817q0 -283 -130.5 -434.5t-371.5 -151.5q-233 0 -354 147.5t-121 428.5zM369 1579q0 39 27.5 67.5t66.5 28.5t64.5 -28.5t25.5 -67.5q0 -41 -25.5 -68.5t-66.5 -27.5t-66.5 28.5t-25.5 67.5z M559 1778l178 289h183l-248 -289h-113zM731 1579q0 39 28 67.5t66 28.5q41 0 67 -28.5t26 -67.5q0 -41 -27 -68.5t-68 -27.5q-39 0 -65.5 28.5t-26.5 67.5z" />
<glyph unicode="&#x1d8;" horiz-adv-x="1095" d="M145 408v581h156v-553q0 -328 225 -327q51 0 99.5 20.5t84 57t57 86t21.5 104.5v612h156v-727q0 -66 2 -131t6 -131h-139v162h-14q-102 -184 -322 -185q-158 0 -245 111t-87 320zM275 1192q0 39 27.5 67.5t66.5 28.5t64.5 -28.5t25.5 -67.5q0 -41 -25.5 -68.5 t-66.5 -27.5t-66.5 28.5t-25.5 67.5zM473 1386l178 289h183l-248 -289h-113zM637 1192q0 39 28 67.5t66 28.5q41 0 67 -28.5t26 -67.5q0 -41 -27 -68.5t-68 -27.5q-39 0 -65.5 28.5t-26.5 67.5z" />
<glyph unicode="&#x1d9;" horiz-adv-x="1288" d="M156 553v827h155v-829q0 -213 84 -329t242 -116q340 0 340 445v829h156v-817q0 -283 -130.5 -434.5t-371.5 -151.5q-233 0 -354 147.5t-121 428.5zM369 1579q0 39 27.5 67.5t66.5 28.5t64.5 -28.5t25.5 -67.5q0 -41 -25.5 -68.5t-66.5 -27.5t-66.5 28.5t-25.5 67.5z M395 2067h125l123 -195h4l123 195h121l-190 -289h-111zM731 1579q0 39 28 67.5t66 28.5q41 0 67 -28.5t26 -67.5q0 -41 -27 -68.5t-68 -27.5q-39 0 -65.5 28.5t-26.5 67.5z" />
<glyph unicode="&#x1da;" horiz-adv-x="1095" d="M145 408v581h156v-553q0 -328 225 -327q51 0 99.5 20.5t84 57t57 86t21.5 104.5v612h156v-727q0 -66 2 -131t6 -131h-139v162h-14q-102 -184 -322 -185q-158 0 -245 111t-87 320zM275 1192q0 39 27.5 67.5t66.5 28.5t64.5 -28.5t25.5 -67.5q0 -41 -25.5 -68.5 t-66.5 -27.5t-66.5 28.5t-25.5 67.5zM301 1675h125l123 -195h4l123 195h121l-190 -289h-111zM637 1192q0 39 28 67.5t66 28.5q41 0 67 -28.5t26 -67.5q0 -41 -27 -68.5t-68 -27.5q-39 0 -65.5 28.5t-26.5 67.5z" />
<glyph unicode="&#x1db;" horiz-adv-x="1288" d="M156 553v827h155v-829q0 -213 84 -329t242 -116q340 0 340 445v829h156v-817q0 -283 -130.5 -434.5t-371.5 -151.5q-233 0 -354 147.5t-121 428.5zM369 1579q0 39 27.5 67.5t66.5 28.5t64.5 -28.5t25.5 -67.5q0 -41 -25.5 -68.5t-66.5 -27.5t-66.5 28.5t-25.5 67.5z M375 2067h183l178 -289h-113zM731 1579q0 39 28 67.5t66 28.5q41 0 67 -28.5t26 -67.5q0 -41 -27 -68.5t-68 -27.5q-39 0 -65.5 28.5t-26.5 67.5z" />
<glyph unicode="&#x1dc;" horiz-adv-x="1095" d="M145 408v581h156v-553q0 -328 225 -327q51 0 99.5 20.5t84 57t57 86t21.5 104.5v612h156v-727q0 -66 2 -131t6 -131h-139v162h-14q-102 -184 -322 -185q-158 0 -245 111t-87 320zM264 1675h183l178 -289h-113zM275 1192q0 39 27.5 67.5t66.5 28.5t64.5 -28.5t25.5 -67.5 q0 -41 -25.5 -68.5t-66.5 -27.5t-66.5 28.5t-25.5 67.5zM637 1192q0 39 28 67.5t66 28.5q41 0 67 -28.5t26 -67.5q0 -41 -27 -68.5t-68 -27.5q-39 0 -65.5 28.5t-26.5 67.5z" />
<glyph unicode="&#x1dd;" horiz-adv-x="997" d="M78 438q0 49 6 80h686q-4 176 -93 273.5t-249 97.5q-152 0 -266 -51l-29 112q129 61 318 62q111 0 197.5 -36t148 -102.5t93.5 -157.5t32 -202q0 -117 -33 -214t-91.5 -168t-141.5 -110.5t-185 -39.5q-92 0 -165 33.5t-124 94t-77.5 144.5t-26.5 184zM231 403 q0 -141 65.5 -224t188.5 -83q115 0 191 86t90 221h-535z" />
<glyph unicode="&#x1de;" horiz-adv-x="1214" d="M53 0l467 1380h180l467 -1380h-163l-152 446h-492l-147 -446h-160zM336 1579q0 39 27.5 67.5t66.5 28.5t64.5 -28.5t25.5 -67.5q0 -41 -25.5 -68.5t-66.5 -27.5t-66.5 28.5t-25.5 67.5zM387 1778v102h449v-102h-449zM395 569h424l-139 412q-14 39 -31.5 102.5 t-40.5 151.5h-4q-20 -82 -36.5 -144.5t-32.5 -107.5zM698 1579q0 39 28 67.5t67 28.5q41 0 66.5 -28.5t25.5 -67.5q0 -41 -27 -68.5t-67 -27.5q-39 0 -66 28.5t-27 67.5z" />
<glyph unicode="&#x1df;" horiz-adv-x="956" d="M74 258q0 180 149.5 273.5t433.5 93.5v22q0 244 -227 244q-141 0 -250 -72l-37 107q131 84 310 84q360 0 360 -396v-378q0 -72 3 -130.5t11 -105.5h-141l-14 127h-6q-100 -150 -299 -150q-63 0 -116.5 20.5t-92.5 58.5t-61.5 89.5t-22.5 112.5zM176 1212q0 39 27.5 68 t66.5 29t64.5 -29t25.5 -68q0 -41 -25.5 -68.5t-66.5 -27.5t-66.5 29t-25.5 67zM227 1407v102h449v-102h-449zM231 279q0 -92 49.5 -137.5t122.5 -45.5q47 0 93.5 16.5t82 46t58 72.5t22.5 97v184h-30q-397 0 -398 -233zM539 1212q0 39 27.5 68t66.5 29q41 0 66.5 -29 t25.5 -68q0 -41 -26.5 -68.5t-67.5 -27.5q-39 0 -65.5 29t-26.5 67z" />
<glyph unicode="&#x1e0;" horiz-adv-x="1214" d="M53 0l467 1380h180l467 -1380h-163l-152 446h-492l-147 -446h-160zM387 1778v102h449v-102h-449zM395 569h424l-139 412q-14 39 -31.5 102.5t-40.5 151.5h-4q-20 -82 -36.5 -144.5t-32.5 -107.5zM518 1579q0 39 27.5 67.5t68.5 28.5q39 0 65 -28.5t26 -67.5 q0 -41 -28 -68.5t-65 -27.5q-39 0 -66.5 27.5t-27.5 68.5z" />
<glyph unicode="&#x1e1;" horiz-adv-x="956" d="M74 258q0 180 149.5 273.5t433.5 93.5v22q0 244 -227 244q-141 0 -250 -72l-37 107q131 84 310 84q360 0 360 -396v-378q0 -72 3 -130.5t11 -105.5h-141l-14 127h-6q-100 -150 -299 -150q-63 0 -116.5 20.5t-92.5 58.5t-61.5 89.5t-22.5 112.5zM227 1407v102h449v-102 h-449zM231 279q0 -92 49.5 -137.5t122.5 -45.5q47 0 93.5 16.5t82 46t58 72.5t22.5 97v184h-30q-397 0 -398 -233zM358 1212q0 39 28 68t69 29q39 0 64.5 -29t25.5 -68q0 -41 -28 -68.5t-64 -27.5q-39 0 -67 27.5t-28 68.5z" />
<glyph unicode="&#x1e2;" horiz-adv-x="1554" d="M-2 0l625 1380h815v-129h-576l53 -467h504v-129h-485l63 -526h494v-129h-629l-61 502h-416l-227 -502h-160zM436 629h350l-47 409q-4 41 -9 97.5t-13 132.5h-8q-25 -63 -46.5 -119.5t-44.5 -104.5zM520 1483v102h449v-102h-449z" />
<glyph unicode="&#x1e3;" horiz-adv-x="1544" d="M74 256q0 176 151.5 266t436.5 90v45q0 100 -63.5 168t-170.5 68q-145 0 -246 -74l-39 107q135 86 297 86q250 0 312 -215h4q100 215 338 215q86 0 154.5 -35t117.5 -95.5t75.5 -141.5t26.5 -175q0 -49 -6 -76h-655q0 -186 84 -285.5t235 -99.5q145 0 260 56l31 -113 q-127 -68 -311 -67q-129 0 -228.5 59t-140.5 166h-4q-45 -106 -140 -165.5t-220 -59.5q-66 0 -121 20t-95 57t-61.5 88.5t-21.5 110.5zM229 270q0 -80 50.5 -126t126.5 -46q55 0 102 19.5t82 53.5t54.5 79t19.5 98v156h-31q-403 0 -404 -234zM547 1118v103h448v-103h-448z M807 604h508v21q0 55 -17.5 105t-49 87t-75 58.5t-94.5 21.5q-57 0 -105 -22.5t-84 -62.5t-57.5 -93t-25.5 -115z" />
<glyph unicode="&#x1e6;" horiz-adv-x="1282" d="M74 682q0 156 51 287t146.5 225t228.5 147.5t299 53.5q201 0 329 -62l-41 -127q-123 57 -292 58q-127 0 -229.5 -40t-175.5 -114t-112.5 -180.5t-39.5 -239.5q0 -135 37.5 -241.5t106.5 -181t168 -113.5t222 -39q166 0 242 39v434h-283v125h436v-654q-190 -74 -407 -73 q-158 0 -284 48t-216 137t-138 218t-48 293zM536 1786h125l123 -195h4l123 195h121l-190 -289h-111z" />
<glyph unicode="&#x1e7;" horiz-adv-x="1114" d="M78 487q0 244 137 390q123 133 301 133q215 0 305 -172h4l9 151h139q-4 -59 -6 -126.5t-2 -143.5v-576q0 -328 -138 -452q-127 -117 -346 -117q-201 0 -319 80l43 121q125 -78 284 -78q319 0 320 358v117h-4q-96 -170 -313 -170q-180 0 -297 137t-117 348zM236 498 q0 -162 77 -265q80 -109 224 -108q86 0 156.5 50t99.5 142q16 45 16 97v192q0 115 -78 199q-76 82 -192 82q-68 0 -124.5 -28t-96 -79t-61 -122.5t-21.5 -159.5zM276 1401h125l123 -195h4l123 195h121l-190 -289h-111z" />
<glyph unicode="&#x1e8;" horiz-adv-x="1067" d="M156 0v1380h155v-673h6q51 76 111 147l428 526h191l-496 -585l536 -795h-184l-461 690l-131 -151v-539h-155zM276 1772h125l123 -195h4l123 195h121l-190 -289h-111z" />
<glyph unicode="&#x1e9;" horiz-adv-x="919" d="M152 0v1452h155v-924h4q20 29 42 57.5t44 55.5l299 348h189l-379 -409l430 -580h-188l-349 485l-92 -102v-383h-155zM235 1843h125l123 -195h4l123 195h121l-190 -289h-111z" />
<glyph unicode="&#x1ea;" d="M74 678q0 160 46 294t128 229t195.5 148.5t248.5 53.5t247 -51.5t189.5 -143.5t120.5 -220.5t43 -282.5q0 -162 -44 -295.5t-125 -229.5t-194.5 -149.5t-252.5 -53.5q-133 0 -243.5 52.5t-190.5 145.5t-124 221t-44 282zM236 682q0 -121 32.5 -226.5t91 -183t140.5 -123 t180 -45.5q100 0 183 45.5t141.5 125t90 187t31.5 234.5q0 123 -32.5 228.5t-91 184.5t-139.5 123t-179 44q-100 0 -183 -44t-141.5 -123t-91 -188.5t-32.5 -238.5zM430 -264q0 37 18.5 75t47 72.5t64.5 62.5t71 40h102q-86 -47 -139 -109.5t-53 -117.5q0 -92 88 -92 q59 0 100 20l19 -76q-63 -33 -148 -33q-76 0 -123 42t-47 116z" />
<glyph unicode="&#x1eb;" horiz-adv-x="1091" d="M78 487q0 115 34.5 211.5t97 165t151 107.5t192.5 39t189 -38t145.5 -104.5t93.5 -159.5t33 -204q0 -117 -35 -213t-98.5 -166t-150.5 -109t-193 -39q-102 0 -186.5 38t-145 106.5t-94 162t-33.5 203.5zM236 492q0 -80 22.5 -152t62 -125t97 -85t125.5 -32t124 31t97 85 t64.5 127t23.5 157q0 82 -21.5 154.5t-61.5 124.5t-96.5 83t-125.5 31q-72 0 -129.5 -31t-98 -84t-62 -125.5t-21.5 -158.5zM284 -264q0 37 18.5 75t47 72.5t64.5 62.5t71 40h102q-86 -47 -139 -109.5t-53 -117.5q0 -92 88 -92q59 0 100 20l19 -76q-63 -33 -148 -33 q-76 0 -123 42t-47 116z" />
<glyph unicode="&#x1ec;" d="M74 678q0 160 46 294t128 229t195.5 148.5t248.5 53.5t247 -51.5t189.5 -143.5t120.5 -220.5t43 -282.5q0 -162 -44 -295.5t-125 -229.5t-194.5 -149.5t-252.5 -53.5q-133 0 -243.5 52.5t-190.5 145.5t-124 221t-44 282zM236 682q0 -121 32.5 -226.5t91 -183t140.5 -123 t180 -45.5q100 0 183 45.5t141.5 125t90 187t31.5 234.5q0 123 -32.5 228.5t-91 184.5t-139.5 123t-179 44q-100 0 -183 -44t-141.5 -123t-91 -188.5t-32.5 -238.5zM453 -262q0 37 18 74.5t47 72.5t64.5 62.5t70.5 40.5h103q-86 -47 -139.5 -109.5t-53.5 -118.5 q0 -92 88 -92q59 0 101 21l18 -76q-63 -33 -147 -33q-76 0 -123 42t-47 116zM459 1505v103h448v-103h-448z" />
<glyph unicode="&#x1ed;" horiz-adv-x="1091" d="M78 487q0 115 34.5 211.5t97 165t151 107.5t192.5 39t189 -38t145.5 -104.5t93.5 -159.5t33 -204q0 -117 -35 -213t-98.5 -166t-150.5 -109t-193 -39q-102 0 -186.5 38t-145 106.5t-94 162t-33.5 203.5zM236 492q0 -80 22.5 -152t62 -125t97 -85t125.5 -32t124 31t97 85 t64.5 127t23.5 157q0 82 -21.5 154.5t-61.5 124.5t-96.5 83t-125.5 31q-72 0 -129.5 -31t-98 -84t-62 -125.5t-21.5 -158.5zM285 -264q0 37 18.5 74.5t47 72.5t64.5 62.5t70 40.5h103q-86 -47 -139.5 -109.5t-53.5 -118.5q0 -92 88 -92q59 0 101 21l18 -76q-63 -33 -147 -33 q-76 0 -123 42t-47 116zM322 1116v103h448v-103h-448z" />
<glyph unicode="&#x1f0;" horiz-adv-x="475" d="M-92 -305q82 6 134 28.5t80 73.5t38 136t10 214v842h158v-907q0 -135 -27 -232.5t-77 -159t-124.5 -90t-173.5 -30.5zM-9 1381h125l123 -195h4l123 195h121l-190 -289h-111z" />
<glyph unicode="&#x1f1;" horiz-adv-x="2420" d="M156 2v1360q88 14 177 21.5t183 7.5q186 0 323.5 -47.5t228.5 -133.5t135 -208.5t44 -276.5q0 -172 -48 -309t-146.5 -232.5t-244.5 -145.5t-343 -50q-92 0 -169 3t-140 11zM311 123q27 -4 72 -6t111 -2q291 0 441 155.5t150 446.5q0 270 -144 409.5t-419 139.5 q-119 0 -211 -19v-1124zM1384 0v92l764 1157h-698v131h897v-96l-760 -1153h770v-131h-973z" />
<glyph unicode="&#x1f2;" horiz-adv-x="2168" d="M156 2v1360q88 14 177 21.5t183 7.5q186 0 323.5 -47.5t228.5 -133.5t135 -208.5t44 -276.5q0 -172 -48 -309t-146.5 -232.5t-244.5 -145.5t-343 -50q-92 0 -169 3t-140 11zM311 123q27 -4 72 -6t111 -2q291 0 441 155.5t150 446.5q0 270 -144 409.5t-419 139.5 q-119 0 -211 -19v-1124zM1358 0v92l461 615q16 23 46.5 60.5t75.5 90.5v4h-542v127h731v-100l-457 -610q-29 -39 -58.5 -76t-60.5 -72v-4h582v-127h-778z" />
<glyph unicode="&#x1f3;" horiz-adv-x="1966" d="M78 479q0 117 31.5 214.5t90 168t138.5 109.5t176 39q211 0 295 -154h4v596h156v-1206q0 -66 2 -126.5t6 -119.5h-139v172h-13q-96 -195 -331 -195q-90 0 -166 38t-131.5 104.5t-87 159t-31.5 200.5zM236 489q0 -86 21.5 -156.5t60 -121.5t94 -79t123.5 -28q61 0 112 25 t88 67t57.5 97t20.5 115v182q0 66 -20.5 120t-57.5 94t-87 61.5t-107 21.5q-70 0 -126.5 -30t-96 -82t-61 -126t-21.5 -160zM1155 0v92l461 615q16 23 46.5 60.5t75.5 90.5v4h-542v127h731v-100l-457 -610q-29 -39 -58.5 -76t-60.5 -72v-4h582v-127h-778z" />
<glyph unicode="&#x1f4;" horiz-adv-x="1282" d="M74 682q0 156 51 287t146.5 225t228.5 147.5t299 53.5q201 0 329 -62l-41 -127q-123 57 -292 58q-127 0 -229.5 -40t-175.5 -114t-112.5 -180.5t-39.5 -239.5q0 -135 37.5 -241.5t106.5 -181t168 -113.5t222 -39q166 0 242 39v434h-283v125h436v-654q-190 -74 -407 -73 q-158 0 -284 48t-216 137t-138 218t-48 293zM692 1497l178 289h183l-248 -289h-113z" />
<glyph unicode="&#x1f5;" horiz-adv-x="1114" d="M78 487q0 244 137 390q123 133 301 133q215 0 305 -172h4l9 151h139q-4 -59 -6 -126.5t-2 -143.5v-576q0 -328 -138 -452q-127 -117 -346 -117q-201 0 -319 80l43 121q125 -78 284 -78q319 0 320 358v117h-4q-96 -170 -313 -170q-180 0 -297 137t-117 348zM236 498 q0 -162 77 -265q80 -109 224 -108q86 0 156.5 50t99.5 142q16 45 16 97v192q0 115 -78 199q-76 82 -192 82q-68 0 -124.5 -28t-96 -79t-61 -122.5t-21.5 -159.5zM457 1112l178 289h183l-248 -289h-113z" />
<glyph unicode="&#x1f8;" horiz-adv-x="1310" d="M156 0v1380h166l454 -725q147 -238 246 -448l4 2q-18 223 -18 569v602h145v-1380h-154l-450 725q-168 272 -254 459l-6 -2q8 -106 11 -247.5t3 -322.5v-612h-147zM395 1772h183l178 -289h-113z" />
<glyph unicode="&#x1f9;" horiz-adv-x="1105" d="M143 989h140v-164h14q41 82 127 133.5t197 51.5q156 0 248 -111t92 -303v-596h-158v578q0 303 -234 303q-53 0 -101 -21.5t-84 -59.5t-56.5 -89.5t-20.5 -108.5v-602h-155v731q0 59 -2.5 124t-6.5 134zM305 1401h183l178 -289h-113z" />
<glyph unicode="&#x1fa;" horiz-adv-x="1214" d="M53 0l467 1380h180l467 -1380h-163l-152 446h-492l-147 -446h-160zM395 569h424l-139 412q-14 39 -31.5 102.5t-40.5 151.5h-4q-20 -82 -36.5 -144.5t-32.5 -107.5zM416 1677q0 82 57.5 139.5t139.5 57.5q39 0 74.5 -15.5t62 -42t42 -62.5t15.5 -77t-15.5 -75.5 t-42 -61.5t-62 -42t-74.5 -15q-41 0 -77 15t-62.5 42t-42 61.5t-15.5 75.5zM502 1677q0 -45 33 -76.5t78 -31.5t76.5 31.5t31.5 76.5q0 47 -31.5 79t-76.5 32t-78 -32t-33 -79zM526 1976l178 289h183l-248 -289h-113z" />
<glyph unicode="&#x1fb;" horiz-adv-x="956" d="M74 258q0 180 149.5 273.5t433.5 93.5v22q0 244 -227 244q-141 0 -250 -72l-37 107q131 84 310 84q360 0 360 -396v-378q0 -72 3 -130.5t11 -105.5h-141l-14 127h-6q-100 -150 -299 -150q-63 0 -116.5 20.5t-92.5 58.5t-61.5 89.5t-22.5 112.5zM231 279 q0 -92 49.5 -137.5t122.5 -45.5q47 0 93.5 16.5t82 46t58 72.5t22.5 97v184h-30q-397 0 -398 -233zM256 1306q0 82 57.5 139.5t139.5 57.5q39 0 74.5 -15.5t62 -42t42 -62.5t15.5 -77t-15.5 -75.5t-42 -61.5t-62 -42t-74.5 -15q-41 0 -77 15t-62.5 42t-42 61.5t-15.5 75.5z M342 1306q0 -45 33 -76.5t78 -31.5t76.5 31.5t31.5 76.5q0 47 -31.5 79t-76.5 32t-78 -32t-33 -79zM397 1606l178 289h183l-248 -289h-113z" />
<glyph unicode="&#x1fc;" horiz-adv-x="1554" d="M-2 0l625 1380h815v-129h-576l53 -467h504v-129h-485l63 -526h494v-129h-629l-61 502h-416l-227 -502h-160zM436 629h350l-47 409q-4 41 -9 97.5t-13 132.5h-8q-25 -63 -46.5 -119.5t-44.5 -104.5zM727 1483l178 289h183l-248 -289h-113z" />
<glyph unicode="&#x1fd;" horiz-adv-x="1544" d="M74 256q0 176 151.5 266t436.5 90v45q0 100 -63.5 168t-170.5 68q-145 0 -246 -74l-39 107q135 86 297 86q250 0 312 -215h4q100 215 338 215q86 0 154.5 -35t117.5 -95.5t75.5 -141.5t26.5 -175q0 -49 -6 -76h-655q0 -186 84 -285.5t235 -99.5q145 0 260 56l31 -113 q-127 -68 -311 -67q-129 0 -228.5 59t-140.5 166h-4q-45 -106 -140 -165.5t-220 -59.5q-66 0 -121 20t-95 57t-61.5 88.5t-21.5 110.5zM229 270q0 -80 50.5 -126t126.5 -46q55 0 102 19.5t82 53.5t54.5 79t19.5 98v156h-31q-403 0 -404 -234zM694 1114l178 289h183 l-248 -289h-113zM807 604h508v21q0 55 -17.5 105t-49 87t-75 58.5t-94.5 21.5q-57 0 -105 -22.5t-84 -62.5t-57.5 -93t-25.5 -115z" />
<glyph unicode="&#x1fe;" d="M74 682q0 160 46 292t127 227t194.5 148.5t248.5 53.5q197 0 340 -113l119 164l96 -63l-125 -179q172 -195 172 -510q0 -164 -44 -297t-124 -228t-191.5 -147.5t-246.5 -52.5q-201 0 -348 117l-125 -172l-90 68l127 182q-176 195 -176 510zM233 692q0 -207 105 -387l4 2 l612 867q-119 102 -268 102q-102 0 -185 -45t-142.5 -123t-92.5 -184.5t-33 -231.5zM416 211q106 -106 268 -107q100 0 182 44.5t141.5 123t92.5 187t33 237.5q0 215 -101 377l-6 2zM575 1556l178 289h183l-248 -289h-113z" />
<glyph unicode="&#x1ff;" horiz-adv-x="1091" d="M78 487q0 117 34.5 213.5t97 165t149.5 106.5t190 38h2q137 0 246 -72l82 119l75 -51l-84 -127q144 -144 144 -377q0 -117 -35 -213t-97.5 -166t-148.5 -108t-188 -38q-141 0 -248 72l-86 -121l-70 58l84 120q-147 143 -147 381zM233 492q0 -154 76 -261l4 -2l414 598 q-70 63 -180 64q-72 0 -129.5 -30t-98 -83t-63.5 -126.5t-23 -159.5zM371 160q70 -61 172 -62q70 0 129 31t101 84t65.5 127t23.5 158q0 145 -74 254l-4 2zM467 1159l178 289h183l-248 -289h-113z" />
<glyph unicode="&#x200;" horiz-adv-x="1214" d="M53 0l467 1380h180l467 -1380h-163l-152 446h-492l-147 -446h-160zM305 1757h162l168 -275h-101zM395 569h424l-139 412q-14 39 -31.5 102.5t-40.5 151.5h-4q-20 -82 -36.5 -144.5t-32.5 -107.5zM588 1757h161l166 -275h-98z" />
<glyph unicode="&#x201;" horiz-adv-x="956" d="M74 258q0 180 149.5 273.5t433.5 93.5v22q0 244 -227 244q-141 0 -250 -72l-37 107q131 84 310 84q360 0 360 -396v-378q0 -72 3 -130.5t11 -105.5h-141l-14 127h-6q-100 -150 -299 -150q-63 0 -116.5 20.5t-92.5 58.5t-61.5 89.5t-22.5 112.5zM145 1387h162l168 -275 h-101zM231 279q0 -92 49.5 -137.5t122.5 -45.5q47 0 93.5 16.5t82 46t58 72.5t22.5 97v184h-30q-397 0 -398 -233zM428 1387h161l166 -275h-98z" />
<glyph unicode="&#x202;" horiz-adv-x="1214" d="M53 0l467 1380h180l467 -1380h-163l-152 446h-492l-147 -446h-160zM369 1483q0 111 64.5 175.5t176.5 64.5q111 0 176.5 -64.5t65.5 -175.5h-94q-4 59 -45 101t-103 42q-127 0 -147 -143h-94zM395 569h424l-139 412q-14 39 -31.5 102.5t-40.5 151.5h-4 q-20 -82 -36.5 -144.5t-32.5 -107.5z" />
<glyph unicode="&#x203;" horiz-adv-x="956" d="M74 258q0 180 149.5 273.5t433.5 93.5v22q0 244 -227 244q-141 0 -250 -72l-37 107q131 84 310 84q360 0 360 -396v-378q0 -72 3 -130.5t11 -105.5h-141l-14 127h-6q-100 -150 -299 -150q-63 0 -116.5 20.5t-92.5 58.5t-61.5 89.5t-22.5 112.5zM209 1112 q0 111 64.5 175.5t176.5 64.5q111 0 176.5 -64.5t65.5 -175.5h-94q-4 59 -45 101t-103 42q-127 0 -147 -143h-94zM231 279q0 -92 49.5 -137.5t122.5 -45.5q47 0 93.5 16.5t82 46t58 72.5t22.5 97v184h-30q-397 0 -398 -233z" />
<glyph unicode="&#x204;" horiz-adv-x="972" d="M156 0v1380h714v-129h-559v-465h529v-129h-529v-528h590v-129h-745zM223 1757h162l168 -275h-101zM506 1757h161l166 -275h-98z" />
<glyph unicode="&#x205;" horiz-adv-x="997" d="M78 479q0 117 32.5 214.5t91 168t141.5 110.5t185 40q92 0 165 -34t124 -94.5t78 -144.5t27 -184q0 -49 -7 -80h-686q4 -176 93.5 -273.5t248.5 -97.5q152 0 267 52l28 -113q-129 -61 -317 -61q-111 0 -198 35.5t-148.5 102t-93 158t-31.5 201.5zM194 1389h162l168 -275 h-101zM233 590h535q0 141 -65.5 224t-188.5 83q-115 0 -190.5 -86t-90.5 -221zM477 1389h161l166 -275h-98z" />
<glyph unicode="&#x206;" horiz-adv-x="972" d="M156 0v1380h714v-129h-559v-465h529v-129h-529v-528h590v-129h-745zM287 1483q0 111 64.5 175.5t176.5 64.5q111 0 176.5 -64.5t65.5 -175.5h-94q-4 59 -45 101t-103 42q-127 0 -147 -143h-94z" />
<glyph unicode="&#x207;" horiz-adv-x="997" d="M78 479q0 117 32.5 214.5t91 168t141.5 110.5t185 40q92 0 165 -34t124 -94.5t78 -144.5t27 -184q0 -49 -7 -80h-686q4 -176 93.5 -273.5t248.5 -97.5q152 0 267 52l28 -113q-129 -61 -317 -61q-111 0 -198 35.5t-148.5 102t-93 158t-31.5 201.5zM233 590h535 q0 141 -65.5 224t-188.5 83q-115 0 -190.5 -86t-90.5 -221zM258 1114q0 111 64.5 175.5t176.5 64.5q111 0 176.5 -64.5t65.5 -175.5h-94q-4 59 -45 101t-103 42q-127 0 -147 -143h-94z" />
<glyph unicode="&#x208;" horiz-adv-x="468" d="M-72 1757h162l168 -275h-101zM156 0v1380h155v-1380h-155zM211 1757h161l166 -275h-98z" />
<glyph unicode="&#x209;" horiz-adv-x="458" d="M-76 1366h162l168 -275h-101zM152 0v989h155v-989h-155zM207 1366h161l166 -275h-98z" />
<glyph unicode="&#x20a;" horiz-adv-x="468" d="M-8 1483q0 111 64.5 175.5t176.5 64.5q111 0 176.5 -64.5t65.5 -175.5h-94q-4 59 -45 101t-103 42q-127 0 -147 -143h-94zM156 0v1380h155v-1380h-155z" />
<glyph unicode="&#x20b;" horiz-adv-x="458" d="M-12 1092q0 111 64.5 175.5t176.5 64.5q111 0 176.5 -64.5t65.5 -175.5h-94q-4 59 -45 101t-103 42q-127 0 -147 -143h-94zM152 0v989h155v-989h-155z" />
<glyph unicode="&#x20c;" d="M74 678q0 160 46 294t128 229t195.5 148.5t248.5 53.5t247 -51.5t189.5 -143.5t120.5 -220.5t43 -282.5q0 -162 -44 -295.5t-125 -229.5t-194.5 -149.5t-252.5 -53.5q-133 0 -243.5 52.5t-190.5 145.5t-124 221t-44 282zM236 682q0 -121 32.5 -226.5t91 -183t140.5 -123 t180 -45.5q100 0 183 45.5t141.5 125t90 187t31.5 234.5q0 123 -32.5 228.5t-91 184.5t-139.5 123t-179 44q-100 0 -183 -44t-141.5 -123t-91 -188.5t-32.5 -238.5zM377 1780h162l168 -275h-101zM660 1780h161l166 -275h-98z" />
<glyph unicode="&#x20d;" horiz-adv-x="1091" d="M78 487q0 115 34.5 211.5t97 165t151 107.5t192.5 39t189 -38t145.5 -104.5t93.5 -159.5t33 -204q0 -117 -35 -213t-98.5 -166t-150.5 -109t-193 -39q-102 0 -186.5 38t-145 106.5t-94 162t-33.5 203.5zM236 492q0 -80 22.5 -152t62 -125t97 -85t125.5 -32t124 31t97 85 t64.5 127t23.5 157q0 82 -21.5 154.5t-61.5 124.5t-96.5 83t-125.5 31q-72 0 -129.5 -31t-98 -84t-62 -125.5t-21.5 -158.5zM240 1387h162l168 -275h-101zM523 1387h161l166 -275h-98z" />
<glyph unicode="&#x20e;" d="M74 678q0 160 46 294t128 229t195.5 148.5t248.5 53.5t247 -51.5t189.5 -143.5t120.5 -220.5t43 -282.5q0 -162 -44 -295.5t-125 -229.5t-194.5 -149.5t-252.5 -53.5q-133 0 -243.5 52.5t-190.5 145.5t-124 221t-44 282zM236 682q0 -121 32.5 -226.5t91 -183t140.5 -123 t180 -45.5q100 0 183 45.5t141.5 125t90 187t31.5 234.5q0 123 -32.5 228.5t-91 184.5t-139.5 123t-179 44q-100 0 -183 -44t-141.5 -123t-91 -188.5t-32.5 -238.5zM441 1505q0 111 64.5 175.5t176.5 64.5q111 0 176.5 -64.5t65.5 -175.5h-94q-4 59 -45 101t-103 42 q-127 0 -147 -143h-94z" />
<glyph unicode="&#x20f;" horiz-adv-x="1091" d="M78 487q0 115 34.5 211.5t97 165t151 107.5t192.5 39t189 -38t145.5 -104.5t93.5 -159.5t33 -204q0 -117 -35 -213t-98.5 -166t-150.5 -109t-193 -39q-102 0 -186.5 38t-145 106.5t-94 162t-33.5 203.5zM236 492q0 -80 22.5 -152t62 -125t97 -85t125.5 -32t124 31t97 85 t64.5 127t23.5 157q0 82 -21.5 154.5t-61.5 124.5t-96.5 83t-125.5 31q-72 0 -129.5 -31t-98 -84t-62 -125.5t-21.5 -158.5zM304 1112q0 111 64.5 175.5t176.5 64.5q111 0 176.5 -64.5t65.5 -175.5h-94q-4 59 -45 101t-103 42q-127 0 -147 -143h-94z" />
<glyph unicode="&#x210;" horiz-adv-x="1064" d="M156 0v1362q143 29 323 29q238 0 364 -93.5t126 -277.5q0 -266 -260 -354v-7q154 -53 204 -284q70 -311 105 -375h-162q-29 53 -88 332q-33 147 -96.5 211.5t-186.5 64.5h-174v-608h-155zM280 1768h162l168 -275h-101zM311 727h185q147 0 232 74.5t85 197.5 q0 268 -326 269q-119 0 -176 -15v-526zM563 1768h161l166 -275h-98z" />
<glyph unicode="&#x211;" horiz-adv-x="641" d="M74 1387h162l168 -275h-101zM145 989h138v-194h12q35 98 107.5 156.5t164.5 58.5q14 0 25.5 -1t21.5 -3v-148q-12 2 -26.5 3t-30.5 1q-55 0 -101 -24.5t-79 -67.5t-51.5 -103.5t-18.5 -131.5v-535h-155v688q0 76 -1 150.5t-6 150.5zM357 1387h161l166 -275h-98z" />
<glyph unicode="&#x212;" horiz-adv-x="1064" d="M156 0v1362q143 29 323 29q238 0 364 -93.5t126 -277.5q0 -266 -260 -354v-7q154 -53 204 -284q70 -311 105 -375h-162q-29 53 -88 332q-33 147 -96.5 211.5t-186.5 64.5h-174v-608h-155zM311 727h185q147 0 232 74.5t85 197.5q0 268 -326 269q-119 0 -176 -15v-526z M344 1493q0 111 64.5 175.5t176.5 64.5q111 0 176.5 -64.5t65.5 -175.5h-94q-4 59 -45 101t-103 42q-127 0 -147 -143h-94z" />
<glyph unicode="&#x213;" horiz-adv-x="641" d="M138 1112q0 111 64.5 175.5t176.5 64.5q111 0 176.5 -64.5t65.5 -175.5h-94q-4 59 -45 101t-103 42q-127 0 -147 -143h-94zM145 989h138v-194h12q35 98 107.5 156.5t164.5 58.5q14 0 25.5 -1t21.5 -3v-148q-12 2 -26.5 3t-30.5 1q-55 0 -101 -24.5t-79 -67.5 t-51.5 -103.5t-18.5 -131.5v-535h-155v688q0 76 -1 150.5t-6 150.5z" />
<glyph unicode="&#x214;" horiz-adv-x="1288" d="M156 553v827h155v-829q0 -213 84 -329t242 -116q340 0 340 445v829h156v-817q0 -283 -130.5 -434.5t-371.5 -151.5q-233 0 -354 147.5t-121 428.5zM338 1757h162l168 -275h-101zM621 1757h161l166 -275h-98z" />
<glyph unicode="&#x215;" horiz-adv-x="1095" d="M145 408v581h156v-553q0 -328 225 -327q51 0 99.5 20.5t84 57t57 86t21.5 104.5v612h156v-727q0 -66 2 -131t6 -131h-139v162h-14q-102 -184 -322 -185q-158 0 -245 111t-87 320zM244 1366h162l168 -275h-101zM527 1366h161l166 -275h-98z" />
<glyph unicode="&#x216;" horiz-adv-x="1288" d="M156 553v827h155v-829q0 -213 84 -329t242 -116q340 0 340 445v829h156v-817q0 -283 -130.5 -434.5t-371.5 -151.5q-233 0 -354 147.5t-121 428.5zM402 1483q0 111 64.5 175.5t176.5 64.5q111 0 176.5 -64.5t65.5 -175.5h-94q-4 59 -45 101t-103 42q-127 0 -147 -143h-94 z" />
<glyph unicode="&#x217;" horiz-adv-x="1095" d="M145 408v581h156v-553q0 -328 225 -327q51 0 99.5 20.5t84 57t57 86t21.5 104.5v612h156v-727q0 -66 2 -131t6 -131h-139v162h-14q-102 -184 -322 -185q-158 0 -245 111t-87 320zM308 1092q0 111 64.5 175.5t176.5 64.5q111 0 176.5 -64.5t65.5 -175.5h-94q-4 59 -45 101 t-103 42q-127 0 -147 -143h-94z" />
<glyph unicode="&#x218;" horiz-adv-x="974" d="M84 68l43 129q137 -86 305 -86q141 0 219 67.5t78 179.5q0 104 -60.5 169t-199.5 118q-354 133 -354 389q0 80 31.5 147.5t89 117t136.5 76t171 26.5q178 0 291 -66l-48 -127q-100 63 -249 64q-119 0 -193 -59.5t-74 -157.5q0 -47 13.5 -84t44 -70t83 -62.5t132.5 -62.5 q92 -37 157.5 -79t107.5 -91t60.5 -107t18.5 -128q0 -88 -33 -161t-93.5 -124t-146.5 -78.5t-192 -27.5q-213 0 -338 88zM342 -412q61 10 108.5 42t47.5 95q0 35 -20.5 68t-49.5 55l119 29q31 -20 56.5 -60t25.5 -88q0 -55 -22.5 -95t-59.5 -66.5t-82 -40t-90 -15.5z" />
<glyph unicode="&#x219;" horiz-adv-x="784" d="M80 47l41 121q109 -70 229 -70q92 0 145.5 43t53.5 115q0 68 -42 111t-145 84q-254 100 -253 276q0 61 23.5 112.5t65.5 89.5t102 59.5t134 21.5q137 0 234 -60l-43 -116q-88 57 -197 57q-80 0 -125 -41t-45 -102q0 -29 9 -52.5t30.5 -44t57.5 -41t91 -41.5 q254 -100 254 -297q0 -135 -94 -213.5t-260 -78.5q-154 0 -266 67zM246 -412q61 10 108.5 42t47.5 95q0 35 -20.5 68t-49.5 55l119 29q31 -20 56.5 -60t25.5 -88q0 -55 -22.5 -95t-59.5 -66.5t-82 -40t-90 -15.5z" />
<glyph unicode="&#x21a;" horiz-adv-x="980" d="M-4 1249v131h991v-131h-420v-1249h-155v1249h-416zM348 -391q61 10 108.5 42t47.5 95q0 35 -20.5 68t-49.5 55l119 29q31 -20 56.5 -60t25.5 -88q0 -55 -22.5 -95t-59.5 -66.5t-82 -40t-90 -15.5z" />
<glyph unicode="&#x21b;" horiz-adv-x="655" d="M35 868v121h155v180l154 52v-232h260v-121h-260v-565q0 -195 135 -194q63 0 105 14l8 -121q-61 -23 -150 -22q-123 0 -187.5 74.5t-64.5 248.5v565h-155zM176 -412q61 10 108.5 42t47.5 95q0 35 -20.5 68t-49.5 55l119 29q31 -20 56.5 -60t25.5 -88q0 -55 -22.5 -95 t-59.5 -66.5t-82 -40t-90 -15.5z" />
<glyph unicode="&#x21e;" horiz-adv-x="1296" d="M156 0v1380h155v-587h674v587h156v-1380h-156v659h-674v-659h-155zM399 1772h125l123 -195h4l123 195h121l-190 -289h-111z" />
<glyph unicode="&#x21f;" horiz-adv-x="1105" d="M152 0v1452h155v-621h4q47 82 132 130.5t180 48.5q154 0 246 -109.5t92 -304.5v-596h-158v578q0 303 -234 303q-53 0 -100 -22.5t-83 -60.5t-57.5 -88.5t-21.5 -107.5v-602h-155zM217 1843h125l123 -195h4l123 195h121l-190 -289h-111z" />
<glyph unicode="&#x226;" horiz-adv-x="1214" d="M53 0l467 1380h180l467 -1380h-163l-152 446h-492l-147 -446h-160zM395 569h424l-139 412q-14 39 -31.5 102.5t-40.5 151.5h-4q-20 -82 -36.5 -144.5t-32.5 -107.5zM518 1579q0 39 27.5 67.5t68.5 28.5q39 0 64.5 -28.5t25.5 -67.5q0 -41 -27.5 -68.5t-64.5 -27.5 q-39 0 -66.5 27.5t-27.5 68.5z" />
<glyph unicode="&#x227;" horiz-adv-x="956" d="M74 258q0 180 149.5 273.5t433.5 93.5v22q0 244 -227 244q-141 0 -250 -72l-37 107q131 84 310 84q360 0 360 -396v-378q0 -72 3 -130.5t11 -105.5h-141l-14 127h-6q-100 -150 -299 -150q-63 0 -116.5 20.5t-92.5 58.5t-61.5 89.5t-22.5 112.5zM231 279 q0 -92 49.5 -137.5t122.5 -45.5q47 0 93.5 16.5t82 46t58 72.5t22.5 97v184h-30q-397 0 -398 -233zM359 1212q0 39 27.5 67.5t68.5 28.5q39 0 64.5 -28.5t25.5 -67.5q0 -41 -27.5 -68.5t-64.5 -27.5q-39 0 -66.5 27.5t-27.5 68.5z" />
<glyph unicode="&#x228;" horiz-adv-x="972" d="M156 0v1380h714v-129h-559v-465h529v-129h-529v-528h590v-129h-745zM359 -373l28 82q53 -29 111 -28q90 0 90 65q0 37 -41 58.5t-119 29.5l99 170h100l-70 -108q59 -8 101.5 -46.5t42.5 -95.5q0 -164 -207 -164q-78 0 -135 37z" />
<glyph unicode="&#x229;" horiz-adv-x="997" d="M78 479q0 117 32.5 214.5t91 168t141.5 110.5t185 40q92 0 165 -34t124 -94.5t78 -144.5t27 -184q0 -49 -7 -80h-686q4 -176 93.5 -273.5t248.5 -97.5q152 0 267 52l28 -113q-129 -61 -317 -61q-111 0 -198 35.5t-148.5 102t-93 158t-31.5 201.5zM233 590h535 q0 141 -65.5 224t-188.5 83q-115 0 -190.5 -86t-90.5 -221zM330 -391l28 82q53 -29 111 -28q90 0 90 65q0 37 -41 58.5t-119 29.5l99 170h100l-70 -108q59 -8 101.5 -46.5t42.5 -95.5q0 -164 -207 -164q-78 0 -135 37z" />
<glyph unicode="&#x22a;" d="M74 678q0 160 46 294t128 229t195.5 148.5t248.5 53.5t247 -51.5t189.5 -143.5t120.5 -220.5t43 -282.5q0 -162 -44 -295.5t-125 -229.5t-194.5 -149.5t-252.5 -53.5q-133 0 -243.5 52.5t-190.5 145.5t-124 221t-44 282zM236 682q0 -121 32.5 -226.5t91 -183t140.5 -123 t180 -45.5q100 0 183 45.5t141.5 125t90 187t31.5 234.5q0 123 -32.5 228.5t-91 184.5t-139.5 123t-179 44q-100 0 -183 -44t-141.5 -123t-91 -188.5t-32.5 -238.5zM408 1602q0 39 27.5 67.5t66.5 28.5t64.5 -28.5t25.5 -67.5q0 -41 -25.5 -69t-66.5 -28t-66.5 29t-25.5 68z M459 1800v103h448v-103h-448zM770 1602q0 39 27.5 67.5t66.5 28.5q41 0 66.5 -28.5t25.5 -67.5q0 -41 -26.5 -69t-67.5 -28q-39 0 -65.5 29t-26.5 68z" />
<glyph unicode="&#x22b;" horiz-adv-x="1091" d="M78 487q0 115 34.5 211.5t97 165t151 107.5t192.5 39t189 -38t145.5 -104.5t93.5 -159.5t33 -204q0 -117 -35 -213t-98.5 -166t-150.5 -109t-193 -39q-102 0 -186.5 38t-145 106.5t-94 162t-33.5 203.5zM236 492q0 -80 22.5 -152t62 -125t97 -85t125.5 -32t124 31t97 85 t64.5 127t23.5 157q0 82 -21.5 154.5t-61.5 124.5t-96.5 83t-125.5 31q-72 0 -129.5 -31t-98 -84t-62 -125.5t-21.5 -158.5zM270 1212q0 39 28 68t67 29t64.5 -29t25.5 -68q0 -41 -26 -68.5t-67 -27.5t-66.5 29t-25.5 67zM322 1407v102h448v-102h-448zM633 1212 q0 39 27.5 68t66.5 29q41 0 66.5 -29t25.5 -68q0 -41 -26.5 -68.5t-67.5 -27.5q-39 0 -65.5 29t-26.5 67z" />
<glyph unicode="&#x22c;" d="M74 678q0 160 46 294t128 229t195.5 148.5t248.5 53.5t247 -51.5t189.5 -143.5t120.5 -220.5t43 -282.5q0 -162 -44 -295.5t-125 -229.5t-194.5 -149.5t-252.5 -53.5q-133 0 -243.5 52.5t-190.5 145.5t-124 221t-44 282zM236 682q0 -121 32.5 -226.5t91 -183t140.5 -123 t180 -45.5q100 0 183 45.5t141.5 125t90 187t31.5 234.5q0 123 -32.5 228.5t-91 184.5t-139.5 123t-179 44q-100 0 -183 -44t-141.5 -123t-91 -188.5t-32.5 -238.5zM440 1505q0 86 33 140.5t96 54.5q14 0 45 -12.5t66 -27.5t66.5 -27.5t44.5 -12.5q47 0 53 86h80 q0 -186 -131 -186q-18 0 -49 12t-64 26.5t-60.5 26.5t-39.5 12q-47 0 -56 -92h-84zM459 1808v103h448v-103h-448z" />
<glyph unicode="&#x22d;" horiz-adv-x="1091" d="M78 487q0 115 34.5 211.5t97 165t151 107.5t192.5 39t189 -38t145.5 -104.5t93.5 -159.5t33 -204q0 -117 -35 -213t-98.5 -166t-150.5 -109t-193 -39q-102 0 -186.5 38t-145 106.5t-94 162t-33.5 203.5zM236 492q0 -80 22.5 -152t62 -125t97 -85t125.5 -32t124 31t97 85 t64.5 127t23.5 157q0 82 -21.5 154.5t-61.5 124.5t-96.5 83t-125.5 31q-72 0 -129.5 -31t-98 -84t-62 -125.5t-21.5 -158.5zM303 1116q0 86 33 140.5t96 54.5q14 0 45 -12.5t66 -28t66.5 -27.5t43.5 -12q47 0 54 86h79q0 -186 -131 -187q-18 0 -49 12.5t-63.5 27t-60 26.5 t-40.5 12q-47 0 -55 -92h-84zM322 1415v103h448v-103h-448z" />
<glyph unicode="&#x22e;" d="M74 678q0 160 46 294t128 229t195.5 148.5t248.5 53.5t247 -51.5t189.5 -143.5t120.5 -220.5t43 -282.5q0 -162 -44 -295.5t-125 -229.5t-194.5 -149.5t-252.5 -53.5q-133 0 -243.5 52.5t-190.5 145.5t-124 221t-44 282zM236 682q0 -121 32.5 -226.5t91 -183t140.5 -123 t180 -45.5q100 0 183 45.5t141.5 125t90 187t31.5 234.5q0 123 -32.5 228.5t-91 184.5t-139.5 123t-179 44q-100 0 -183 -44t-141.5 -123t-91 -188.5t-32.5 -238.5zM590 1601q0 39 27.5 67.5t68.5 28.5q39 0 64.5 -28.5t25.5 -67.5q0 -41 -27.5 -68.5t-64.5 -27.5 q-39 0 -66.5 27.5t-27.5 68.5z" />
<glyph unicode="&#x22f;" horiz-adv-x="1091" d="M78 487q0 115 34.5 211.5t97 165t151 107.5t192.5 39t189 -38t145.5 -104.5t93.5 -159.5t33 -204q0 -117 -35 -213t-98.5 -166t-150.5 -109t-193 -39q-102 0 -186.5 38t-145 106.5t-94 162t-33.5 203.5zM236 492q0 -80 22.5 -152t62 -125t97 -85t125.5 -32t124 31t97 85 t64.5 127t23.5 157q0 82 -21.5 154.5t-61.5 124.5t-96.5 83t-125.5 31q-72 0 -129.5 -31t-98 -84t-62 -125.5t-21.5 -158.5zM453 1212q0 39 27.5 67.5t68.5 28.5q39 0 64.5 -28.5t25.5 -67.5q0 -41 -27.5 -68.5t-64.5 -27.5q-39 0 -66.5 27.5t-27.5 68.5z" />
<glyph unicode="&#x230;" d="M74 678q0 160 46 294t128 229t195.5 148.5t248.5 53.5t247 -51.5t189.5 -143.5t120.5 -220.5t43 -282.5q0 -162 -44 -295.5t-125 -229.5t-194.5 -149.5t-252.5 -53.5q-133 0 -243.5 52.5t-190.5 145.5t-124 221t-44 282zM236 682q0 -121 32.5 -226.5t91 -183t140.5 -123 t180 -45.5q100 0 183 45.5t141.5 125t90 187t31.5 234.5q0 123 -32.5 228.5t-91 184.5t-139.5 123t-179 44q-100 0 -183 -44t-141.5 -123t-91 -188.5t-32.5 -238.5zM459 1800v103h448v-103h-448zM590 1602q0 39 27.5 67.5t68.5 28.5q39 0 64.5 -28.5t25.5 -67.5 q0 -41 -27.5 -69t-64.5 -28q-39 0 -66.5 28t-27.5 69z" />
<glyph unicode="&#x2c6;" horiz-adv-x="614" d="M63 1110l189 289h106l193 -289h-125l-119 195h-4l-119 -195h-121z" />
<glyph unicode="&#x2c7;" horiz-adv-x="614" d="M59 1399h125l123 -195h4l123 195h121l-190 -289h-111z" />
<glyph unicode="&#x2d8;" horiz-adv-x="614" d="M66 1389h94q20 -143 147 -144q61 0 102.5 42t45.5 102h94q0 -111 -65.5 -175.5t-176.5 -64.5q-113 0 -177 64.5t-64 175.5z" />
<glyph unicode="&#x2d9;" horiz-adv-x="614" d="M199 1239q0 39 27.5 67.5t68.5 28.5q39 0 64.5 -28.5t25.5 -67.5q0 -41 -27.5 -68.5t-64.5 -27.5q-39 0 -66.5 27.5t-27.5 68.5z" />
<glyph unicode="&#x2da;" horiz-adv-x="819" d="M213 1288q0 82 57.5 139.5t139.5 57.5q39 0 74.5 -15.5t62 -42t42 -62.5t15.5 -77t-15.5 -75.5t-42 -61.5t-62 -42t-74.5 -15q-41 0 -77 15t-62.5 42t-42 61.5t-15.5 75.5zM299 1288q0 -45 33 -76.5t78 -31.5t76.5 31.5t31.5 76.5q0 47 -31.5 79t-76.5 32t-78 -32 t-33 -79z" />
<glyph unicode="&#x2db;" horiz-adv-x="614" d="M139 -250q0 37 18.5 75t47 72.5t64.5 62.5t71 40h102q-86 -47 -139 -109.5t-53 -117.5q0 -92 88 -92q59 0 100 20l19 -76q-63 -33 -148 -33q-76 0 -123 42t-47 116z" />
<glyph unicode="&#x2dc;" horiz-adv-x="614" d="M66 1149q0 86 32.5 140t96.5 54q14 0 44.5 -12t65.5 -27.5t66.5 -27.5t44.5 -12q47 0 53 86h80q0 -186 -131 -187q-18 0 -49 12.5t-64 27t-60.5 26.5t-39.5 12q-47 0 -55 -92h-84z" />
<glyph unicode="&#x2dd;" horiz-adv-x="614" d="M104 1124l166 275h162l-229 -275h-99zM385 1124l168 275h162l-230 -275h-100z" />
<glyph unicode="&#x374;" horiz-adv-x="401" d="M72 930l116 467l166 18l-182 -473z" />
<glyph unicode="&#x37e;" horiz-adv-x="403" d="M39 -254q78 211 119 475l178 21q-84 -311 -184 -484zM125 829q0 53 30.5 86t80.5 33q49 0 79.5 -33t28.5 -86q0 -55 -34 -85.5t-77 -30.5t-75.5 30.5t-32.5 85.5z" />
<glyph unicode="&#x386;" horiz-adv-x="1214" d="M53 0l467 1380h180l467 -1380h-163l-152 446h-492l-147 -446h-160zM129 1069l18 311h148l-72 -311h-94zM395 569h424l-141 412q-14 39 -30.5 102.5t-39.5 151.5h-4q-20 -82 -36.5 -144.5t-32.5 -107.5z" />
<glyph unicode="&#x388;" horiz-adv-x="1097" d="M0 1069l16 311h150l-72 -311h-94zM281 0v1380h714v-129h-559v-465h529v-129h-529v-528h590v-129h-745z" />
<glyph unicode="&#x389;" horiz-adv-x="1423" d="M0 1069l16 311h150l-72 -311h-94zM283 0v1380h155v-587h674v587h156v-1380h-156v659h-674v-659h-155z" />
<glyph unicode="&#x38a;" horiz-adv-x="595" d="M0 1069l16 311h150l-72 -311h-94zM283 0v1380h155v-1380h-155z" />
<glyph unicode="&#x38c;" horiz-adv-x="1433" d="M0 1069l16 311h150l-72 -311h-94zM141 678q0 328 178 528q172 197 441 197q270 0 435 -192.5t165 -505.5t-158 -512q-168 -215 -459 -216q-279 0 -444 209q-158 195 -158 492zM303 682q0 -229 113 -393q123 -184 332 -185q215 0 337 189q109 165 109 403q0 231 -109 394 q-123 186 -333 186q-215 0 -338 -184q-111 -164 -111 -410z" />
<glyph unicode="&#x38e;" horiz-adv-x="1394" d="M0 1069l16 311h150l-72 -311h-94zM250 1266l33 127q33 -2 74.5 -16.5t83.5 -39t83 -58.5t74 -73q76 -90 134.5 -219t78.5 -297h4q29 172 98.5 301t143.5 211q70 76 150.5 127t146.5 64l28 -127q-53 -23 -118.5 -70t-130 -123t-122 -182.5t-91.5 -245.5 q-16 -59 -27.5 -130t-11.5 -153v-362h-156v365q0 154 -29 280q-31 143 -80 253t-109.5 186.5t-127 120.5t-129.5 61z" />
<glyph unicode="&#x38f;" horiz-adv-x="1425" d="M0 1069l16 311h150l-72 -311h-94zM98 0v125h293v10q-51 43 -99 103.5t-85 135.5t-59.5 164t-22.5 191q0 150 47 273.5t129 213t194.5 138.5t245.5 49q137 0 247 -50t187.5 -139.5t119.5 -209t42 -259.5q0 -109 -22.5 -200.5t-60 -168.5t-86 -137.5t-99.5 -103.5v-10h297 v-125h-494v102q61 43 115.5 105.5t96.5 142.5t67 174t25 199q0 96 -27 194.5t-82 178.5t-137 130t-193 50t-193.5 -48t-140 -127t-86 -178.5t-28.5 -201.5q0 -98 24.5 -192.5t66.5 -176.5t97 -146.5t115 -103.5v-102h-494z" />
<glyph unicode="&#x390;" horiz-adv-x="460" d="M-88 1239q0 37 25.5 63.5t62.5 26.5t60.5 -26.5t23.5 -63.5q0 -39 -23.5 -64.5t-62.5 -25.5t-62.5 26.5t-23.5 63.5zM145 211v778h156v-762q0 -68 18.5 -97.5t77.5 -27.5l-10 -116q-14 -4 -32.5 -6.5t-41.5 -2.5q-35 0 -65.5 9.5t-53 36t-36 71.5t-13.5 117zM160 1104 l47 313h141l-100 -313h-88zM389 1239q0 37 25.5 63.5t62.5 26.5q39 0 62.5 -26.5t23.5 -63.5q0 -39 -24.5 -64.5t-63.5 -25.5q-37 0 -61.5 26.5t-24.5 63.5z" />
<glyph unicode="&#x391;" horiz-adv-x="1214" d="M53 0l467 1380h180l467 -1380h-163l-152 446h-492l-147 -446h-160zM395 569h424l-141 412q-14 39 -30.5 102.5t-39.5 151.5h-4q-20 -82 -36.5 -144.5t-32.5 -107.5z" />
<glyph unicode="&#x392;" horiz-adv-x="1073" d="M156 2v1360q131 29 307 29q246 0 368 -103q106 -90 107 -239q0 -102 -63.5 -184.5t-169.5 -121.5v-4q113 -29 190 -108q94 -97 94 -240q0 -164 -112 -272q-135 -131 -459 -131q-129 0 -262 14zM311 121q47 -10 150 -10q160 0 254 63q110 72 110 217q0 139 -108 213 q-96 68 -256 68h-150v-551zM311 791h168q137 0 219 68.5t82 174.5q0 236 -311 236q-102 0 -158 -15v-464z" />
<glyph unicode="&#x393;" horiz-adv-x="888" d="M156 0v1380h706v-129h-555v-1251h-151z" />
<glyph unicode="&#x394;" horiz-adv-x="1234" d="M53 0v92l479 1288h170l472 -1286v-94h-1121zM217 133h787l-287 789q-29 72 -56.5 157.5t-48.5 151.5h-6q-16 -53 -39.5 -131t-52.5 -150z" />
<glyph unicode="&#x395;" horiz-adv-x="972" d="M156 0v1380h714v-129h-559v-465h529v-129h-529v-528h590v-129h-745z" />
<glyph unicode="&#x396;" horiz-adv-x="1097" d="M61 0v92l764 1157h-698v131h897v-96l-760 -1153h770v-131h-973z" />
<glyph unicode="&#x397;" horiz-adv-x="1296" d="M156 0v1380h155v-587h674v587h156v-1380h-156v659h-674v-659h-155z" />
<glyph unicode="&#x398;" d="M74 678q0 328 178 528q172 197 440 197q270 0 435 -192.5t165 -505.5t-157 -512q-168 -215 -459 -216q-279 0 -445 209q-158 195 -157 492zM236 682q0 -229 112 -393q123 -184 332 -185q215 0 338 189q108 165 108 403q0 231 -108 394q-123 186 -334 186 q-215 0 -338 -184q-111 -164 -110 -410zM401 647v129h557v-129h-557z" />
<glyph unicode="&#x399;" horiz-adv-x="468" d="M156 0v1380h155v-1380h-155z" />
<glyph unicode="&#x39a;" horiz-adv-x="1067" d="M156 0v1380h155v-673h6q53 78 111 147l428 526h191l-496 -585l536 -795h-184l-461 690l-131 -151v-539h-155z" />
<glyph unicode="&#x39b;" horiz-adv-x="1210" d="M53 0l467 1380h180l467 -1380h-163l-326 981q-14 39 -31.5 102.5t-38.5 151.5h-4q-20 -82 -36.5 -144.5t-32.5 -107.5l-322 -983h-160z" />
<glyph unicode="&#x39c;" horiz-adv-x="1603" d="M121 0l94 1380h195l245 -698q84 -240 142 -463h4q55 213 147 461l256 700h195l86 -1380h-152l-35 618q-25 436 -22 599h-6q-74 -246 -172 -521l-252 -690h-115l-233 676q-106 307 -160 535h-6q-6 -293 -27 -613l-37 -604h-147z" />
<glyph unicode="&#x39d;" horiz-adv-x="1310" d="M156 0v1380h166l454 -725q147 -236 246 -448l4 2q-18 223 -18 569v602h145v-1380h-154l-450 725q-168 272 -254 459l-6 -2q14 -211 14 -570v-612h-147z" />
<glyph unicode="&#x39e;" horiz-adv-x="1073" d="M86 0v133h915v-133h-915zM109 1249v131h872v-131h-872zM174 651v129h739v-129h-739z" />
<glyph unicode="&#x39f;" d="M74 678q0 328 178 528q172 197 440 197q270 0 435 -192.5t165 -505.5t-157 -512q-168 -215 -459 -216q-279 0 -445 209q-158 195 -157 492zM236 682q0 -229 112 -393q123 -184 332 -185q215 0 338 189q108 165 108 403q0 231 -108 394q-123 186 -334 186 q-215 0 -338 -184q-111 -164 -110 -410z" />
<glyph unicode="&#x3a0;" horiz-adv-x="1257" d="M156 0v1380h946v-1380h-158v1251h-633v-1251h-155z" />
<glyph unicode="&#x3a1;" horiz-adv-x="1054" d="M156 0v1364q147 27 323 27q250 0 375 -115q117 -107 117 -283q0 -178 -103 -288q-141 -154 -411 -154q-96 0 -146 14v-565h-155zM311 692q55 -16 150 -16q166 0 260 80t94 227q0 139 -90 211t-244 72q-102 0 -170 -15v-559z" />
<glyph unicode="&#x3a3;" horiz-adv-x="1099" d="M51 0v96l481 590l-452 586v108h899v-129h-700v-10l428 -549l-451 -555v-4h791v-133h-996z" />
<glyph unicode="&#x3a4;" horiz-adv-x="980" d="M-4 1249v131h991v-131h-420v-1249h-155v1249h-416z" />
<glyph unicode="&#x3a5;" horiz-adv-x="1167" d="M23 1266l32 127q33 -2 75 -16.5t84 -39t83 -58.5t74 -73q76 -90 134 -219t79 -297h4q29 172 98.5 301t142.5 211q70 76 151 127t146 64l29 -127q-53 -23 -118.5 -70t-130 -123t-122 -182.5t-92.5 -245.5q-16 -59 -27.5 -130t-11.5 -153v-362h-155v365q0 154 -29 280 q-31 143 -80 253t-109.5 186.5t-127 120.5t-129.5 61z" />
<glyph unicode="&#x3a6;" horiz-adv-x="1411" d="M74 682q0 160 51 278.5t132 198.5t179.5 123t192.5 49v103h155v-103q104 -8 203.5 -51t177.5 -123t125 -195.5t47 -269.5q0 -156 -48 -271.5t-126 -194.5t-177 -122t-202 -51v-106h-155v106q-100 8 -199.5 49t-178.5 118t-128 191.5t-49 270.5zM238 686q0 -117 32.5 -209 t87 -157.5t125 -104.5t146.5 -47v1049q-68 -4 -136.5 -39t-126 -101.5t-93 -164t-35.5 -226.5zM784 168q74 6 144.5 43t125 102.5t88.5 159.5t34 215q0 125 -34 221.5t-89.5 162t-125 102t-143.5 43.5v-1049z" />
<glyph unicode="&#x3a7;" horiz-adv-x="1132" d="M53 0l418 700l-401 680h178l188 -336q45 -78 129 -233h4q39 80 129 233l193 336h180l-418 -671l426 -709h-180l-182 315q-57 98 -160 275h-4q-41 -76 -152 -275l-170 -315h-178z" />
<glyph unicode="&#x3a8;" horiz-adv-x="1347" d="M94 932v448h152v-419q0 -106 25.5 -182.5t72.5 -124.5t111.5 -71.5t144.5 -27.5v825h150v-827q70 4 133 29.5t112 78t79 134.5t30 200v385h151v-399q0 -131 -36.5 -231.5t-103 -170t-160 -106.5t-205.5 -43v-430h-150v430q-96 2 -187 30.5t-162 89t-114 154t-43 228.5z " />
<glyph unicode="&#x3a9;" horiz-adv-x="1425" d="M90 0v125h293v10q-51 43 -99 103.5t-85 135.5t-59.5 164t-22.5 191q0 150 47 273.5t131 213t196.5 138.5t245.5 49q137 0 248 -50t188.5 -139.5t120.5 -209t43 -259.5q0 -109 -22.5 -200.5t-60 -168.5t-86 -137.5t-99.5 -103.5v-10h297v-125h-494v102q61 43 115.5 105.5 t96.5 142.5t67 174t25 199q0 96 -28 194.5t-83 178.5t-138 130t-194 50t-194.5 -48t-141 -127t-87 -178.5t-29.5 -201.5q0 -98 24.5 -192.5t66.5 -176.5t97 -146.5t115 -103.5v-102h-494z" />
<glyph unicode="&#x3aa;" horiz-adv-x="468" d="M-41 1577q0 39 26.5 67.5t65.5 28.5q41 0 66.5 -27.5t25.5 -68.5q0 -49 -29.5 -73.5t-64.5 -24.5q-33 0 -61.5 24.5t-28.5 73.5zM156 0v1380h155v-1380h-155zM324 1577q0 39 26.5 67.5t67.5 28.5q39 0 64.5 -27.5t25.5 -68.5q0 -49 -29.5 -73.5t-62.5 -24.5t-60 22 q-33 27 -32 76z" />
<glyph unicode="&#x3ab;" horiz-adv-x="1167" d="M23 1266l32 127q33 -2 75 -16.5t84 -39t83 -58.5t74 -73q76 -90 134 -219t79 -297h4q29 172 98.5 301t142.5 211q70 76 151 127t146 64l29 -127q-53 -23 -118.5 -70t-130 -123t-122 -182.5t-92.5 -245.5q-16 -59 -27.5 -130t-11.5 -153v-362h-155v365q0 154 -29 280 q-31 143 -80 253t-109.5 186.5t-127 120.5t-129.5 61zM315 1524q0 39 28 67.5t67 28.5t64.5 -28.5t25.5 -67.5q0 -41 -25.5 -69t-66.5 -28t-67 29t-26 68zM678 1524q0 39 27.5 67.5t66.5 28.5q41 0 66.5 -28.5t25.5 -67.5q0 -41 -26.5 -69t-67.5 -28q-39 0 -65.5 29 t-26.5 68z" />
<glyph unicode="&#x3ac;" horiz-adv-x="1095" d="M78 475q0 121 36 219.5t95 169t137 109.5t162 39q109 0 186.5 -54.5t114.5 -150.5h8q4 61 8 102t11 80h131q-4 -37 -8.5 -114.5t-8.5 -178t-7 -211t-3 -213.5q0 -88 22.5 -129t75.5 -45l-14 -114q-10 -4 -26.5 -5.5t-26.5 -1.5q-61 0 -108.5 48.5t-53.5 164.5h-6 q-47 -90 -130 -151.5t-202 -61.5q-86 0 -158.5 36t-125 100.5t-81 156.5t-28.5 205zM236 477q0 -72 17 -139.5t52 -119.5t85 -83t118 -31q47 0 91 21.5t80 58.5t61.5 84t37.5 99q10 35 12.5 68.5t2.5 76.5q0 31 -2.5 56.5t-8.5 54.5q-12 49 -34.5 97t-56.5 85t-76 59.5 t-93 22.5q-66 0 -118 -31t-90 -85t-58 -129t-20 -163v-2zM463 1110l112 291h166l-172 -291h-106z" />
<glyph unicode="&#x3ad;" horiz-adv-x="872" d="M80 276q0 92 66.5 163t177.5 89v9q-98 23 -147.5 79t-49.5 129q0 49 24.5 97.5t71.5 85.5t119 60.5t166 23.5q184 0 291 -76l-37 -107q-14 10 -41 21.5t-59.5 21t-70.5 15.5t-75 6q-104 0 -167.5 -42t-63.5 -114q0 -39 21.5 -67.5t59 -47t88 -27.5t107.5 -9h121v-117 h-125q-68 0 -125 -10t-100 -31.5t-66.5 -55.5t-23.5 -81t21.5 -82t59 -59.5t88 -37t105.5 -12.5q82 0 163 26t124 52l31 -110q-53 -37 -149.5 -64t-201.5 -27q-72 0 -143.5 15.5t-129.5 51.5t-94 92.5t-36 139.5zM414 1110l112 291h168l-174 -291h-106z" />
<glyph unicode="&#x3ae;" horiz-adv-x="1101" d="M125 989h139q14 -29 21.5 -74t7.5 -94h4q35 76 118 133.5t203 57.5q47 0 106.5 -17.5t112 -63.5t88.5 -128t36 -211v-627v-94t1 -102.5t5 -97.5t10 -77h-146q-8 25 -14 66t-9 91t-4 104.5t-1 103.5v616q0 61 -12.5 118t-40 97.5t-72.5 65.5t-111 25q-92 0 -158.5 -57.5 t-89.5 -137.5q-12 -35 -12 -86v-600h-155v729q0 72 -5.5 141.5t-21.5 118.5zM500 1110l110 291h168l-174 -291h-104z" />
<glyph unicode="&#x3af;" horiz-adv-x="460" d="M145 211v778h156v-762q0 -68 18.5 -97.5t77.5 -27.5l-10 -116q-14 -4 -32.5 -6.5t-41.5 -2.5q-35 0 -65.5 9.5t-53 36t-36 71.5t-13.5 117zM152 1112l110 291h168l-170 -291h-108z" />
<glyph unicode="&#x3b0;" horiz-adv-x="1040" d="M117 989h147q14 -16 21.5 -60t7.5 -124v-408q0 -78 19.5 -133t52 -89t73.5 -49t82 -15q131 0 199.5 124.5t68.5 350.5q0 70 -7 134t-17 118.5t-20.5 93.5t-18.5 57h145q14 -25 26.5 -64.5t23 -92t16.5 -110.5t6 -120q0 -109 -19.5 -219.5t-67.5 -200.5t-132 -147.5 t-213 -57.5q-78 0 -145.5 24t-118.5 73t-80 122.5t-29 174.5v284q0 133 -3 213t-17 121zM193 1239q0 37 25.5 63.5t62.5 26.5t60.5 -26.5t23.5 -63.5q0 -39 -24 -64.5t-62 -25.5q-39 0 -62.5 26.5t-23.5 63.5zM440 1104l47 313h142l-101 -313h-88zM670 1239q0 37 25.5 63.5 t62.5 26.5q39 0 62.5 -26.5t23.5 -63.5q0 -39 -24.5 -64.5t-63.5 -25.5q-37 0 -61.5 26.5t-24.5 63.5z" />
<glyph unicode="&#x3b1;" horiz-adv-x="1095" d="M78 475q0 121 36 219.5t95 169t137 109.5t162 39q109 0 186.5 -54.5t114.5 -150.5h8q4 61 8 102t11 80h131q-4 -37 -8.5 -114.5t-8.5 -178t-7 -211t-3 -213.5q0 -88 22.5 -129t75.5 -45l-14 -114q-10 -4 -26.5 -5.5t-26.5 -1.5q-61 0 -108.5 48.5t-53.5 164.5h-6 q-47 -90 -130 -151.5t-202 -61.5q-86 0 -158.5 36t-125 100.5t-81 156.5t-28.5 205zM236 477q0 -72 17 -139.5t52 -119.5t85 -83t118 -31q47 0 91 21.5t80 58.5t61.5 84t37.5 99q10 35 12.5 68.5t2.5 76.5q0 31 -2.5 56.5t-8.5 54.5q-12 49 -34.5 97t-56.5 85t-76 59.5 t-93 22.5q-66 0 -118 -31t-90 -85t-58 -129t-20 -163v-2z" />
<glyph unicode="&#x3b2;" horiz-adv-x="1116" d="M150 -57v950q0 104 12 182t33.5 134.5t47 95t54.5 65.5q53 49 119.5 78t158.5 29q70 0 132.5 -26t109.5 -72t74 -111.5t27 -145.5q0 -61 -15.5 -112.5t-41 -91t-58.5 -69.5t-66 -48v-6q57 -12 112.5 -43t96.5 -80t66.5 -117t25.5 -156q0 -104 -35.5 -183t-94 -132 t-134.5 -80t-153 -27q-104 0 -179 34t-133 98h-4v-142q0 -43 1 -95t3 -103.5t6 -97.5t13 -77h-148q-18 49 -24 144.5t-6 204.5zM305 272q16 -29 45 -59.5t66 -55t84 -41t100 -16.5q59 0 110.5 22.5t89.5 62.5t59.5 94.5t21.5 119.5q0 76 -25 134.5t-68 98.5t-102 60.5 t-127 22.5q-12 2 -25.5 1t-27.5 -1v110q10 0 17 1t18 3q57 2 101 27t73.5 62.5t44 85t14.5 98.5q0 115 -59.5 182.5t-151.5 67.5q-127 0 -192.5 -113t-65.5 -330v-637z" />
<glyph unicode="&#x3b3;" horiz-adv-x="913" d="M-10 989h178q33 -53 76 -138t86 -190.5t81 -223.5t62 -234h2q35 63 77 148t79 181.5t61.5 196.5t24.5 195q0 23 -1 37t-1 28h147q6 -29 6 -65q0 -96 -27.5 -203t-73.5 -219.5t-107.5 -226t-129.5 -220.5q-10 -12 -11 -23.5t-1 -25.5q4 -92 5 -199.5t1 -212.5h-153 q4 141 1 288t-40 296q-27 123 -70 244t-92 228.5t-96 195.5t-84 143z" />
<glyph unicode="&#x3b4;" horiz-adv-x="1085" d="M78 475q0 94 29.5 175t81 145.5t119 116t145.5 87.5v11l-47 37q-18 14 -40 35.5t-40.5 47t-31.5 56.5t-13 65q0 39 20.5 80t60 73t101 52.5t143.5 20.5q104 0 187.5 -32t128.5 -67l-50 -106q-16 12 -42.5 26.5t-62.5 26.5t-76 21.5t-83 9.5q-86 0 -129 -30t-43 -69 q0 -43 39 -79.5t109 -94.5l166 -135q121 -94 189.5 -205.5t68.5 -261.5q0 -115 -37 -208t-99.5 -158.5t-147.5 -101.5t-181 -36q-92 0 -176 33t-148.5 96.5t-102.5 155.5t-38 213zM236 477q0 -92 27.5 -162.5t71.5 -119t101.5 -73t116.5 -24.5t113.5 26t95.5 73t64.5 116.5 t23.5 157.5q0 111 -50 200t-147 167l-108 88q-59 -33 -115.5 -75t-99.5 -97.5t-68.5 -124t-25.5 -152.5z" />
<glyph unicode="&#x3b5;" horiz-adv-x="872" d="M80 276q0 92 66.5 163t177.5 89v9q-98 23 -147.5 79t-49.5 129q0 49 24.5 97.5t71.5 85.5t119 60.5t166 23.5q184 0 291 -76l-37 -107q-14 10 -41 21.5t-59.5 21t-70.5 15.5t-75 6q-104 0 -167.5 -42t-63.5 -114q0 -39 21.5 -67.5t59 -47t88 -27.5t107.5 -9h121v-117 h-125q-68 0 -125 -10t-100 -31.5t-66.5 -55.5t-23.5 -81t21.5 -82t59 -59.5t88 -37t105.5 -12.5q82 0 163 26t124 52l31 -110q-53 -37 -149.5 -64t-201.5 -27q-72 0 -143.5 15.5t-129.5 51.5t-94 92.5t-36 139.5z" />
<glyph unicode="&#x3b6;" horiz-adv-x="811" d="M80 479q0 106 33.5 222t98 226.5t157 213t211.5 182.5v8h-148q-68 0 -127 3t-106 16l16 108q47 -6 109.5 -7t128.5 -1h329l25 -115q-123 -66 -227.5 -160t-180 -204.5t-118.5 -230t-43 -232.5q0 -86 19 -146.5t53 -103.5t81 -71.5t105 -49.5q72 -25 139 -37t139 -20 q18 -4 19 -25q0 -43 -11.5 -93t-28 -97t-38 -89t-39.5 -67l-103 31q10 18 21.5 49t21 64.5t16.5 64.5t9 51q-53 8 -115.5 21.5t-124.5 34.5q-68 23 -126 59.5t-102 91.5t-68.5 130t-24.5 173z" />
<glyph unicode="&#x3b7;" horiz-adv-x="1101" d="M125 989h139q14 -29 21.5 -74t7.5 -94h4q35 76 118 133.5t203 57.5q47 0 106.5 -17.5t112 -63.5t88.5 -128t36 -211v-627v-94t1 -102.5t5 -97.5t10 -77h-146q-8 25 -14 66t-9 91t-4 104.5t-1 103.5v616q0 61 -12.5 118t-40 97.5t-72.5 65.5t-111 25q-92 0 -158.5 -57.5 t-89.5 -137.5q-12 -35 -12 -86v-600h-155v729q0 72 -5.5 141.5t-21.5 118.5z" />
<glyph unicode="&#x3b8;" horiz-adv-x="1056" d="M78 739q0 156 30.5 291t89 234.5t144.5 156t197 56.5q113 0 196.5 -53.5t139 -150.5t82 -232.5t26.5 -301.5q0 -172 -27.5 -313t-83 -240.5t-140.5 -154t-200 -54.5h-2q-211 0 -331.5 190.5t-120.5 571.5zM236 690q0 -287 83.5 -440.5t217.5 -153.5q74 0 128 44t90 123 t53 188.5t17 238.5h-589zM236 811h589q0 113 -18.5 212t-55 174t-92 118t-131.5 43q-70 0 -124 -45t-92 -121t-57 -175t-19 -206z" />
<glyph unicode="&#x3b9;" horiz-adv-x="460" d="M145 211v778h156v-762q0 -68 18.5 -97.5t77.5 -27.5l-10 -116q-14 -4 -32.5 -6.5t-41.5 -2.5q-35 0 -65.5 9.5t-53 36t-36 71.5t-13.5 117z" />
<glyph unicode="&#x3ba;" horiz-adv-x="970" d="M131 989h148q12 -16 20 -61t8 -105v-278h10q137 131 247 242.5t200 201.5h182v-8q-104 -96 -223 -209t-252 -237v-7q37 -8 75 -34.5t77 -65.5t78.5 -86t76.5 -96l180 -246h-180l-160 213q-78 100 -150.5 165.5t-143.5 67.5h-17v-446h-155v780q0 59 -5.5 120t-15.5 89z " />
<glyph unicode="&#x3bb;" horiz-adv-x="931" d="M16 0l351 918q12 33 12 45q0 10 -2 22t-10 33q-25 68 -51.5 128t-57.5 105t-68.5 71t-83.5 26h-14t-18 -5l16 125q12 2 29.5 4.5t32.5 2.5q70 0 122 -33t95 -94.5t80.5 -147.5t78.5 -192l371 -1008h-166l-205 586q-16 51 -32.5 103t-32.5 112h-8q-12 -47 -30.5 -102.5 l-35.5 -106.5l-207 -592h-166z" />
<glyph unicode="&#x3bc;" horiz-adv-x="1095" d="M145 -406v1395h156v-569q0 -311 231 -311q102 0 183 81q74 76 73 166v633h156v-727q0 -66 2 -131t6 -131h-139l-8 164h-6q-98 -184 -299 -184q-145 0 -209 116h-6l6 -502h-146z" />
<glyph unicode="&#x3bd;" horiz-adv-x="925" d="M10 989h164l195 -571q25 -66 45 -130.5t43 -129.5h4q31 59 76 149t86 191.5t70.5 206t29.5 190.5v49.5t-2 44.5h149q0 -16 3.5 -34.5t3.5 -36.5q0 -104 -33 -219t-85 -233t-116.5 -235.5t-130.5 -230.5h-145z" />
<glyph unicode="&#x3be;" horiz-adv-x="854" d="M78 438q0 74 25.5 139.5t68.5 116.5t100.5 88t122.5 56v10q-115 35 -171 109.5t-56 177.5q0 63 25.5 124.5t78 109.5t129 78t181.5 30q78 0 138 -15.5t99 -40.5l-33 -112q-29 16 -81 32.5t-117 16.5q-66 0 -115 -19.5t-82 -52.5t-49 -74t-16 -86q0 -55 22.5 -98 t61.5 -72.5t91 -46t111 -18.5h99v-119h-49q-109 0 -188 -25.5t-131 -69.5t-76.5 -102.5t-24.5 -123.5q0 -129 80.5 -205t232.5 -117q72 -20 140.5 -30.5t127.5 -20.5q18 0 19 -23q0 -39 -10.5 -88t-27 -98t-36.5 -92t-41 -68l-106 31q10 18 21 49t21.5 64.5t17.5 65.5t7 50 q-102 14 -209.5 41t-196.5 79t-146.5 136t-57.5 213z" />
<glyph unicode="&#x3bf;" horiz-adv-x="1091" d="M78 487q0 223 125 369q131 154 350 154q213 0 340 -148q121 -141 121 -358q0 -225 -125 -371q-131 -156 -352 -156q-211 0 -338 152q-121 141 -121 358zM236 492q0 -152 75 -265q86 -129 232 -129q145 0 233 131q76 115 76 269q0 156 -74 266q-84 127 -231 127 q-154 0 -238 -129q-74 -111 -73 -270z" />
<glyph unicode="&#x3c0;" horiz-adv-x="1097" d="M31 938q33 23 93 37t173 14h745l-16 -123h-137v-573q0 -125 9 -190.5t20 -102.5h-154q-10 23 -19.5 87.5t-9.5 186.5v592h-332q-4 -100 -16 -224t-30.5 -246t-42 -228.5t-50.5 -167.5h-151q29 74 52 180.5t41.5 225t31 238.5t16.5 222q-61 0 -112.5 -5t-90.5 -15z" />
<glyph unicode="&#x3c1;" horiz-adv-x="1122" d="M143 -45v461q0 94 10.5 163.5t29 122t42 90t51.5 68.5q53 61 137.5 106.5t194.5 45.5q100 0 180 -37t137.5 -103.5t88 -158.5t30.5 -203q0 -131 -36.5 -230.5t-98 -167t-140.5 -101.5t-165 -34q-98 0 -178 40t-125 114h-4v-166q0 -43 1 -94t2 -102.5t4 -97.5t9 -77h-147 q-16 47 -19.5 146.5t-3.5 214.5zM297 387q0 -18 2 -37.5t6 -36.5q29 -92 103.5 -151.5t171.5 -59.5q74 0 130 31t96 85t60.5 128t20.5 160q0 76 -19.5 143.5t-56.5 118.5t-92 81t-125 30q-53 0 -105.5 -24t-95.5 -73t-69.5 -125.5t-26.5 -183.5v-86z" />
<glyph unicode="&#x3c2;" horiz-adv-x="821" d="M78 481q0 98 33.5 193.5t99 170.5t162 121t219.5 46q61 0 119.5 -11.5t93.5 -31.5l-37 -119q-35 16 -77 27.5t-101 11.5q-80 0 -145.5 -32t-111.5 -86t-71.5 -126t-25.5 -149q0 -152 72.5 -238t209.5 -127q74 -20 130.5 -30.5t125.5 -20.5q10 -4 15.5 -9t5.5 -22 q0 -41 -10.5 -90t-28 -97t-37 -89t-37.5 -66l-107 35q10 18 21.5 48t21 63.5t16.5 64.5t9 49q-53 10 -105.5 21.5t-99.5 23.5q-76 23 -141.5 62t-114.5 96t-76.5 135t-27.5 176z" />
<glyph unicode="&#x3c3;" horiz-adv-x="1097" d="M78 485q0 125 37 222.5t102.5 165t155.5 103.5t196 36h187h100h56.5h63.5h58.5h38.5l-4 -123q-35 0 -93 2t-171 6l2 -8q90 -59 139 -163.5t49 -223.5q0 -137 -42 -235.5t-107.5 -163t-148.5 -95.5t-162 -31q-96 0 -180.5 35t-146 101.5t-96 161t-34.5 210.5zM236 492 q0 -84 23.5 -156t64.5 -125t96 -83t121 -30q63 0 118.5 30t97.5 84t65.5 128t23.5 162q0 63 -17.5 131.5t-54.5 126t-94 94.5t-137 37q-78 0 -136.5 -35t-96.5 -91t-56 -128t-18 -145z" />
<glyph unicode="&#x3c4;" horiz-adv-x="817" d="M-12 938q27 18 84 34.5t170 16.5h559l-21 -123h-305v-590q0 -53 9.5 -86.5t25.5 -53t36.5 -27t43.5 -7.5h22.5t20.5 4l-8 -112q-14 -8 -40 -12.5t-48 -4.5q-111 0 -164.5 73t-53.5 226v590h-110q-78 0 -122 -6t-77 -12z" />
<glyph unicode="&#x3c5;" horiz-adv-x="1040" d="M117 989h147q14 -16 21.5 -60t7.5 -124v-408q0 -78 19.5 -133t52 -89t73.5 -49t82 -15q131 0 199.5 124.5t68.5 350.5q0 70 -7 134t-17 118.5t-20.5 93.5t-18.5 57h145q14 -25 26.5 -64.5t23 -92t16.5 -110.5t6 -120q0 -109 -19.5 -219.5t-67.5 -200.5t-132 -147.5 t-213 -57.5q-78 0 -145.5 24t-118.5 73t-80 122.5t-29 174.5v284q0 133 -3 213t-17 121z" />
<glyph unicode="&#x3c6;" horiz-adv-x="1263" d="M78 502q0 106 32.5 192t82 150.5t106.5 107.5t107 66l61 -88q-41 -25 -82 -64t-76 -92t-56.5 -120.5t-21.5 -149.5q0 -76 20.5 -144.5t61.5 -122t103.5 -90t146.5 -49.5v623q0 76 18.5 130t51.5 90t75 51.5t89 15.5q70 0 138.5 -34t123.5 -97.5t90 -153.5t35 -203 q0 -127 -40 -224t-107.5 -165t-153.5 -105.5t-178 -45.5v-386h-142v386q-90 6 -177 39.5t-155.5 97t-110.5 159t-42 226.5zM705 98q152 20 242.5 130t90.5 290q0 76 -21.5 143.5t-56 118.5t-77.5 80t-88 29q-39 0 -64.5 -36t-25.5 -112v-643z" />
<glyph unicode="&#x3c7;" horiz-adv-x="899" d="M27 -389l346 708l-332 670h168l252 -547h8q23 47 48.5 103.5t57.5 122.5l150 321h154l-342 -667l354 -713l-146 -41l-296 620h-9q-20 -47 -42.5 -101t-49.5 -114l-188 -405z" />
<glyph unicode="&#x3c8;" horiz-adv-x="1294" d="M125 989h141q25 -31 25 -184v-303q0 -111 24.5 -186.5t66.5 -124t97.5 -71t114.5 -26.5v1155h141v-1155q68 4 124 39t98 98.5t66 152.5t24 202q0 76 -8.5 143.5t-19.5 119.5t-24.5 88t-21.5 52h145q31 -47 54.5 -149.5t23.5 -241.5q0 -111 -23.5 -218.5t-78 -194.5 t-142.5 -144t-217 -64v-383h-143v383q-92 6 -174 33t-144.5 85.5t-98.5 153.5t-36 236v277q0 68 -2 129t-12 98z" />
<glyph unicode="&#x3c9;" horiz-adv-x="1376" d="M78 506q0 82 14 158.5t38 141t54.5 115t63.5 83.5h145v-5q-68 -74 -115 -202.5t-47 -290.5q0 -109 20.5 -183.5t52.5 -122.5t70 -69.5t75 -21.5t67.5 18t53 51t35.5 75t13 91l-4 395h148l-4 -393q0 -102 49 -169.5t127 -67.5q39 0 77 25.5t67.5 77.5t48 129t18.5 181 q0 74 -12.5 145.5t-35 134t-52 113t-64.5 84.5v5h149q33 -29 64 -75t53.5 -108.5t36.5 -138.5t14 -162q0 -139 -31.5 -241.5t-81.5 -169t-114.5 -99.5t-132.5 -33q-88 0 -153.5 48.5t-96.5 130.5h-8q-33 -84 -99.5 -131.5t-154.5 -47.5q-61 0 -123.5 29t-112 92.5t-81 163.5 t-31.5 244z" />
<glyph unicode="&#x3ca;" horiz-adv-x="460" d="M-35 1239q0 39 27.5 67.5t66.5 28.5t65 -28.5t26 -67.5q0 -41 -26 -68.5t-67 -27.5t-66.5 28.5t-25.5 67.5zM145 211v778h156v-762q0 -68 18.5 -97.5t77.5 -27.5l-10 -116q-14 -4 -32.5 -6.5t-41.5 -2.5q-35 0 -65.5 9.5t-53 36t-36 71.5t-13.5 117zM328 1239 q0 39 27.5 67.5t66.5 28.5q41 0 66.5 -28.5t25.5 -67.5q0 -41 -26.5 -68.5t-67.5 -27.5q-39 0 -65.5 28.5t-26.5 67.5z" />
<glyph unicode="&#x3cb;" horiz-adv-x="1040" d="M117 989h147q14 -16 21.5 -60t7.5 -124v-408q0 -78 19.5 -133t52 -89t73.5 -49t82 -15q131 0 199.5 124.5t68.5 350.5q0 70 -7 134t-17 118.5t-20.5 93.5t-18.5 57h145q14 -25 26.5 -64.5t23 -92t16.5 -110.5t6 -120q0 -109 -19.5 -219.5t-67.5 -200.5t-132 -147.5 t-213 -57.5q-78 0 -145.5 24t-118.5 73t-80 122.5t-29 174.5v284q0 133 -3 213t-17 121zM236 1243q0 39 27.5 67.5t66.5 28.5t64.5 -28.5t25.5 -67.5q0 -41 -25.5 -68.5t-66.5 -27.5t-66.5 28.5t-25.5 67.5zM598 1243q0 39 27.5 67.5t66.5 28.5q41 0 66.5 -28.5t25.5 -67.5 q0 -41 -26.5 -68.5t-67.5 -27.5q-39 0 -65.5 28.5t-26.5 67.5z" />
<glyph unicode="&#x3cc;" horiz-adv-x="1091" d="M78 487q0 223 125 369q131 154 350 154q213 0 340 -148q121 -141 121 -358q0 -225 -125 -371q-131 -156 -352 -156q-211 0 -338 152q-121 141 -121 358zM236 492q0 -152 75 -265q86 -129 232 -129q145 0 233 131q76 115 76 269q0 156 -74 266q-84 127 -231 127 q-154 0 -238 -129q-74 -111 -73 -270zM471 1110l111 291h168l-175 -291h-104z" />
<glyph unicode="&#x3cd;" horiz-adv-x="1040" d="M117 989h147q14 -16 21.5 -60t7.5 -124v-408q0 -78 19.5 -133t52 -89t73.5 -49t82 -15q131 0 199.5 124.5t68.5 350.5q0 70 -7 134t-17 118.5t-20.5 93.5t-18.5 57h145q14 -25 26.5 -64.5t23 -92t16.5 -110.5t6 -120q0 -109 -19.5 -219.5t-67.5 -200.5t-132 -147.5 t-213 -57.5q-78 0 -145.5 24t-118.5 73t-80 122.5t-29 174.5v284q0 133 -3 213t-17 121zM436 1112l111 291h166l-170 -291h-107z" />
<glyph unicode="&#x3ce;" horiz-adv-x="1376" d="M78 506q0 82 14 158.5t38 141t54.5 115t63.5 83.5h145v-5q-68 -74 -115 -202.5t-47 -290.5q0 -109 20.5 -183.5t52.5 -122.5t70 -69.5t75 -21.5t67.5 18t53 51t35.5 75t13 91l-4 395h148l-4 -393q0 -102 49 -169.5t127 -67.5q39 0 77 25.5t67.5 77.5t48 129t18.5 181 q0 74 -12.5 145.5t-35 134t-52 113t-64.5 84.5v5h149q33 -29 64 -75t53.5 -108.5t36.5 -138.5t14 -162q0 -139 -31.5 -241.5t-81.5 -169t-114.5 -99.5t-132.5 -33q-88 0 -153.5 48.5t-96.5 130.5h-8q-33 -84 -99.5 -131.5t-154.5 -47.5q-61 0 -123.5 29t-112 92.5t-81 163.5 t-31.5 244zM610 1110l111 291h168l-172 -291h-107z" />
<glyph unicode="&#x400;" horiz-adv-x="972" d="M156 0v1380h714v-129h-559v-465h529v-129h-529v-528h590v-129h-745zM348 1772h183l178 -289h-113z" />
<glyph unicode="&#x401;" horiz-adv-x="972" d="M156 0v1380h714v-129h-559v-465h529v-129h-529v-528h590v-129h-745zM246 1577q0 39 26.5 67.5t65.5 28.5q41 0 66.5 -27.5t25.5 -68.5t-26.5 -69.5t-67.5 -28.5q-33 0 -61.5 24.5t-28.5 73.5zM610 1577q0 39 27 67.5t68 28.5q39 0 64.5 -27.5t25.5 -68.5q0 -49 -30 -73.5 t-65 -24.5q-39 0 -64.5 28.5t-25.5 69.5z" />
<glyph unicode="&#x402;" horiz-adv-x="1320" d="M0 1249v131h1026v-131h-496v-426q59 35 134 63.5t153 28.5q111 0 187.5 -45t132.5 -125q53 -78 76.5 -179t23.5 -206q0 -104 -28.5 -210.5t-85 -195.5t-141.5 -153.5t-198 -87.5l-28 125q55 16 117.5 53t103.5 95q43 59 69.5 155.5t26.5 208.5q0 96 -16.5 172t-52.5 135 q-41 61 -97.5 95t-136.5 34q-70 0 -130 -24.5t-110 -61.5v-700h-155v1249h-375z" />
<glyph unicode="&#x403;" horiz-adv-x="886" d="M156 0v1380h733v-129h-578v-1251h-155zM367 1454l194 238h197l-264 -238h-127z" />
<glyph unicode="&#x404;" horiz-adv-x="1142" d="M74 688q0 145 47 275.5t136 227.5t218 154.5t293 57.5q119 0 194.5 -21.5t114.5 -40.5l-39 -116q-49 23 -117.5 37t-144.5 14q-119 0 -213 -40t-162.5 -108.5t-109.5 -161t-51 -196.5h702v-125h-700q2 -109 41 -207t107.5 -171.5t164.5 -117t215 -43.5q76 0 148.5 14.5 t130.5 37.5q6 -31 13 -59.5t13 -57.5q-51 -25 -136 -44.5t-202 -19.5q-143 0 -264 48.5t-210 139.5t-139 223t-50 300z" />
<glyph unicode="&#x405;" horiz-adv-x="974" d="M84 68l43 129q137 -86 305 -86q141 0 219 67.5t78 179.5q0 104 -60.5 169t-199.5 118q-354 133 -354 389q0 80 31.5 147.5t89 117t136.5 76t171 26.5q178 0 291 -66l-48 -127q-100 63 -249 64q-119 0 -193 -59.5t-74 -157.5q0 -47 13.5 -84t44 -70t83 -62.5t132.5 -62.5 q92 -37 157.5 -79t107.5 -91t60.5 -107t18.5 -128q0 -88 -33 -161t-93.5 -124t-146.5 -78.5t-192 -27.5q-213 0 -338 88z" />
<glyph unicode="&#x406;" horiz-adv-x="468" d="M156 0v1380h155v-1380h-155z" />
<glyph unicode="&#x407;" horiz-adv-x="468" d="M-41 1577q0 39 26.5 67.5t65.5 28.5q41 0 66.5 -27.5t25.5 -68.5q0 -49 -29.5 -73.5t-64.5 -24.5q-33 0 -61.5 24.5t-28.5 73.5zM156 0v1380h155v-1380h-155zM324 1577q0 39 26.5 67.5t67.5 28.5q39 0 64.5 -27.5t25.5 -68.5q0 -49 -29.5 -73.5t-62.5 -24.5 q-37 0 -64.5 27.5t-27.5 70.5z" />
<glyph unicode="&#x408;" horiz-adv-x="729" d="M10 8l25 127q63 -25 143 -24q135 0 194.5 80.5t59.5 269.5v919h156v-936q0 -467 -400 -467q-104 0 -178 31z" />
<glyph unicode="&#x409;" horiz-adv-x="1736" d="M-8 115q41 10 79 30.5t60 44.5q43 41 67.5 110t37 152t15.5 173t3 176v579h721v-528q39 6 88 9t82 3q100 0 192.5 -24.5t163 -75.5t113.5 -132t43 -194q0 -98 -30 -170.5t-81 -126.5q-84 -84 -209 -118.5t-262 -34.5q-84 0 -147.5 4t-108.5 10v1247h-413v-434 q0 -113 -5.5 -228.5t-25 -219t-59.5 -187.5t-109 -133q-35 -25 -87 -43t-104 -20zM975 121q39 -6 71.5 -8t73.5 -2q76 0 143.5 19.5t119 59t81 100t29.5 142.5q0 84 -30.5 143.5t-82 96.5t-119 53t-141.5 16q-37 0 -73.5 -2t-71.5 -6v-612z" />
<glyph unicode="&#x40a;" horiz-adv-x="1765" d="M156 0v1380h155v-557h537v557h158v-546q39 6 87 9t99 3q98 0 187 -23.5t158 -74t109 -128t40 -184.5q0 -100 -31 -173t-82 -124q-82 -86 -203 -118.5t-264 -32.5q-84 0 -148.5 4t-109.5 10v688h-537v-690h-155zM1006 123q35 -8 67.5 -10t77.5 -2q74 0 141.5 18t117.5 57 t81 98.5t31 143.5q0 80 -30 136.5t-80 91t-116.5 51t-138.5 16.5q-53 0 -88 -2t-63 -6v-592z" />
<glyph unicode="&#x40b;" horiz-adv-x="1339" d="M0 1249v131h997v-131h-473v-428q66 39 153 71t171 32q82 0 140.5 -25t103.5 -68q102 -111 102 -319v-512h-156v489q0 78 -15 135.5t-50 98.5q-31 33 -76 53.5t-104 20.5q-33 0 -70 -8.5t-72 -20.5t-67.5 -29.5t-59.5 -36.5v-702h-155v1249h-369z" />
<glyph unicode="&#x40c;" horiz-adv-x="1073" d="M156 0v1380h155v-612h68l461 612h198l-510 -632h7q86 -12 150.5 -53.5t111.5 -100.5t79.5 -133t57.5 -152q29 -82 56.5 -158.5t62.5 -150.5h-174q-27 53 -53.5 128t-53.5 153q-29 84 -61.5 149.5t-78.5 110.5t-108.5 68.5t-150.5 23.5h-62v-633h-155zM414 1454l194 238 h197l-264 -238h-127z" />
<glyph unicode="&#x40d;" horiz-adv-x="1306" d="M156 0v1380h155v-581v-304.5t-10 -279.5l8 -2q53 109 116.5 221.5t135.5 235.5l424 710h166v-1380h-156v586v249.5t9 313.5l-7 2q-53 -115 -117.5 -231.5t-131.5 -233.5l-420 -686h-172zM473 1772h183l178 -289h-113z" />
<glyph unicode="&#x40e;" horiz-adv-x="1019" d="M4 1380h174l268 -592v3q25 -63 55.5 -139.5t53.5 -135.5q20 51 47 129t51 150l213 585h162q-68 -178 -139.5 -355t-138.5 -353q-29 -70 -58.5 -144.5t-62.5 -144.5t-67 -132.5t-66 -107.5q-66 -86 -137.5 -127t-161.5 -41q-59 0 -91 9l15 129q10 -2 23.5 -3t33.5 -1 q53 0 97 23.5t78 59t59.5 78.5t42.5 82q16 39 -9 97zM264 1671h123q6 -49 35 -91t96 -42q66 0 95.5 41t35.5 92h123q-8 -104 -71.5 -162.5t-186.5 -58.5q-117 0 -179.5 59.5t-70.5 161.5z" />
<glyph unicode="&#x40f;" horiz-adv-x="1261" d="M156 0v1380h153v-1249h643v1249h154v-1380h-395l-17 -356h-127l-14 356h-397z" />
<glyph unicode="&#x410;" horiz-adv-x="1214" d="M53 0l467 1380h180l467 -1380h-163l-152 446h-492l-147 -446h-160zM395 569h424l-141 412q-14 39 -30.5 102.5t-39.5 151.5h-4q-20 -82 -36.5 -144.5t-32.5 -107.5z" />
<glyph unicode="&#x411;" horiz-adv-x="1085" d="M156 2v1378h743v-127h-588v-405q39 6 92.5 9t88.5 3q96 0 186 -21.5t160 -68.5q76 -51 122 -132t46 -202q0 -98 -28 -170.5t-81 -126.5q-84 -84 -209 -117.5t-266 -33.5q-82 0 -152.5 4t-113.5 10zM311 119q35 -4 71 -6t85 -2q84 0 163 25.5t132 82.5q37 39 58.5 92.5 t21.5 120.5q0 82 -33 140.5t-86 97.5q-55 39 -124 53t-140 14q-41 0 -77 -2t-71 -6v-610z" />
<glyph unicode="&#x412;" horiz-adv-x="1073" d="M156 2v1360q137 29 307 29q229 0 352 -89.5t123 -252.5q0 -104 -63.5 -185.5t-169.5 -120.5v-4q125 -31 204.5 -124t79.5 -224q0 -90 -33.5 -164.5t-103.5 -128t-177.5 -82t-256.5 -28.5q-66 0 -131.5 3t-130.5 11zM311 121q51 -10 150 -10q172 0 268 72.5t96 207.5 q0 131 -98 206t-266 75h-150v-551zM311 791h168q137 0 219 68.5t82 174.5q0 236 -311 236q-106 0 -158 -15v-464z" />
<glyph unicode="&#x413;" horiz-adv-x="886" d="M156 0v1380h733v-129h-578v-1251h-155z" />
<glyph unicode="&#x414;" horiz-adv-x="1263" d="M25 125l102 4q41 76 79 154.5t62 158.5q35 121 50.5 264.5t15.5 325.5v348h741v-1251l123 -4l-12 -461h-123l-12 336h-879l-12 -336h-123zM291 131h629v1118h-441v-274q0 -168 -16.5 -309.5t-52.5 -259.5q-25 -76 -55.5 -147t-63.5 -128z" />
<glyph unicode="&#x415;" horiz-adv-x="972" d="M156 0v1380h714v-129h-559v-465h529v-129h-529v-528h590v-129h-745z" />
<glyph unicode="&#x416;" horiz-adv-x="1585" d="M23 0q43 96 71.5 193.5t61.5 195.5q25 74 55.5 134.5t72.5 106.5t99 75.5t135 39.5l-475 635h201l415 -612h56v612h155v-612h58l413 612h201l-475 -635q80 -8 137.5 -36.5t99.5 -74.5t71.5 -107.5t54.5 -135.5q35 -98 63.5 -196.5t69.5 -194.5h-172q-35 70 -60.5 160 t-52.5 164q-23 70 -49.5 127t-65.5 98t-94 62.5t-135 21.5h-64v-633h-155v633h-66q-80 0 -135 -21.5t-94 -62.5t-65.5 -98.5t-51.5 -126.5q-25 -74 -49.5 -164t-58.5 -160h-172z" />
<glyph unicode="&#x417;" horiz-adv-x="972" d="M68 61l38 121q57 -33 132 -55.5t159 -22.5q156 0 240 78t84 197q0 80 -35 134t-89 87t-121.5 47.5t-133.5 14.5h-63v114h63q70 0 129 21.5t103 58.5t70 86t26 105q0 111 -69 170t-185 59q-72 0 -144.5 -25.5t-126.5 -58.5l-41 111q70 47 153 73.5t192 26.5 q174 0 280.5 -89t106.5 -249q0 -127 -78 -215t-197 -117v-8q141 -18 233.5 -108.5t92.5 -237.5q0 -109 -41 -184.5t-108.5 -123.5t-153.5 -71t-176 -23t-177.5 19.5t-162.5 64.5z" />
<glyph unicode="&#x418;" horiz-adv-x="1306" d="M156 0v1380h155v-581v-304.5t-10 -279.5l8 -2q53 109 116.5 221.5t135.5 235.5l424 710h166v-1380h-156v586v249.5t9 313.5l-7 2q-53 -115 -117.5 -231.5t-131.5 -233.5l-420 -686h-172z" />
<glyph unicode="&#x419;" horiz-adv-x="1306" d="M156 0v1380h155v-581v-304.5t-10 -279.5l8 -2q53 109 116.5 221.5t135.5 235.5l424 710h166v-1380h-156v586v249.5t9 313.5l-7 2q-53 -115 -117.5 -231.5t-131.5 -233.5l-420 -686h-172zM397 1671h123q6 -49 35 -91t96 -42q66 0 95.5 41t35.5 92h123 q-8 -104 -71.5 -162.5t-186.5 -58.5q-117 0 -179 59.5t-71 161.5z" />
<glyph unicode="&#x41a;" horiz-adv-x="1073" d="M156 0v1380h155v-612h68l461 612h198l-510 -632h7q86 -12 150.5 -53.5t111.5 -100.5t79.5 -133t57.5 -152q29 -82 56.5 -158.5t62.5 -150.5h-174q-27 53 -53.5 128t-53.5 153q-29 84 -61.5 149.5t-78.5 110.5t-108.5 68.5t-150.5 23.5h-62v-633h-155z" />
<glyph unicode="&#x41b;" horiz-adv-x="1191" d="M-6 129q41 8 80 27.5t63 44.5q41 41 65.5 108.5t37 148.5t15.5 169t3 172v581h778v-1380h-155v1249h-471v-436q0 -113 -5.5 -227.5t-26 -218t-61.5 -186.5t-110 -132q-39 -25 -89 -45t-100 -20z" />
<glyph unicode="&#x41c;" horiz-adv-x="1603" d="M121 0l94 1380h195l245 -698q43 -121 78 -235.5t64 -227.5h4q55 211 147 461l256 700h195l86 -1380h-152l-35 618q-10 199 -16 338.5t-6 225.5v35h-6q-37 -123 -79 -253t-93 -268l-252 -690h-115l-233 676q-53 154 -93 287t-67 248h-6q-2 -147 -9.5 -300t-17.5 -313 l-37 -604h-147z" />
<glyph unicode="&#x41d;" horiz-adv-x="1296" d="M156 0v1380h155v-587h674v587h156v-1380h-156v659h-674v-659h-155z" />
<glyph unicode="&#x41e;" d="M74 678q0 160 46 294t128 229t195.5 148.5t248.5 53.5t247 -51.5t189.5 -143.5t120.5 -220.5t43 -282.5q0 -162 -44 -295.5t-125 -229.5t-194.5 -149.5t-252.5 -53.5q-133 0 -243.5 52.5t-190.5 145.5t-124 221t-44 282zM236 682q0 -121 32.5 -226.5t91 -183t140.5 -123 t180 -45.5q100 0 183 45.5t141.5 125t90 187t31.5 234.5q0 123 -32.5 228.5t-91 184.5t-139.5 123t-179 44q-100 0 -183 -44t-141.5 -123t-91 -188.5t-32.5 -238.5z" />
<glyph unicode="&#x41f;" horiz-adv-x="1267" d="M156 0v1380h956v-1380h-154v1249h-649v-1249h-153z" />
<glyph unicode="&#x420;" horiz-adv-x="1054" d="M156 0v1364q74 14 154.5 20.5t168.5 6.5q242 0 367 -108t125 -290q0 -106 -38 -189t-105.5 -139.5t-163 -85t-207.5 -28.5q-100 0 -146 14v-565h-155zM311 692q59 -16 150 -16q166 0 260 80t94 227q0 141 -90 212t-244 71q-106 0 -170 -15v-559z" />
<glyph unicode="&#x421;" horiz-adv-x="1153" d="M74 678q0 162 50 295t142 228t221 147.5t287 52.5q201 0 316 -60l-41 -127q-117 55 -271 56q-127 0 -226 -41t-170 -117t-107.5 -185.5t-36.5 -244.5q0 -133 35.5 -238.5t104 -179.5t167 -112.5t223.5 -38.5q170 0 287 55l35 -125q-127 -63 -357 -63q-150 0 -271.5 49 t-207.5 140t-133 220t-47 289z" />
<glyph unicode="&#x422;" horiz-adv-x="980" d="M-4 1249v131h991v-131h-420v-1249h-155v1249h-416z" />
<glyph unicode="&#x423;" horiz-adv-x="1019" d="M4 1380h174l268 -592v3q25 -63 55.5 -139.5t53.5 -135.5q20 51 47 129t51 150l213 585h162q-68 -178 -139.5 -355t-138.5 -353q-29 -70 -58.5 -144.5t-62.5 -144.5t-67 -132.5t-66 -107.5q-66 -86 -137.5 -127t-161.5 -41q-59 0 -91 9l15 129q10 -2 23.5 -3t33.5 -1 q53 0 97 23.5t78 59t59.5 78.5t42.5 82q16 39 -9 97z" />
<glyph unicode="&#x424;" horiz-adv-x="1452" d="M78 682q0 170 52 287.5t133 191.5t181.5 110t198.5 42h10v123h148v-123h10q104 -4 205.5 -41t181.5 -112t128 -191.5t48 -278.5q0 -164 -48 -277.5t-128 -187t-181.5 -109.5t-205.5 -42h-10v-129h-148v129h-10q-104 6 -205.5 41t-181.5 106.5t-129 184t-49 276.5z M236 690q0 -123 34.5 -212t91 -148.5t129 -90t150.5 -38.5h12v983h-10q-70 -4 -141.5 -31t-131 -85t-97 -150.5t-37.5 -227.5zM801 201h10q76 6 148.5 35.5t130 88t92.5 149.5t35 218q0 133 -35 225.5t-92.5 149.5t-130 85t-148.5 32h-10v-983z" />
<glyph unicode="&#x425;" horiz-adv-x="1132" d="M53 0l418 700l-401 680h178l188 -336q23 -39 55.5 -97t73.5 -136h4q39 80 129 233l193 336h180l-418 -671l426 -709h-180l-182 315q-29 49 -69 118t-91 157h-4q-18 -39 -58 -105.5t-94 -169.5l-170 -315h-178z" />
<glyph unicode="&#x426;" horiz-adv-x="1288" d="M156 0v1380h155v-1249h637v1249h160v-1253l115 -4l-13 -455h-123l-12 332h-919z" />
<glyph unicode="&#x427;" horiz-adv-x="1189" d="M147 911v469h154v-460q0 -141 77 -219t222 -78q72 0 147.5 22.5t126.5 56.5h5v678h155v-1388h-155l-5 590h-16q-70 -41 -152.5 -63.5t-164.5 -22.5q-66 0 -134.5 17t-127 63.5t-95.5 127t-37 207.5z" />
<glyph unicode="&#x428;" horiz-adv-x="1675" d="M156 0v1380h153v-1249h451v1249h153v-1249h451v1249h156v-1380h-1364z" />
<glyph unicode="&#x429;" horiz-adv-x="1675" d="M156 0v1380h153v-1249h451v1249h153v-1249h451v1249h156v-1253l114 -4l-12 -455h-123l-12 332h-1331z" />
<glyph unicode="&#x42a;" horiz-adv-x="1245" d="M0 1253v127h500v-532q37 6 88 9t86 3q90 0 177 -21.5t153 -68.5q74 -51 117.5 -132t43.5 -202q0 -98 -26.5 -170.5t-77.5 -126.5q-80 -84 -202 -117.5t-257 -33.5q-78 0 -147.5 4t-110.5 10v1251h-344zM500 119q35 -4 66.5 -6t78.5 -2q80 0 154.5 25.5t126.5 82.5 q37 39 57.5 92.5t20.5 120.5q0 82 -32 140.5t-83 97.5q-53 39 -116.5 53t-135.5 14q-39 0 -72 -2t-65 -6v-610z" />
<glyph unicode="&#x42b;" horiz-adv-x="1447" d="M156 2v1378h155v-532q39 6 88.5 9t83.5 3q96 0 183.5 -21.5t156.5 -68.5q76 -51 122 -132t46 -202q0 -98 -27.5 -170.5t-80.5 -126.5q-84 -84 -206 -117.5t-263 -33.5q-82 0 -148.5 4t-109.5 10zM311 119q35 -4 67 -6t81 -2q84 0 159.5 25.5t129.5 82.5q37 39 58 92.5 t21 120.5q0 82 -32.5 140.5t-85.5 97.5q-55 39 -121 53t-137 14q-41 0 -73 -2t-67 -6v-610zM1137 0v1380h155v-1380h-155z" />
<glyph unicode="&#x42c;" horiz-adv-x="1077" d="M156 2v1378h155v-532q39 6 90.5 9t85.5 3q96 0 184.5 -21.5t157.5 -68.5q76 -51 122 -132t46 -202q0 -98 -27.5 -170.5t-80.5 -126.5q-84 -84 -207 -117.5t-264 -33.5q-82 0 -150.5 4t-111.5 10zM311 119q35 -4 69 -6t83 -2q84 0 160.5 25.5t130.5 82.5q37 39 58.5 92.5 t21.5 120.5q0 82 -33 140.5t-86 97.5q-55 39 -122 53t-138 14q-41 0 -75 -2t-69 -6v-610z" />
<glyph unicode="&#x42d;" horiz-adv-x="1122" d="M63 45q10 35 16.5 60.5t14.5 58.5q59 -27 135 -42.5t152 -15.5q115 0 206 42t155.5 115t100.5 171t42 211h-637v125h635q-10 104 -45 196.5t-95.5 161t-145.5 108.5t-191 40q-86 0 -153 -18.5t-132 -47.5q-10 31 -18.5 58.5t-18.5 58.5q70 31 155 53.5t177 22.5 q158 0 276.5 -55.5t197.5 -151.5t119 -227t40 -281q0 -170 -50.5 -302t-138.5 -223t-204.5 -138.5t-249.5 -47.5q-96 0 -184.5 18.5t-158.5 49.5z" />
<glyph unicode="&#x42e;" horiz-adv-x="1669" d="M156 0v1380h155v-604h205q27 307 173.5 467t371.5 160q125 0 224 -51.5t168 -144.5t105.5 -221t36.5 -281q0 -180 -43 -316.5t-117.5 -227.5t-175 -137.5t-215.5 -46.5q-117 0 -212 44.5t-164.5 129.5t-109.5 208.5t-46 283.5h-201v-643h-155zM659 682q0 -113 26 -217.5 t76 -184t122.5 -128t167.5 -48.5h2q94 0 166.5 47.5t122 128t75 188t25.5 228.5q0 106 -23.5 210t-72 186t-121 133t-170.5 51q-100 0 -174 -49t-123 -132t-74 -190.5t-25 -222.5z" />
<glyph unicode="&#x42f;" horiz-adv-x="1060" d="M47 0q33 63 105 375q51 231 204 284v7q-260 88 -260 354q0 184 125 277.5t363 93.5q92 0 172 -7.5t149 -21.5v-1362h-155v608h-170q-123 0 -186.5 -64.5t-96.5 -211.5q-59 -279 -88 -332h-162zM252 999q0 -123 85 -197.5t232 -74.5h181v526q-57 14 -175 15 q-323 -1 -323 -269z" />
<glyph unicode="&#x430;" horiz-adv-x="956" d="M74 258q0 180 149.5 273.5t433.5 93.5v22q0 244 -227 244q-141 0 -250 -72l-37 107q131 84 310 84q360 0 360 -396v-378q0 -72 3 -130.5t11 -105.5h-141l-14 127h-6q-100 -150 -299 -150q-63 0 -116.5 20.5t-92.5 58.5t-61.5 89.5t-22.5 112.5zM231 279 q0 -92 49.5 -137.5t122.5 -45.5q47 0 93.5 16.5t82 46t58 72.5t22.5 97v184h-30q-397 0 -398 -233z" />
<glyph unicode="&#x431;" horiz-adv-x="1007" d="M78 645q0 328 129 526.5t409 260.5q61 14 126 25t96 22l-9 -125q-39 -16 -93 -25.5t-105 -19.5q-104 -18 -183 -65.5t-126 -129.5q-41 -72 -69 -168t-32 -178l8 -2q39 119 123 171t176 52q82 0 155 -31.5t128 -94t87 -154t32 -209.5q0 -244 -111.5 -383.5t-312.5 -139.5 q-121 0 -202 57.5t-132 152t-72.5 214t-21.5 244.5zM240 502q0 -61 16 -132t50 -131.5t84 -100.5t120 -40t120 34t82.5 88t47 122t14.5 137v2q0 63 -13 131t-44 125.5t-83 94t-128 36.5q-70 0 -120 -34.5t-83 -88t-48 -118t-15 -125.5z" />
<glyph unicode="&#x432;" horiz-adv-x="972" d="M143 -2v983q53 8 132 14t161 6q59 0 132 -8t136.5 -34.5t106.5 -74.5t43 -130q0 -92 -61.5 -147.5t-141.5 -74.5v-4q104 -18 175 -78.5t71 -166.5q0 -96 -51 -154.5t-127 -89.5t-163 -41t-157 -10q-76 0 -144.5 3t-111.5 7zM297 109q25 -4 43 -5.5t33.5 -3.5t31 -2h35.5 q47 0 98.5 7.5t94.5 27t71.5 54t28.5 92.5q0 55 -23.5 91t-64.5 56t-97 28.5t-122 8.5h-129v-354zM299 569h133q51 0 99.5 9.5t84 29t57 51t21.5 76.5q0 78 -58 116t-200 38q-39 0 -64.5 -2t-72.5 -6v-312z" />
<glyph unicode="&#x433;" horiz-adv-x="729" d="M143 0v989h586v-127h-430v-862h-156z" />
<glyph unicode="&#x434;" horiz-adv-x="1028" d="M12 123l80 2q33 47 58.5 103.5t44.5 109.5q29 92 43 194.5t14 206.5v250h612v-864l103 -2l-11 -445h-116l-9 322h-686l-8 -322h-117zM256 127h453v735h-318v-164q0 -98 -13 -192t-38 -180q-14 -55 -36.5 -105.5t-47.5 -93.5z" />
<glyph unicode="&#x435;" horiz-adv-x="997" d="M78 479q0 117 32.5 214.5t91 168t141.5 110.5t185 40q92 0 165 -34t124 -94.5t78 -144.5t27 -184q0 -49 -7 -80h-686q4 -176 93.5 -273.5t248.5 -97.5q152 0 267 52l28 -113q-129 -61 -317 -61q-111 0 -198 35.5t-148.5 102t-93 158t-31.5 201.5zM233 590h535 q0 141 -65.5 224t-188.5 83q-115 0 -190.5 -86t-90.5 -221z" />
<glyph unicode="&#x436;" horiz-adv-x="1277" d="M12 0q29 66 52.5 133.5t52.5 138.5q47 123 116.5 186.5t182.5 76.5l-387 456h182l324 -440h32v440h148v-440h30l324 440h184l-389 -456q113 -12 182.5 -78t116.5 -183q31 -90 52.5 -152.5t50.5 -121.5h-158q-16 39 -40 102.5t-44 126.5q-45 125 -116.5 170t-174.5 45h-18 v-444h-148v444h-20q-109 0 -177.5 -46t-115.5 -171q-35 -94 -55.5 -146t-34.5 -81h-152z" />
<glyph unicode="&#x437;" horiz-adv-x="829" d="M53 47l43 115q51 -27 114.5 -43.5t129.5 -16.5q115 0 179.5 50.5t64.5 128.5q0 51 -23.5 85.5t-63.5 55t-92.5 29t-107.5 8.5h-74v110h70q117 0 186.5 49.5t69.5 120.5q0 72 -55.5 112t-141.5 40q-59 0 -117.5 -15.5t-105.5 -41.5q-12 29 -23.5 53t-21.5 53 q86 47 160.5 59.5t150.5 12.5q53 0 108.5 -14.5t100.5 -45t74 -80t29 -120.5q0 -45 -17.5 -83t-47.5 -66t-66.5 -47t-75.5 -28v-4q51 -6 97 -25.5t80 -50t54.5 -73.5t20.5 -99q0 -80 -35 -137t-91.5 -92t-128 -51t-143.5 -16q-80 0 -158.5 16t-142.5 51z" />
<glyph unicode="&#x438;" horiz-adv-x="1071" d="M143 0v989h150v-418l-4 -395h8q37 86 74 153.5t80 147.5l292 512h185v-989h-150v418v98t1 91t1 97.5v118.5h-6q-23 -47 -42 -87t-38.5 -75.5t-39 -70.5t-40.5 -72q-18 -31 -40.5 -68.5t-47 -79.5t-49 -86t-47.5 -85q-53 -98 -111 -199h-176z" />
<glyph unicode="&#x439;" horiz-adv-x="1071" d="M143 0v989h150v-418l-4 -395h8q37 86 74 153.5t80 147.5l292 512h185v-989h-150v418v98t1 91t1 97.5v118.5h-6q-23 -47 -42 -87t-38.5 -75.5t-39 -70.5t-40.5 -72q-18 -31 -40.5 -68.5t-47 -79.5t-49 -86t-47.5 -85q-53 -98 -111 -199h-176zM270 1395h127q4 -72 38 -118 t97 -46q66 0 101 45t41 119h127q-8 -127 -81 -190.5t-192 -63.5q-68 0 -115.5 19.5t-78.5 54t-46.5 80.5t-17.5 100z" />
<glyph unicode="&#x43a;" horiz-adv-x="921" d="M143 0v989h156v-438h41l367 438h194l-420 -450q115 -12 194 -93t134 -210q23 -59 47.5 -118t56.5 -118h-168q-18 29 -40.5 83t-45.5 120q-53 123 -129.5 182t-210.5 59h-20v-444h-156z" />
<glyph unicode="&#x43b;" horiz-adv-x="999" d="M8 115q27 4 51.5 16t40.5 27q68 53 87.5 161.5t19.5 274.5v395h649v-989h-156v862h-346v-264q0 -63 -2 -133t-12 -136.5t-30.5 -127t-57.5 -107.5t-92.5 -75.5t-134.5 -32.5z" />
<glyph unicode="&#x43c;" horiz-adv-x="1234" d="M86 0l70 989h200l172 -497q8 -29 19.5 -64t23 -72t22.5 -72.5t19 -64.5h6q8 27 21.5 69t28 88t31 94t30.5 89l152 430h200l68 -989h-158l-20 473l-8.5 170t-6.5 182h-6q-10 -35 -20 -67.5t-21.5 -69.5t-27 -81t-33.5 -101l-184 -500h-119l-172 490q-10 35 -22.5 77.5 t-25 87t-24.5 86t-20 76.5h-7q-4 -88 -7 -180t-7 -174l-22 -469h-152z" />
<glyph unicode="&#x43d;" horiz-adv-x="1062" d="M143 0v987h156v-407h467v407h154v-987h-154v461h-467v-461h-156z" />
<glyph unicode="&#x43e;" horiz-adv-x="1091" d="M78 487q0 115 34.5 211.5t97 165t151 107.5t192.5 39t189 -38t145.5 -104.5t93.5 -159.5t33 -204q0 -117 -35 -213t-98.5 -166t-150.5 -109t-193 -39q-102 0 -186.5 38t-145 106.5t-94 162t-33.5 203.5zM236 492q0 -80 22.5 -152t62 -125t97 -85t125.5 -32t124 31t97 85 t64.5 127t23.5 157q0 82 -21.5 154.5t-61.5 124.5t-96.5 83t-125.5 31q-72 0 -129.5 -31t-98 -84t-62 -125.5t-21.5 -158.5z" />
<glyph unicode="&#x43f;" horiz-adv-x="1042" d="M143 0v989h756v-989h-156v862h-444v-862h-156z" />
<glyph unicode="&#x440;" horiz-adv-x="1132" d="M143 989h142v-172h12q111 193 346 193q88 0 164 -37t131 -102.5t86 -158.5t31 -204q0 -119 -32 -216t-90.5 -167t-139 -109t-179.5 -39q-209 0 -303 160h-4v-543h-155v1076q0 80 -2.5 159.5t-6.5 159.5zM307 397q0 -61 21.5 -114.5t58.5 -93t89 -63.5t114 -24 q141 0 224 108t83 292q0 82 -21.5 152.5t-60.5 121.5t-95 80t-124 29q-53 0 -105.5 -22.5t-93.5 -63.5t-65.5 -97.5t-24.5 -123.5v-181z" />
<glyph unicode="&#x441;" horiz-adv-x="894" d="M78 483q0 117 38 213.5t105.5 166t162.5 108.5t210 39q150 0 246 -54l-39 -122q-90 49 -209 49q-84 0 -149.5 -30t-110.5 -82t-69.5 -124t-24.5 -155q0 -86 25.5 -158t71.5 -122t109.5 -78t141.5 -28q111 0 219 50l31 -119q-115 -57 -279 -57q-109 0 -197 35.5 t-151.5 102t-97 159t-33.5 206.5z" />
<glyph unicode="&#x442;" horiz-adv-x="798" d="M14 868v121h770v-121h-309v-868h-156v868h-305z" />
<glyph unicode="&#x443;" horiz-adv-x="929" d="M20 989h170l222 -600q16 -43 32.5 -94t30.5 -111h6q10 35 25.5 86.5t38.5 122.5l203 596h165l-268 -706q-100 -260 -166 -389q-84 -162 -180 -243t-190 -102l-43 132q98 35 180 115.5t131 191.5q12 27 12 43q0 14 -12 45z" />
<glyph unicode="&#x444;" horiz-adv-x="1280" d="M78 487q0 123 38 217.5t103.5 159t154.5 101t193 45.5v450h144v-450q109 -8 198.5 -45t155 -102.5t101.5 -157t36 -207.5q0 -123 -38 -216.5t-104.5 -158t-156.5 -100t-192 -41.5v-394h-144v392q-106 6 -196 42.5t-154.5 101t-101.5 156t-37 207.5zM229 494 q0 -80 23.5 -149t66.5 -122t105.5 -87t142.5 -44v807q-164 -23 -251 -134.5t-87 -270.5zM711 92q160 23 250 134.5t90 271.5q0 80 -23.5 148.5t-66.5 120.5t-106.5 86t-143.5 46v-807z" />
<glyph unicode="&#x445;" horiz-adv-x="913" d="M18 0l347 504l-330 485h174l145 -219q23 -35 48.5 -76t54.5 -88h4q20 35 45.5 76t56.5 88l142 219h172l-334 -479l342 -510h-176l-152 229q-23 33 -48.5 77t-57.5 100h-7q-14 -27 -39.5 -71t-66.5 -106l-148 -229h-172z" />
<glyph unicode="&#x446;" horiz-adv-x="1081" d="M143 0v989h156v-862h465v862h156v-868h10l90 -2l-10 -434h-125l-8 315h-734z" />
<glyph unicode="&#x447;" horiz-adv-x="1026" d="M131 639v350h156v-330q0 -49 10 -90t34.5 -69.5t66.5 -45t104 -16.5q59 0 118.5 20.5t106.5 53.5v477h156v-1001h-156v420q-61 -39 -139 -62.5t-146 -23.5t-125 18t-99 56t-64.5 98.5t-22.5 144.5z" />
<glyph unicode="&#x448;" horiz-adv-x="1429" d="M143 0v989h156v-862h338v862h156v-862h337v862h156v-989h-1143z" />
<glyph unicode="&#x449;" horiz-adv-x="1445" d="M143 0v989h156v-862h338v862h156v-862h337v862h156v-868h12l86 -2l-10 -434h-117l-8 315h-1106z" />
<glyph unicode="&#x44a;" horiz-adv-x="1144" d="M27 862v127h450v-342q41 8 87 10t87 2q78 0 153 -17t133 -56t94 -102.5t36 -153.5q0 -78 -26.5 -134.5t-71.5 -95.5q-39 -35 -87 -56t-99.5 -33.5t-103.5 -16.5t-101 -4q-68 0 -135.5 3t-120.5 7v862h-295zM477 106q33 -4 70 -7t71 -3q47 0 98.5 12.5t94.5 39t70.5 69.5 t27.5 105q0 63 -26.5 107t-68.5 71.5t-94 39t-102 11.5q-29 0 -66.5 -3t-74.5 -9v-433z" />
<glyph unicode="&#x44b;" horiz-adv-x="1296" d="M143 0v989h156v-342q41 8 83 10t83 2q78 0 151.5 -17t130 -56t91 -102.5t34.5 -153.5q0 -78 -26.5 -134.5t-71.5 -95.5q-39 -35 -85 -56t-96 -33.5t-101.5 -16.5t-100.5 -4q-68 0 -131 3t-117 7zM299 106q33 -4 65.5 -7t67.5 -3q47 0 97.5 12.5t91.5 39t67.5 69.5 t26.5 105q0 63 -25.5 107t-65.5 71.5t-91.5 39t-100.5 11.5q-59 0 -133 -12v-433zM997 0v989h156v-989h-156z" />
<glyph unicode="&#x44c;" horiz-adv-x="974" d="M143 0v989h156v-342q41 8 89 10t89 2q78 0 154 -17t135 -56t96 -102.5t37 -153.5q0 -78 -26.5 -134.5t-71.5 -95.5q-39 -35 -88 -56t-101.5 -33.5t-105.5 -16.5t-103 -4q-68 0 -137 3t-123 7zM299 106q33 -4 72 -7t73 -3q47 0 99.5 12.5t96.5 39t72.5 69.5t28.5 105 q0 63 -27.5 107t-70.5 71.5t-96 39t-103 11.5q-29 0 -68.5 -3t-76.5 -9v-433z" />
<glyph unicode="&#x44d;" horiz-adv-x="919" d="M51 31l35 116q35 -16 94.5 -30.5t138.5 -14.5q154 0 253.5 90.5t109.5 258.5h-496v116h498q-6 66 -30.5 124.5t-67.5 101.5t-107.5 68.5t-150.5 25.5q-76 0 -130.5 -17.5t-95.5 -33.5q-10 29 -19 56.5t-20 55.5q59 31 141.5 46.5t153.5 15.5q104 0 195.5 -36t157.5 -106 q63 -66 97 -161t34 -218q0 -109 -34 -201.5t-100.5 -161.5t-161.5 -109t-218 -40q-74 0 -146.5 12.5t-130.5 41.5z" />
<glyph unicode="&#x44e;" horiz-adv-x="1361" d="M143 0v989h156v-424h182q8 100 43 183t87.5 142.5t122 91.5t149.5 32q88 0 162.5 -37t127 -103.5t82 -161t29.5 -208.5q0 -121 -31.5 -218.5t-88 -166t-131.5 -105.5t-161 -37q-80 0 -150.5 32t-122.5 92.5t-84 147.5t-38 197h-178v-446h-156zM629 489q0 -76 14 -146.5 t44 -124.5t76 -87t111 -33h3q68 0 114.5 35t75.5 92.5t42 129t13 145.5t-13 143.5t-43 124.5t-76 89t-111 34q-66 0 -113 -34t-78 -89t-45 -128t-14 -151z" />
<glyph unicode="&#x44f;" horiz-adv-x="940" d="M20 0q18 29 32 54.5t26 51.5q16 37 28.5 77t28 80t35.5 77t53 68q23 20 48.5 35.5t58.5 21.5v8q-47 8 -91 26.5t-78 49.5t-55.5 74t-21.5 100q0 78 34 130t85 83q59 35 137 51.5t168 16.5q86 0 155.5 -5.5t133.5 -13.5v-985h-148v422h-127q-57 0 -96 -16.5t-68 -40.5 q-31 -27 -51 -61t-34.5 -71.5t-27 -76.5t-26.5 -76q-10 -27 -19.5 -47.5t-17.5 -32.5h-162zM240 715q0 -49 26.5 -84t65.5 -56.5t85 -30.5t87 -9h145v346q-39 6 -71.5 9t-77.5 3q-47 0 -93.5 -8t-83 -27.5t-60 -54.5t-23.5 -88z" />
<glyph unicode="&#x450;" horiz-adv-x="997" d="M78 479q0 117 32.5 214.5t91 168t141.5 110.5t185 40q92 0 165 -34t124 -94.5t78 -144.5t27 -184q0 -49 -7 -80h-686q4 -176 93.5 -273.5t248.5 -97.5q152 0 267 52l28 -113q-129 -61 -317 -61q-111 0 -198 35.5t-148.5 102t-93 158t-31.5 201.5zM233 590h535 q0 141 -65.5 224t-188.5 83q-115 0 -190.5 -86t-90.5 -221zM319 1403h183l178 -289h-113z" />
<glyph unicode="&#x451;" horiz-adv-x="997" d="M78 479q0 117 32.5 214.5t91 168t141.5 110.5t185 40q92 0 165 -34t124 -94.5t78 -144.5t27 -184q0 -49 -7 -80h-686q4 -176 93.5 -273.5t248.5 -97.5q152 0 267 52l28 -113q-129 -61 -317 -61q-111 0 -198 35.5t-148.5 102t-93 158t-31.5 201.5zM233 590h535 q0 141 -65.5 224t-188.5 83q-115 0 -190.5 -86t-90.5 -221zM260 1239q0 39 28.5 67.5t67.5 28.5t64.5 -28.5t25.5 -67.5q0 -41 -26.5 -68.5t-67.5 -27.5q-39 0 -65.5 28.5t-26.5 67.5zM625 1239q0 39 27.5 67.5t66.5 28.5t65.5 -28.5t26.5 -67.5q0 -41 -26.5 -68.5 t-67.5 -27.5t-66.5 28.5t-25.5 67.5z" />
<glyph unicode="&#x452;" horiz-adv-x="1101" d="M12 1159v113h168v180h156v-180h405v-113h-405v-299h4q53 59 127 100t164 41q92 0 164.5 -41.5t119.5 -117.5q59 -86 83 -199t24 -235q0 -115 -20.5 -230t-70.5 -212t-136 -166.5t-215 -94.5l-33 125q100 20 162.5 73.5t97.5 128t47 168t12 197.5q0 92 -15 189.5 t-63 175.5q-29 49 -81 79.5t-111 30.5t-123.5 -32.5t-107.5 -85.5q-14 -23 -21.5 -49.5t-7.5 -63.5v-641h-156v1159h-168z" />
<glyph unicode="&#x453;" horiz-adv-x="729" d="M143 0v989h586v-127h-430v-862h-156zM307 1110l178 289h183l-248 -289h-113z" />
<glyph unicode="&#x454;" horiz-adv-x="911" d="M78 481q0 119 39 216.5t108.5 167t166.5 107.5t212 38q78 0 146.5 -15.5t107.5 -36.5l-41 -120q-35 16 -88 31.5t-125 15.5q-84 0 -148.5 -25.5t-110.5 -68.5t-72.5 -101.5t-34.5 -122.5h499v-116h-497q10 -170 109.5 -260.5t250.5 -90.5q74 0 131 15.5t94 31.5l33 -114 q-41 -20 -115.5 -38t-173.5 -18q-117 0 -208 38t-153.5 105.5t-96 160t-33.5 200.5z" />
<glyph unicode="&#x455;" horiz-adv-x="784" d="M80 47l41 121q109 -70 229 -70q92 0 145.5 43t53.5 115q0 68 -42 111t-145 84q-254 100 -253 276q0 61 23.5 112.5t65.5 89.5t102 59.5t134 21.5q137 0 234 -60l-43 -116q-88 57 -197 57q-80 0 -125 -41t-45 -102q0 -29 9 -52.5t30.5 -44t57.5 -41t91 -41.5 q254 -100 254 -297q0 -135 -94 -213.5t-260 -78.5q-154 0 -266 67z" />
<glyph unicode="&#x456;" horiz-adv-x="458" d="M125 1286q0 45 29.5 76t74.5 31q47 0 77 -31t28 -76q0 -47 -30 -76.5t-77 -29.5q-43 0 -72.5 29.5t-29.5 76.5zM152 0v989h155v-989h-155z" />
<glyph unicode="&#x457;" horiz-adv-x="458" d="M-45 1239q0 39 27.5 67.5t68.5 28.5q39 0 64.5 -28.5t25.5 -67.5q0 -41 -26.5 -68.5t-67.5 -27.5q-39 0 -65.5 28.5t-26.5 67.5zM152 0v989h155v-989h-155zM319 1239q0 39 27 67.5t68 28.5q39 0 64.5 -28.5t25.5 -67.5q0 -41 -26.5 -68.5t-67.5 -27.5q-39 0 -65 28.5 t-26 67.5z" />
<glyph unicode="&#x458;" horiz-adv-x="475" d="M-92 -305q82 6 134 28.5t80 73.5t38 136t10 214v842h158v-907q0 -135 -27 -232.5t-77 -159t-124.5 -90t-173.5 -30.5zM143 1286q0 45 30 76t77 31q45 0 75.5 -31t28.5 -76q0 -45 -29.5 -75.5t-78.5 -30.5q-37 0 -70 26.5t-33 79.5z" />
<glyph unicode="&#x459;" horiz-adv-x="1507" d="M8 115q27 4 51.5 16t40.5 27q68 53 87.5 161.5t19.5 274.5v395h639v-352q35 4 79 9t85 5q70 0 144.5 -16.5t136 -55t100.5 -101t39 -154.5q0 -78 -26 -131.5t-71 -92.5q-39 -35 -88 -56t-103.5 -33.5t-108.5 -16.5t-103 -4q-68 0 -126.5 3t-111.5 7l-2 862h-336v-264 q0 -63 -2 -133t-12 -136.5t-30.5 -127t-57.5 -107.5t-92.5 -75.5t-134.5 -32.5zM846 106q33 -4 67.5 -7t69.5 -3q47 0 98.5 11.5t93.5 37t69.5 68.5t27.5 104q0 63 -26.5 107.5t-67.5 70t-93.5 37t-101.5 11.5q-29 0 -64.5 -3t-72.5 -10v-424z" />
<glyph unicode="&#x45a;" horiz-adv-x="1513" d="M143 0v989h156v-375h410v375h157v-352q35 4 75 9t81 5q70 0 143.5 -16.5t133 -55t98.5 -101t39 -154.5q0 -78 -26 -131.5t-71 -92.5q-39 -35 -88 -56t-101 -33.5t-105.5 -16.5t-102.5 -4q-68 0 -124 3t-109 7v492h-410v-492h-156zM868 106q33 -4 65 -7t66 -3 q47 0 97.5 11.5t91.5 37t67.5 68.5t26.5 104q0 63 -25.5 107.5t-65.5 70t-91 37t-101 11.5q-57 0 -131 -13v-424z" />
<glyph unicode="&#x45b;" horiz-adv-x="1134" d="M12 1159v113h168v180h156v-180h397v-113h-397v-336h4q47 82 132 130t179 48q154 0 246 -109.5t92 -303.5v-588h-158v569q0 303 -233 303q-53 0 -100 -22.5t-83 -60t-57.5 -88t-21.5 -107.5v-594h-156v1159h-168z" />
<glyph unicode="&#x45c;" horiz-adv-x="921" d="M143 0v989h156v-438h41l367 438h194l-420 -450q115 -12 194 -93t134 -210q23 -59 47.5 -118t56.5 -118h-168q-18 29 -40.5 83t-45.5 120q-53 123 -129.5 182t-210.5 59h-20v-444h-156zM373 1110l178 289h180l-248 -289h-110z" />
<glyph unicode="&#x45d;" horiz-adv-x="1071" d="M143 0v989h150v-418l-4 -395h8q37 86 74 153.5t80 147.5l292 512h185v-989h-150v418v98t1 91t1 97.5v118.5h-6q-23 -47 -42 -87t-38.5 -75.5t-39 -70.5t-40.5 -72q-18 -31 -40.5 -68.5t-47 -79.5t-49 -86t-47.5 -85q-53 -98 -111 -199h-176zM354 1385h183l178 -289h-113z " />
<glyph unicode="&#x45e;" horiz-adv-x="929" d="M20 989h170l222 -600q16 -43 32.5 -94t30.5 -111h6q10 35 25.5 86.5t38.5 122.5l203 596h165l-268 -706q-100 -260 -166 -389q-84 -162 -180 -243t-190 -102l-43 132q98 35 180 115.5t131 191.5q12 27 12 43q0 14 -12 45zM203 1395h127q4 -72 37.5 -118t97.5 -46 q66 0 100.5 45t40.5 119h127q-8 -127 -80.5 -190.5t-191.5 -63.5q-68 0 -116 19.5t-78.5 54t-46 80.5t-17.5 100z" />
<glyph unicode="&#x45f;" horiz-adv-x="1048" d="M143 0v991h156v-864h451v864h155v-991h-307l-12 -322h-119l-14 322h-310z" />
<glyph unicode="&#x490;" horiz-adv-x="915" d="M156 0v1380h612l33 250h114l-22 -379h-582v-1251h-155z" />
<glyph unicode="&#x491;" horiz-adv-x="796" d="M143 0v989l484 2l24 223h107l-13 -352h-446v-862h-156z" />
<glyph unicode="&#x4c0;" horiz-adv-x="468" d="M156 0v1380h155v-1380h-155z" />
<glyph unicode="&#x4c1;" horiz-adv-x="1585" d="M23 0q43 96 71.5 193.5t61.5 195.5q25 74 55.5 134.5t72.5 106.5t99 75.5t135 39.5l-475 635h201l415 -612h56v612h155v-612h58l413 612h201l-475 -635q80 -8 137.5 -36.5t99.5 -74.5t71.5 -107.5t54.5 -135.5q35 -98 63.5 -196.5t69.5 -194.5h-172q-35 70 -60.5 160 t-52.5 164q-23 70 -49.5 127t-65.5 98t-94 62.5t-135 21.5h-64v-633h-155v633h-66q-80 0 -135 -21.5t-94 -62.5t-65.5 -98.5t-51.5 -126.5q-25 -74 -49.5 -164t-58.5 -160h-172zM551 1723h94q20 -143 147 -144q61 0 102.5 42t45.5 102h94q0 -111 -65.5 -175.5t-176.5 -64.5 q-113 0 -177 64.5t-64 175.5z" />
<glyph unicode="&#x4c2;" horiz-adv-x="1277" d="M12 0q29 66 52.5 133.5t52.5 138.5q47 123 116.5 186.5t182.5 76.5l-387 456h182l324 -440h32v440h148v-440h30l324 440h184l-389 -456q113 -12 182.5 -78t116.5 -183q31 -90 52.5 -152.5t50.5 -121.5h-158q-16 39 -40 102.5t-44 126.5q-45 125 -116.5 170t-174.5 45h-18 v-444h-148v444h-20q-109 0 -177.5 -46t-115.5 -171q-35 -94 -55.5 -146t-34.5 -81h-152zM398 1338h94q20 -143 147 -144q61 0 102.5 42t45.5 102h94q0 -111 -65.5 -175.5t-176.5 -64.5q-113 0 -177 64.5t-64 175.5z" />
<glyph unicode="&#x4d0;" horiz-adv-x="1214" d="M53 0l467 1380h180l467 -1380h-163l-152 446h-492l-147 -446h-160zM369 1723h94q20 -143 147 -144q61 0 102.5 42t45.5 102h94q0 -111 -65.5 -175.5t-176.5 -64.5q-113 0 -177 64.5t-64 175.5zM395 569h424l-141 412q-14 39 -30.5 102.5t-39.5 151.5h-4 q-20 -82 -36.5 -144.5t-32.5 -107.5z" />
<glyph unicode="&#x4d1;" horiz-adv-x="956" d="M74 258q0 180 149.5 273.5t433.5 93.5v22q0 244 -227 244q-141 0 -250 -72l-37 107q131 84 310 84q360 0 360 -396v-378q0 -72 3 -130.5t11 -105.5h-141l-14 127h-6q-100 -150 -299 -150q-63 0 -116.5 20.5t-92.5 58.5t-61.5 89.5t-22.5 112.5zM209 1356h94 q20 -143 147 -144q61 0 102.5 42t45.5 102h94q0 -111 -65.5 -175.5t-176.5 -64.5q-113 0 -177 64.5t-64 175.5zM231 279q0 -92 49.5 -137.5t122.5 -45.5q47 0 93.5 16.5t82 46t58 72.5t22.5 97v184h-30q-397 0 -398 -233z" />
<glyph unicode="&#x4d2;" horiz-adv-x="1214" d="M53 0l467 1380h180l467 -1380h-163l-152 446h-492l-147 -446h-160zM336 1579q0 39 27.5 67.5t66.5 28.5t64.5 -28.5t25.5 -67.5q0 -41 -25.5 -68.5t-66.5 -27.5t-66.5 28.5t-25.5 67.5zM395 569h424l-141 412q-14 39 -30.5 102.5t-39.5 151.5h-4q-20 -82 -36.5 -144.5 t-32.5 -107.5zM698 1579q0 39 28 67.5t66 28.5q41 0 67 -28.5t26 -67.5q0 -41 -27 -68.5t-68 -27.5q-39 0 -65.5 28.5t-26.5 67.5z" />
<glyph unicode="&#x4d3;" horiz-adv-x="956" d="M74 258q0 180 149.5 273.5t433.5 93.5v22q0 244 -227 244q-141 0 -250 -72l-37 107q131 84 310 84q360 0 360 -396v-378q0 -72 3 -130.5t11 -105.5h-141l-14 127h-6q-100 -150 -299 -150q-63 0 -116.5 20.5t-92.5 58.5t-61.5 89.5t-22.5 112.5zM176 1208q0 39 27.5 67.5 t66.5 28.5t64.5 -28.5t25.5 -67.5q0 -41 -25.5 -68.5t-66.5 -27.5t-66.5 28.5t-25.5 67.5zM231 279q0 -92 49.5 -137.5t122.5 -45.5q47 0 93.5 16.5t82 46t58 72.5t22.5 97v184h-30q-397 0 -398 -233zM538 1208q0 39 28 67.5t66 28.5q41 0 67 -28.5t26 -67.5 q0 -41 -27 -68.5t-68 -27.5q-39 0 -65.5 28.5t-26.5 67.5z" />
<glyph unicode="&#x4d4;" horiz-adv-x="1554" d="M-2 0l625 1380h815v-129h-576l53 -467h504v-129h-485l63 -526h494v-129h-629l-61 502h-416l-227 -502h-160zM436 629h350l-47 409q-4 41 -9 97.5t-13 132.5h-8q-25 -63 -46.5 -119.5t-44.5 -104.5z" />
<glyph unicode="&#x4d5;" horiz-adv-x="1544" d="M74 256q0 176 151.5 266t436.5 90v45q0 100 -63.5 168t-170.5 68q-145 0 -246 -74l-39 107q135 86 297 86q250 0 312 -215h4q100 215 338 215q86 0 154.5 -35t117.5 -95.5t75.5 -141.5t26.5 -175q0 -49 -6 -76h-655q0 -186 84 -285.5t235 -99.5q145 0 260 56l31 -113 q-127 -68 -311 -67q-129 0 -228.5 59t-140.5 166h-4q-45 -106 -140 -165.5t-220 -59.5q-66 0 -121 20t-95 57t-61.5 88.5t-21.5 110.5zM229 270q0 -80 50.5 -126t126.5 -46q55 0 102 19.5t82 53.5t54.5 79t19.5 98v156h-31q-403 0 -404 -234zM807 604h508v21q0 55 -17.5 105 t-49 87t-75 58.5t-94.5 21.5q-57 0 -105 -22.5t-84 -62.5t-57.5 -93t-25.5 -115z" />
<glyph unicode="&#x4d6;" horiz-adv-x="972" d="M156 0v1380h714v-129h-559v-465h529v-129h-529v-528h590v-129h-745zM287 1723h94q20 -143 147 -144q61 0 102.5 42t45.5 102h94q0 -111 -65.5 -175.5t-176.5 -64.5q-113 0 -177 64.5t-64 175.5z" />
<glyph unicode="&#x4d7;" horiz-adv-x="997" d="M78 479q0 117 32.5 214.5t91 168t141.5 110.5t185 40q92 0 165 -34t124 -94.5t78 -144.5t27 -184q0 -49 -7 -80h-686q4 -176 93.5 -273.5t248.5 -97.5q152 0 267 52l28 -113q-129 -61 -317 -61q-111 0 -198 35.5t-148.5 102t-93 158t-31.5 201.5zM233 590h535 q0 141 -65.5 224t-188.5 83q-115 0 -190.5 -86t-90.5 -221zM259 1358h94q20 -143 147 -144q61 0 102.5 42t45.5 102h94q0 -111 -65.5 -175.5t-176.5 -64.5q-113 0 -177 64.5t-64 175.5z" />
<glyph unicode="&#x4dc;" horiz-adv-x="1585" d="M23 0q43 96 71.5 193.5t61.5 195.5q25 74 55.5 134.5t72.5 106.5t99 75.5t135 39.5l-475 635h201l415 -612h56v612h155v-612h58l413 612h201l-475 -635q80 -8 137.5 -36.5t99.5 -74.5t71.5 -107.5t54.5 -135.5q35 -98 63.5 -196.5t69.5 -194.5h-172q-35 70 -60.5 160 t-52.5 164q-23 70 -49.5 127t-65.5 98t-94 62.5t-135 21.5h-64v-633h-155v633h-66q-80 0 -135 -21.5t-94 -62.5t-65.5 -98.5t-51.5 -126.5q-25 -74 -49.5 -164t-58.5 -160h-172zM518 1579q0 39 27.5 67.5t66.5 28.5t64.5 -28.5t25.5 -67.5q0 -41 -25.5 -68.5t-66.5 -27.5 t-66.5 28.5t-25.5 67.5zM880 1579q0 39 28 67.5t66 28.5q41 0 67 -28.5t26 -67.5q0 -41 -27 -68.5t-68 -27.5q-39 0 -65.5 28.5t-26.5 67.5z" />
<glyph unicode="&#x4dd;" horiz-adv-x="1277" d="M12 0q29 66 52.5 133.5t52.5 138.5q47 123 116.5 186.5t182.5 76.5l-387 456h182l324 -440h32v440h148v-440h30l324 440h184l-389 -456q113 -12 182.5 -78t116.5 -183q31 -90 52.5 -152.5t50.5 -121.5h-158q-16 39 -40 102.5t-44 126.5q-45 125 -116.5 170t-174.5 45h-18 v-444h-148v444h-20q-109 0 -177.5 -46t-115.5 -171q-35 -94 -55.5 -146t-34.5 -81h-152zM365 1190q0 39 27.5 67.5t66.5 28.5t64.5 -28.5t25.5 -67.5q0 -41 -25.5 -68.5t-66.5 -27.5t-66.5 28.5t-25.5 67.5zM727 1190q0 39 28 67.5t66 28.5q41 0 67 -28.5t26 -67.5 q0 -41 -27 -68.5t-68 -27.5q-39 0 -65.5 28.5t-26.5 67.5z" />
<glyph unicode="&#x4de;" horiz-adv-x="972" d="M68 61l38 121q57 -33 132 -55.5t159 -22.5q156 0 240 78t84 197q0 80 -35 134t-89 87t-121.5 47.5t-133.5 14.5h-63v114h63q70 0 129 21.5t103 58.5t70 86t26 105q0 111 -69 170t-185 59q-72 0 -144.5 -25.5t-126.5 -58.5l-41 111q70 47 153 73.5t192 26.5 q174 0 280.5 -89t106.5 -249q0 -127 -78 -215t-197 -117v-8q141 -18 233.5 -108.5t92.5 -237.5q0 -109 -41 -184.5t-108.5 -123.5t-153.5 -71t-176 -23t-177.5 19.5t-162.5 64.5zM203 1601q0 39 27.5 67.5t66.5 28.5t64.5 -28.5t25.5 -67.5q0 -41 -25.5 -68.5t-66.5 -27.5 t-66.5 28.5t-25.5 67.5zM565 1601q0 39 28 67.5t66 28.5q41 0 67 -28.5t26 -67.5q0 -41 -27 -68.5t-68 -27.5q-39 0 -65.5 28.5t-26.5 67.5z" />
</font>
</defs>
</svg>
